<svg xmlns="http://www.w3.org/2000/svg" xmlns:xlink="http://www.w3.org/1999/xlink" viewBox="0 0 640 300"><rect width="640" height="300" opacity="0"/><path d="M452.417,4.206l2.372-2.761-2.372-2.761-2.372,2.761Z" fill="#e6f0fc"/><path d="M468.045,1.45l-2.372-2.761L463.3,1.45l2.372,2.761Z" fill="#e6f0fc"/><path d="M478.93-1.311l-2.372,2.76,1.62,1.886c.557-.065,1.115-.124,1.67-.192l1.457-1.694Z" fill="#e6f0fc"/><path d="M492.188-1.311l-2.372,2.76.146.171c1.365-.243,2.722-.507,4.077-.778Z" fill="#e6f0fc"/><path d="M412.741-1.311l-.865,1c.707.163,1.419.312,2.128.467Z" fill="#e6f0fc"/><path d="M426-1.311l-2.371,2.76.555.648q1.6.261,3.207.494l.981-1.142Z" fill="#e6f0fc"/><path d="M439.253-1.311l-2.372,2.76,2.13,2.479.451.041L441.63,1.45Z" fill="#e6f0fc"/><path d="M468.074,44.684l27.9-26.041H599.576l27.895,26.041v96.163h-159.4V44.684" fill="#f7f5eb"/><path d="M293.7,79.293l-4.645-6.655-13.831,1.241,7.627,38.607,4.69-32.692" fill="#f7f5eb"/><path d="M333.043,103.28l49.334-10.238-28.731-3.519Z" fill="#f7f5eb"/><path d="M290.76,111.418l14.4-2.544,3.375-10.757-5.483,1.04Z" fill="#f7f5eb"/><path d="M300.22,158.591l2.372,2.761-2.372,2.761-2.372-2.761Zm2.371-12.659-2.371-2.767-2.372,2.767,2.372,2.761Zm-4.743-29.9,2.372,2.76,2.372-2.76-2.372-2.763Zm0,15.424,2.372,2.763,2.372-2.763L300.22,128.7Zm0,76.172,2.372,2.762,2.372-2.762-2.372-2.761Zm0-15.425,2.372,2.762,2.372-2.762-2.372-2.761Zm26.515,0,2.372,2.762,2.372-2.762-2.372-2.761Zm-53.03-46.276,2.371,2.76,2.378-2.76-2.378-2.763Zm39.773-14.471,2.372,2.763,2.376-2.763-2.376-2.761Zm2.857-15.388-2.687-.235-.17.2,2.372,2.76,2.376-2.76-.671-.781Zm-2.857,29.859,2.372,2.76,2.376-2.76-2.376-2.763Zm66.285-14.471,2.372,2.763,2.376-2.763-2.376-2.76Zm-79.543,91.6,2.372,2.762,2.372-2.762L300.22,220.3Zm13.258-46.279,2.372,2.759,2.376-2.762-2.376-2.758Zm-13.258,0,2.372,2.761,2.372-2.761-2.372-2.761Zm-13.256,77.129,2.372,2.761,2.372-2.761-2.372-2.763ZM271.333,85.178l2.371,2.76,2.378-2.76L273.7,82.415Zm13.259,153.3,2.372,2.763,2.372-2.763-2.372-2.76Zm13.256,0,2.372,2.763,2.372-2.763-2.372-2.76Zm-13.256-15.422,2.372,2.762,2.372-2.762-2.372-2.761Zm-13.259-91.6,2.371,2.763,2.378-2.763L273.7,128.7Zm0-15.424,2.371,2.76,2.378-2.76L273.7,113.27Zm0-15.427,2.371,2.762,2.378-2.762L273.7,97.845Zm13.259,45.322,2.372,2.76,2.375-2.756-2.375-2.767Zm13.256,107.979,2.372,2.761,2.372-2.761-2.372-2.763Zm-13.256-92.555,2.372,2.761,2.372-2.761-2.372-2.761Zm0,46.277,2.372,2.762,2.372-2.762-2.372-2.761Zm0-15.425,2.372,2.762,2.372-2.762-2.372-2.761Zm0-15.426,2.372,2.761,2.372-2.761-2.372-2.761ZM311.106,192.2l2.372,2.762,2.376-2.762-2.376-2.761Zm39.765-60.747,2.378,2.763,2.372-2.763-2.372-2.761Zm13.262,45.318,2.373,2.762,2.372-2.762-2.372-2.761Zm0-30.847,2.373,2.76,2.372-2.76-2.372-2.763Zm0-14.471,2.373,2.763,2.372-2.763-2.372-2.76Zm0,60.747,2.373,2.762,2.372-2.762-2.372-2.761Zm-13.262-76.171,2.378,2.76,2.372-2.76-2.372-2.763Zm1.076-16.676-1.076,1.249,2.378,2.762,2.372-2.762L354.154,98.9Zm12.186,62,2.373,2.761,2.372-2.761-2.372-2.761Zm13.258,0,2.372,2.761,2.376-2.761-2.376-2.761Zm0-15.424,2.372,2.76,2.376-2.76-2.376-2.763Zm-13.258-29.895,2.373,2.761,2.372-2.761-2.372-2.763Zm13.258,60.742,2.372,2.762,2.376-2.762-2.376-2.761Zm-13.258-76.168,2.373,2.761,2.372-2.761-2.372-2.762Zm13.258,91.6,2.372,2.762,2.376-2.762-2.376-2.761Zm-53.028-30.852,2.372,2.761,2.372-2.761-2.372-2.761ZM337.619,192.2l2.372,2.762,2.372-2.762-2.372-2.761Zm-13.256-76.171,2.372,2.76,2.372-2.76-2.372-2.763Zm18,29.9-2.37-2.767-2.374,2.767,2.372,2.761Zm-18,30.846,2.372,2.761,2.372-2.761-2.372-2.761Zm13.256,0,2.372,2.761,2.372-2.761-2.372-2.761Zm-13.256-30.85,2.372,2.76,2.372-2.76-2.372-2.763Zm0-14.471,2.372,2.763,2.372-2.763-2.372-2.761Zm26.508,29.9,2.378,2.761,2.372-2.761-2.372-2.761Zm0,15.426,2.378,2.761,2.372-2.761-2.372-2.761Zm0-30.85,2.378,2.76,2.372-2.76-2.372-2.763Zm-13.252,15.424,2.372,2.761,2.372-2.761-2.372-2.761ZM350.871,192.2l2.378,2.762,2.372-2.762-2.372-2.761Zm-13.252-76.171,2.372,2.76,2.372-2.76-2.372-2.763Zm0,15.424,2.372,2.763,2.372-2.763-2.372-2.761Zm-26.513,29.9,2.372,2.761,2.376-2.761-2.376-2.761Zm18-106.7-2.372-2.761-2.372,2.761,2.372,2.761Zm0,15.1L326.735,67l-2.372,2.762,2.372,2.761Zm-13.253-15.1-2.376-2.761-2.372,2.761,2.372,2.761Zm12.558,31.333.7-.809-2.372-2.763-2.372,2.763.681.793Zm13.951-31.333-2.372-2.761-2.372,2.761,2.372,2.761Zm-.747,31.393.747-.869-2.372-2.763-2.372,2.763.733.854Zm.747-16.29L339.991,67l-2.372,2.762,2.372,2.761Zm-26.513,0L313.477,67l-2.372,2.762,2.372,2.761Zm-26.514,0L286.964,67l-2.372,2.762,2.372,2.761Zm-13.254-15.1L273.7,51.893l-2.371,2.761,2.371,2.761Zm13.254,0-2.372-2.761-2.372,2.761,2.372,2.761Zm13.256,15.1L300.22,67l-2.372,2.762,2.372,2.761Zm0-15.1-2.372-2.761-2.372,2.761,2.372,2.761ZM354,87.059l1.617-1.881-2.372-2.763-2.378,2.763,1.285,1.491Zm14.874-17.3L366.506,67l-2.373,2.762,2.373,2.761Zm-84.286,61.7,2.372,2.763,2.372-2.763-2.372-2.761Zm31.262-46.279-2.376-2.763-2.372,2.763.63.733,3.473.016Zm-28.89,28.092-2.372,2.763,2.372,2.76,2.372-2.76Zm267.418,32.658-2.376-2.763-2.372,2.763,2.372,2.76ZM382.139,54.654l-2.376-2.761-2.372,2.761,2.372,2.761Zm172.243,106.7-2.376-2.761-2.372,2.761,2.372,2.761Zm0,61.7-2.376-2.761-2.372,2.761,2.372,2.762Zm-278.3-153.3L273.7,67l-2.371,2.762,2.371,2.761Zm74.8,0,2.374,2.761,2.371-2.761L353.25,67Zm18,15.425-2.372-2.762-2.373,2.762,2.373,2.761ZM355.621,54.654l-2.372-2.761-2.378,2.761,2.378,2.761Zm26.516,15.1L379.763,67l-2.372,2.762,2.372,2.761Zm-13.259-15.1-2.372-2.761-2.373,2.761,2.373,2.761Zm13.261,30.528-2.376-2.762-2.372,2.762,2.372,2.761ZM231.559,253.907l2.372,2.761,2.372-2.761-2.372-2.763ZM258.077,85.178l2.372,2.76,2.372-2.76-2.372-2.763Zm0-15.421,2.372,2.761,2.372-2.761L260.449,67Zm13.256,91.6,2.371,2.761,2.378-2.761-2.378-2.761Zm-13.256-106.7,2.372,2.761,2.372-2.761-2.372-2.761Zm0,91.274,2.372,2.76,2.372-2.76-2.372-2.763Zm0,15.424,2.372,2.761,2.372-2.761-2.372-2.761Zm0-29.9,2.372,2.763,2.372-2.763-2.372-2.761Zm0-15.424,2.372,2.76,2.372-2.76-2.372-2.763ZM271.333,192.2l2.371,2.762,2.378-2.762-2.378-2.761Zm0,15.425,2.371,2.762,2.378-2.762-2.378-2.761Zm0-30.851,2.371,2.761,2.378-2.761-2.378-2.761Zm0,77.129,2.371,2.761,2.375-2.761-2.375-2.763Zm0-15.428,2.371,2.763,2.378-2.763-2.378-2.76Zm0-15.422,2.371,2.762,2.378-2.762L273.7,220.3ZM258.077,100.606l2.372,2.762,2.372-2.762-2.372-2.761Zm-13.258,153.3,2.374,2.761,2.372-2.761-2.372-2.763ZM231.562,54.654l2.372,2.761,2.372-2.761-2.372-2.761Zm13.255,183.825,2.376,2.763,2.372-2.763-2.372-2.76Zm0-168.722,2.374,2.761,2.372-2.761L247.193,67Zm13.258,107.021,2.372,2.761,2.372-2.761-2.372-2.761Zm-26.515,61.7,2.372,2.763,2.372-2.763-2.372-2.76Zm0-168.722,2.372,2.761,2.372-2.761L233.934,67Zm13.255-15.1,2.376,2.761,2.372-2.761-2.372-2.761Zm13.26,168.4,2.372,2.762,2.372-2.762-2.372-2.761Zm0-30.853,2.372,2.762,2.372-2.762-2.372-2.761Zm0,15.425,2.372,2.762,2.372-2.762-2.372-2.761Zm0,46.278,2.372,2.761,2.372-2.761-2.372-2.763Zm0-15.428,2.372,2.763,2.372-2.763-2.372-2.76Zm278.3-77.127,2.372,2.761,2.372-2.761-2.372-2.761ZM470.1,176.778l2.372,2.761,2.372-2.761-2.372-2.761Zm0-15.426,2.372,2.761,2.372-2.761-2.372-2.761Zm0,30.852,2.372,2.762,2.372-2.762-2.372-2.761Zm0-46.276,2.372,2.76,2.372-2.76-2.372-2.763Zm0,92.551,2.372,2.763,2.372-2.763-2.372-2.76Zm0-15.422,2.372,2.762,2.372-2.762-2.372-2.761Zm0-15.428,2.372,2.762,2.372-2.762-2.372-2.761Zm13.257,0,2.372,2.762,2.375-2.762-2.375-2.761Zm0-15.425,2.372,2.762L488.1,192.2l-2.375-2.761Zm0-15.426,2.372,2.761,2.375-2.761-2.375-2.761ZM470.1,253.907l2.372,2.761,2.372-2.761-2.372-2.763Zm13.257-30.85,2.372,2.762,2.375-2.762-2.375-2.761Zm0,30.85,2.372,2.761,2.374-2.761-2.374-2.763Zm0-15.428,2.372,2.763,2.375-2.763-2.375-2.76ZM456.84,192.2l2.375,2.762,2.373-2.762-2.373-2.761Zm0,15.425,2.375,2.762,2.373-2.762-2.373-2.761Zm0-30.851,2.375,2.759,2.373-2.762-2.373-2.758Zm26.513-15.426,2.372,2.761,2.375-2.761-2.375-2.761Zm-26.513,61.7,2.375,2.762,2.373-2.762-2.373-2.761Zm0,30.85,2.374,2.761,2.372-2.761-2.372-2.763Zm4.746-184.15L459.212,67l-2.374,2.762,2.374,2.761Zm-4.744-15.1,2.375,2.761,2.373-2.761-2.373-2.761Zm0,183.825,2.375,2.763,2.373-2.763-2.373-2.76Zm0-137.873,2.375,2.762,2.373-2.761-2.373-2.762Zm0-15.428,2.375,2.76,2.373-2.76-2.373-2.763Zm0,76.174,2.375,2.761,2.373-2.761-2.373-2.761Zm0-45.319,2.375,2.76,2.373-2.76-2.373-2.763Zm0,29.895,2.375,2.76,2.373-2.76-2.373-2.763Zm0-14.471,2.375,2.763,2.373-2.763-2.373-2.761Zm53.028,122.45,2.372,2.761,2.372-2.761-2.372-2.763Zm13.253-92.555,2.377,2.761,2.372-2.761-2.372-2.761Zm0,61.7,2.377,2.762,2.372-2.762-2.372-2.761Zm0-46.28,2.377,2.762,2.372-2.762-2.372-2.761Zm0,61.7,2.377,2.763,2.372-2.763-2.372-2.76Zm0,15.428,2.373,2.761,2.373-2.761-2.373-2.763ZM509.868,145.928l2.372,2.76,2.372-2.76-2.372-2.763Zm18,0-2.372-2.762-2.376,2.762,2.38,2.756Zm8.516,107.975,2.372,2.761,2.372-2.761-2.372-2.763Zm-26.514-92.555,2.372,2.761,2.372-2.761-2.372-2.761Zm42.142,89.792-2.372,2.763,2.372,2.761,2.374-2.761ZM536.382,145.928l2.372,2.76,2.372-2.76-2.372-2.763Zm18,92.551-2.376-2.76-2.372,2.76,2.372,2.763Zm-18,0,2.372,2.763,2.372-2.763-2.372-2.76Zm0-15.422,2.372,2.762,2.372-2.762-2.372-2.761ZM509.868,192.2l2.372,2.762,2.372-2.762-2.372-2.761Zm-13.257,15.425,2.372,2.762,2.372-2.762-2.372-2.761Zm0-15.425,2.372,2.762,2.372-2.762-2.372-2.761Zm0-15.426,2.372,2.761,2.372-2.761-2.372-2.761Zm0-15.426,2.372,2.761,2.372-2.761-2.372-2.761Zm0,92.555,2.372,2.761,2.372-2.761-2.372-2.763Zm0-30.85,2.372,2.762,2.372-2.762-2.372-2.761Zm13.257-46.279,2.372,2.761,2.372-2.761-2.372-2.761Zm-13.257,61.7,2.372,2.763,2.372-2.763-2.372-2.76Zm13.257-15.422,2.372,2.762,2.372-2.762L512.24,220.3Zm0-15.428,2.372,2.762,2.372-2.762-2.372-2.761Zm-26.511-61.7,2.372,2.761,2.376-2.761-2.38-2.767Zm26.511,92.547,2.372,2.763,2.372-2.763-2.372-2.76Zm-13.257-92.551,2.372,2.76,2.372-2.76-2.372-2.763ZM443.582,54.654l2.372,2.761,2.372-2.761-2.372-2.761Zm0,183.825,2.372,2.763,2.372-2.763-2.372-2.76ZM417.067,192.2l2.372,2.762,2.376-2.762-2.376-2.761ZM403.809,54.654l2.373,2.761,2.372-2.761-2.372-2.761Zm0,30.524,2.373,2.76,2.372-2.76-2.372-2.763Zm0-15.421,2.373,2.761,2.372-2.761L406.182,67Zm0,61.7,2.373,2.763,2.372-2.763-2.372-2.761Zm0-15.424,2.373,2.76,2.372-2.76-2.372-2.763Zm0-15.427,2.373,2.762,2.372-2.762-2.372-2.761Zm13.258,76.172,2.372,2.761,2.376-2.761-2.376-2.761Zm0-60.745,2.372,2.76,2.376-2.76-2.376-2.763Zm0,15.424,2.372,2.763,2.376-2.763-2.376-2.761Zm0-30.851,2.372,2.762,2.376-2.762-2.376-2.761Zm0,45.322,2.372,2.76,2.376-2.76-2.376-2.763Zm26.515-76.171,2.372,2.761,2.372-2.761L445.954,67Zm-39.773,76.171,2.373,2.76,2.372-2.76-2.372-2.763ZM390.554,54.654l2.372,2.761,2.372-2.761-2.372-2.761Zm13.255,106.7,2.373,2.761,2.372-2.761-2.372-2.761Zm-13.255-29.9,2.372,2.763,2.372-2.763-2.372-2.76Zm0,29.9,2.372,2.761,2.372-2.761-2.372-2.761Zm0-15.424,2.372,2.76,2.372-2.76-2.372-2.763Zm-13.163-45.321,2.372,2.761,2.376-2.761-2.376-2.762Zm13.163,91.6,2.372,2.762L395.3,192.2l-2.372-2.761Zm0-15.429,2.372,2.762,2.372-2.762-2.372-2.761Zm0-60.742,2.372,2.761,2.372-2.761-2.372-2.763ZM403.809,192.2l2.373,2.762,2.372-2.762-2.372-2.761Zm-13.255-91.6,2.372,2.761,2.372-2.761-2.372-2.762Zm26.513-15.429,2.372,2.76,2.376-2.76-2.376-2.763Zm-13.258,91.6,2.373,2.761,2.372-2.761-2.372-2.761Zm-13.255-91.6,2.372,2.761,2.372-2.761-2.372-2.762Zm0-15.425,2.372,2.761,2.372-2.761L392.926,67Zm26.513,91.6,2.372,2.761,2.376-2.761-2.376-2.761Zm26.515,46.277,2.372,2.762,2.372-2.762-2.372-2.761Zm0,15.428,2.372,2.762,2.372-2.762-2.372-2.761Zm0-30.853,2.372,2.762,2.372-2.762-2.372-2.761Zm-66.191-76.171,2.372,2.761,2.376-2.761-2.376-2.763Zm52.934-61.379,2.372,2.761,2.372-2.761L432.7,51.893Zm13.257,199.253,2.372,2.761,2.372-2.761-2.372-2.763Zm0-77.129,2.372,2.761,2.372-2.761-2.372-2.761Zm0-15.426,2.372,2.761,2.372-2.761-2.372-2.761Zm0-60.746,2.372,2.762,2.372-2.762-2.372-2.761Zm0,15.427,2.372,2.76,2.372-2.76-2.372-2.763Zm0-30.855,2.372,2.76,2.372-2.76-2.372-2.763Zm0,60.75,2.372,2.76,2.372-2.76-2.372-2.763Zm0-14.471,2.372,2.763,2.372-2.763-2.372-2.761Zm-13.257-61.7,2.372,2.761,2.372-2.761L432.7,67Zm0,184.15,2.372,2.761,2.372-2.761-2.372-2.763Zm0-30.85,2.372,2.762,2.372-2.762L432.7,220.3Zm0-30.853,2.372,2.762,2.372-2.762-2.372-2.761Zm0,46.275,2.372,2.763,2.372-2.763-2.372-2.76Zm0-153.3,2.372,2.76,2.372-2.76L432.7,82.415Zm-8.512-15.421L419.439,67l-2.372,2.762,2.372,2.761Zm-4.746-15.1,2.372,2.761,2.376-2.761-2.376-2.761Zm13.258,152.975,2.372,2.762,2.372-2.762-2.372-2.761Zm0-76.172,2.372,2.763,2.372-2.763L432.7,128.7Zm0-15.424,2.372,2.76,2.372-2.76L432.7,113.27Zm0-15.427,2.372,2.762,2.372-2.762L432.7,97.845Zm0,76.172,2.372,2.761,2.372-2.761-2.372-2.761Zm0-15.426,2.372,2.761,2.372-2.761-2.372-2.761Zm0-15.424,2.372,2.76,2.372-2.76-2.372-2.763Z" fill="#f2e2d3"/><path d="M250.4,83.7a2.566,2.566,0,0,0-1.279-2.22L128.937,11.952a2.55,2.55,0,0,0-2.558,0L91.2,32.3A63.978,63.978,0,0,0,7.629,80.653L6.2,81.48A2.566,2.566,0,0,0,4.918,83.7l0,139.057a2.563,2.563,0,0,0,1.279,2.22l120.179,69.529a2.55,2.55,0,0,0,2.558,0l120.177-69.526a2.562,2.562,0,0,0,1.282-2.219ZM94.52,79.253a7,7,0,1,1-7,7A7,7,0,0,1,94.52,79.253Zm-52.532,7a7,7,0,1,1,7.005,7A7,7,0,0,1,41.988,86.257Zm84.9,113.12-13.122,18.371H61.271L48.149,204.626V162.634l5.249-5.249h5.249l5.249,5.249V114.081l2.477-2.477a7,7,0,1,1,10.779-.013l2.49,2.49V142.95h10.5l5.249,5.249h10.5l5.249,5.249h10.5l5.249,5.249Z" fill="#f7f5eb"/><path d="M461.144,94.136h-12a1,1,0,0,1,0-2h12a1,1,0,0,1,0,2Zm-24,0h-12a1,1,0,0,1,0-2h12a1,1,0,0,1,0,2Zm-24,0h-12a1,1,0,0,1,0-2h12a1,1,0,0,1,0,2Z" fill="#232639"/><path d="M537.433,245.655h-12a1,1,0,0,1,0-2h12a1,1,0,0,1,0,2Zm-24,0h-12a1,1,0,0,1,0-2h12a1,1,0,0,1,0,2Zm-24,0h-12a1,1,0,0,1,0-2h12a1,1,0,0,1,0,2Zm-24,0h-12a1,1,0,0,1,0-2h12a1,1,0,0,1,0,2Zm81.87-2.15h-.009a1,1,0,0,1-.991-1.008l.11-12a.96.96,0,0,1,1.008-.991,1,1,0,0,1,.992,1.009l-.11,12A1,1,0,0,1,547.3,243.505Z" fill="#232639"/><path d="M57,86.257a8.011,8.011,0,0,0-7-7.934V65.245a1,1,0,0,0-2,0V78.323a8,8,0,0,0-.049,15.861v28.778a1,1,0,0,0,2,0V94.2A8.011,8.011,0,0,0,57,86.257Zm-8,6a6,6,0,1,1,6-6A6.01,6.01,0,0,1,48.993,92.261Z" fill="#232639"/><path d="M102.524,86.257a8.011,8.011,0,0,0-7-7.934V65.245a1,1,0,0,0-2,0V78.323a8,8,0,0,0-.049,15.861v28.778a1,1,0,0,0,2,0V94.2A8.011,8.011,0,0,0,102.524,86.257Zm-8,6a6,6,0,1,1,6-6A6.01,6.01,0,0,1,94.52,92.261Z" fill="#232639"/><path d="M601.568,54.7a6.01,6.01,0,1,1-5.976,6.042V60.71a5.993,5.993,0,0,1,5.976-6.01h0" fill="#232639"/><path d="M601.568,86.754a6.01,6.01,0,1,1-5.976,6.042v-.032a5.993,5.993,0,0,1,5.976-6.01h0" fill="#232639"/><path d="M601.568,118.807a6.01,6.01,0,1,1-5.976,6.043v-.032a5.994,5.994,0,0,1,5.976-6.011h0" fill="#232639"/><path d="M491.984,67.72a1,1,0,0,1-1-1V54.7a1,1,0,1,1,2,0V66.72A1,1,0,0,1,491.984,67.72Zm22.917-1V54.7a1,1,0,0,0-2,0V66.72a1,1,0,1,0,2,0Zm21.916,0V54.7a1,1,0,0,0-2,0V66.72a1,1,0,1,0,2,0ZM492.984,98.773V86.752a1,1,0,0,0-2,0V98.773a1,1,0,0,0,2,0Zm21.917,0V86.752a1,1,0,1,0-2,0V98.773a1,1,0,1,0,2,0Zm0,32.055V118.807a1,1,0,0,0-2,0v12.021a1,1,0,0,0,2,0Zm21.916-32.055V86.752a1,1,0,1,0-2,0V98.773a1,1,0,1,0,2,0Zm-43.833,32.055V118.807a1,1,0,1,0-2,0v12.021a1,1,0,1,0,2,0Zm43.833,0V118.807a1,1,0,0,0-2,0v12.021a1,1,0,0,0,2,0Z" fill="#232639"/><path d="M307.4,203.478a1.538,1.538,0,1,1-1.528,1.547v-.009a1.534,1.534,0,0,1,1.528-1.538" fill="#232639"/><path d="M312.069,203.478a1.538,1.538,0,1,1-1.528,1.547v-.009a1.533,1.533,0,0,1,1.528-1.538" fill="#232639"/><path d="M316.735,203.478a1.538,1.538,0,1,1-1.528,1.547v-.009a1.533,1.533,0,0,1,1.528-1.538" fill="#232639"/><rect x="303.074" y="220.957" width="126.359" height="25.92" fill="#f7f5eb"/><rect x="318.53" y="255.988" width="25.138" height="14.767" fill="#f7f5eb"/><path d="M343.667,271.755H318.53a1,1,0,0,1-1-1V255.988a1,1,0,0,1,1-1h25.137a1,1,0,0,1,1,1v14.767A1,1,0,0,1,343.667,271.755Zm-24.137-2h23.137V256.988H319.53Z" fill="#232639"/><rect x="352.872" y="255.988" width="25.138" height="14.767" fill="#f7f5eb"/><path d="M378.009,271.755H352.871a1,1,0,0,1-1-1V255.988a1,1,0,0,1,1-1h25.138a1,1,0,0,1,1,1v14.767A1,1,0,0,1,378.009,271.755Zm-24.138-2h23.138V256.988H353.871Z" fill="#232639"/><rect x="387.213" y="255.988" width="25.138" height="14.767" fill="#f7f5eb"/><path d="M412.351,271.755H387.212a1,1,0,0,1-1-1V255.988a1,1,0,0,1,1-1h25.139a1,1,0,0,1,1,1v14.767A1,1,0,0,1,412.351,271.755Zm-24.139-2h23.139V256.988H388.212Z" fill="#232639"/><path d="M270.536,88.956l7.848.942-.741-3.753-4.829-.038Z" fill="#f7f5eb"/><path d="M270.537,106.79H233.649a1,1,0,0,1,0-2h36.888a1,1,0,0,1,0,2Z" fill="#232639"/><path d="M227,83.683h-27.49a1,1,0,0,1,0-2H227a1,1,0,0,1,0,2Z" fill="#232639"/><path d="M122.341,152.742a1,1,0,0,0-.707-.293H111.55l-4.956-4.956a.986.986,0,0,0-.641-.28,64.961,64.961,0,1,0-48.987,9.172H53.4a1,1,0,0,0-.707.293l-5.249,5.249a1,1,0,0,0-.293.707v41.991a1,1,0,0,0,.293.707l13.122,13.124a1,1,0,0,0,.707.292h52.49a1,1,0,0,0,.814-.418L127.7,199.957a1,1,0,0,0,.186-.581V158.7a1,1,0,0,0-.293-.707ZM7.458,92.824A62.985,62.985,0,1,1,102.2,147.2H95.8l-4.956-4.956a1,1,0,0,0-.707-.293h-9.5v-27.87a1,1,0,0,0-.293-.707l-1.894-1.893a7.978,7.978,0,0,0-5.7-12.291V65.244a1,1,0,0,0-2,0V99.19a8.012,8.012,0,0,0-7,7.935,7.928,7.928,0,0,0,1.316,4.371l-1.879,1.878a1,1,0,0,0-.293.707V155.34A63.066,63.066,0,0,1,7.458,92.824Zm70.3,14.3a5.944,5.944,0,0,1-.756,2.9l-1.9-1.9a1,1,0,0,0-.707-.293H69.145a1,1,0,0,0-.707.293l-1.921,1.921a6,6,0,1,1,11.243-2.921ZM62.9,157.354v2.866l-3.345-3.345Q61.21,157.156,62.9,157.354Zm62.987,41.7-12.637,17.692H61.685L49.149,204.211V163.048l4.663-4.663h4.421l4.663,4.663v23.206a1,1,0,0,0,2,0V114.5l4.663-4.664h4.42l4.663,4.664v48.138a1,1,0,0,0,2,0V143.951h9.084l4.663,4.663v12.708a1,1,0,0,0,2,0V149.2h9.084l4.663,4.663v14.02a1,1,0,0,0,2,0V154.449h9.084l4.663,4.663Z" fill="#232639"/><path d="M161.144,94.139a1,1,0,0,1,0-2h12a1,1,0,0,1,0,2Zm-12,0h-12a1,1,0,0,1,0-2h12a1,1,0,0,1,0,2Zm108,0a1,1,0,0,1,0-2h12a1,1,0,0,1,0,2Zm-12,0h-12a1,1,0,0,1,0-2h12a1,1,0,0,1,0,2Zm-24,0h-12a1,1,0,0,1,0-2h12a1,1,0,0,1,0,2Zm-24,0h-12a1,1,0,0,1,0-2h12a1,1,0,0,1,0,2Z" fill="#232639"/><path d="M389.144,92.136h-6.39c-.02-.007-.038-.018-.059-.025a.885.885,0,0,0-.114-.048l-33-6.96a.984.984,0,0,0-.2-.022l-45.568-.206-1.913-6.456a1,1,0,0,0-1.04-.713l-6.668.543-2.812-4.028-1.5-2.157a1,1,0,0,0-.911-.424l-13.83,1.241a1,1,0,0,0-.891,1.19v0l2.185,11.062-3.6-.028a.983.983,0,0,0-.789.375l-2.279,2.849a1,1,0,0,0,.662,1.618l7.127.856,4.322,21.874a.25.25,0,0,0,.015.038,1,1,0,0,0,.1.253c.008.014.014.03.022.044a1.009,1.009,0,0,0,.171.21c.007.007.017.009.024.015.025.021.053.036.08.055s.019.023.031.031a1.027,1.027,0,0,0,.107.048.868.868,0,0,0,.084.048c.014,0,.03.006.044.011a.977.977,0,0,0,.245.043c.015,0,.029.008.044.008l.016,0h.027c.013,0,.025-.007.037-.008a.856.856,0,0,0,.167-.02l6.787-1.609c0,.01,0,.021.01.03a1,1,0,0,0,.887.539.93.93,0,0,0,.174-.015l12.78-2.259-1.47,4.684a1,1,0,0,0,.867,1.3l10.764.942a.857.857,0,0,0,.087,0,1,1,0,0,0,.556-.169l18.973-12.692,48.538-10.072h7.115a1,1,0,0,0,0-2Zm-39.88-5.055,10.156,2.142-.79-.1-4.862-.595h0a1,1,0,0,0-.309.009L307.488,97.3,304.4,86.877Zm-76.825,1.1.852-1.066,3.528.027.317,1.6Zm10.25,18.353-2.76-13.968-.563-2.853v0l-.742-3.754v0l-2.207-11.171,12.146-1.09,1.369,1.962,1.946,2.789-4.423.36a.881.881,0,0,0-.1.027,1.075,1.075,0,0,0-.127.033.964.964,0,0,0-.219.106.89.89,0,0,0-.1.064.953.953,0,0,0-.173.191.885.885,0,0,0-.064.084,1,1,0,0,0-.126.351Zm5.584-24.83.14-.974,11.793-.96,1.893,6.386v0l3.412,11.516-2.644.5a1,1,0,0,0-.52.275l-11.029,11-7.273,1.724Zm15.267,18.381,3.422-.648h.01l.108-.02L304.388,108l-10.67,1.885Zm28.947,2.367a.9.9,0,0,0-.09.085l-18.7,12.508-9.174-.8,4.787-15.252,39.68-7.561Zm20.95-11.582.456-.3,22.282,2.729,0,.017-38.259,7.939Z" fill="#232639"/><path d="M441.433,243.655h-11V200.608a1,1,0,0,0-1-1H303.058a1,1,0,0,0-1,1v77.775h0a1,1,0,0,0,1,1H429.433a1,1,0,0,0,1-1h0V245.655h11a1,1,0,0,0,0-2ZM304.058,201.608H428.433v6.726H304.058Zm0,8.726H428.433v9.622H304.058Zm124.375,67.049H304.058V247.876H428.433Zm0-31.507H304.075v-23.92H428.433Z" fill="#232639"/><path d="M548.962,170.027l.1-11.509a1,1,0,0,0-.991-1.009,1.03,1.03,0,0,0-1.009.991l-.105,11.553c-9.525.277-18.612,2.734-18.612,7.19v7.737a14.151,14.151,0,0,0,0,27.4v1.392c0,4.738,10.277,7.217,20.429,7.217,10.279,0,21.2-2.529,21.2-7.217V177.243C569.983,172.583,559.187,170.057,548.962,170.027Zm-29.213,28.651a12.172,12.172,0,1,1,12.172,12.172A12.185,12.185,0,0,1,519.749,198.678Zm48.234,15.09c0,2.127-7.482,5.217-19.2,5.217-11.866,0-18.429-3.085-18.429-5.217v-1.01a14.316,14.316,0,0,0,1.572.092,14.119,14.119,0,0,0,10.359-4.533c1.9.148,4.045.234,6.5.234,7.6,0,15.583-.932,19.2-3.348Zm0-11.657c0,2.136-7.343,4.44-19.2,4.44-1.779,0-3.439-.057-4.987-.156a14,14,0,0,0,2.05-10.328c.933.029,1.9.05,2.937.05,7.6,0,15.583-.932,19.2-3.348Zm0-12.434c0,2.135-7.343,4.44-19.2,4.44-1.223,0-2.371-.035-3.484-.084a14.087,14.087,0,0,0-14.945-9.434v-4.054c3.477,2.58,10.984,3.914,18.429,3.914,7.618,0,15.587-1.39,19.2-4.018Zm-19.2-7.218c-11.866,0-18.429-3.085-18.429-5.216s6.563-5.217,18.429-5.217c11.723,0,19.2,3.09,19.2,5.217S560.5,182.459,548.778,182.459Z" fill="#232639"/><path d="M536.191,195.3a1,1,0,0,0-1.414,0l-2.4,2.4a1.968,1.968,0,1,0,1.533,1.917,1.964,1.964,0,0,0-.084-.538l2.367-2.368A1,1,0,0,0,536.191,195.3Z" fill="#232639"/><path d="M523.166,197.491h4.385a1,1,0,0,0,0-2h-4.385a1,1,0,0,0,0,2Z" fill="#232639"/><path d="M528.551,202.755a1,1,0,0,0-1-1h-4.385a1,1,0,0,0,0,2h4.385A1,1,0,0,0,528.551,202.755Z" fill="#232639"/><path d="M523.419,199.622a1,1,0,0,0,1,1H528.8a1,1,0,0,0,0-2h-4.385A1,1,0,0,0,523.419,199.622Z" fill="#232639"/><path d="M540.454,199.622a8.47,8.47,0,0,0-1.853-5.287l.231-.23.168.169a1,1,0,0,0,1.414-1.414l-1.674-1.676a1,1,0,0,0-1.414,1.414l.092.093-.236.235a8.466,8.466,0,0,0-4.246-1.757v-.57h.88a1,1,0,0,0,0-2h-3.759a1,1,0,0,0,0,2h.879v.573a8.49,8.49,0,0,0-4.621,2.063,1,1,0,1,0,1.322,1.5,6.518,6.518,0,1,1,0,9.775,1,1,0,1,0-1.322,1.5,8.508,8.508,0,0,0,14.139-6.388Z" fill="#232639"/><path d="M628.433,44.5a.982.982,0,0,0-.044-.213c-.007-.015-.02-.025-.027-.04a1,1,0,0,0-.2-.286l-.006-.009L600.259,17.912a1,1,0,0,0-.682-.269H495.97a1,1,0,0,0-.682.269l-27.9,26.041,0,.007a.989.989,0,0,0-.313.721v96.166a1,1,0,0,0,1,1h79.142l-.042,4.653a1,1,0,0,0,.991,1.009h.009a1,1,0,0,0,1-.991l.043-4.671h78.253a1,1,0,0,0,1-1V44.684A.944.944,0,0,0,628.433,44.5ZM496.365,19.643H599.182L624.93,43.68H470.615Zm130.106,120.2h-157.4v-30.06h157.4Zm0-32.061h-157.4V77.736h157.4Zm0-32.051h-157.4V45.681h157.4Z" fill="#232639"/></svg>