<svg xmlns="http://www.w3.org/2000/svg" viewBox="0 0 700 700"><path d="M211.464,286.625l7.723,7.757,8.513.18,1.082,8.118,7.4,1.624-.541,10.192,5.953,3.7-2.164,9.583,7.4,4.954-3.067,9.358,6.675,7.719L244.3,361.35l-7.4-.981-2.706,6.9-15.875,2.566v-7.547l-10.823-7.14,5.051-16.213-4.871-4.453,5.773-12.136-6.673-12.635-6.379,3.435-5.864-11.365-10.321,11.906-8.595-1.443,3.232,36.071,9.4-.439-1.81,12.5-23.856,6.9-6.023-3.628,3.678-9.726-9.922-4.1,4.871-9.095-6.675-4.667,5.346-7.93-4.444-7.216,7.146-6.4-.832-10.553,9.034-2.165,1.056-9.38,9.8.9,10.817-7.577,10.645,3.788Zm333.4,151.816-29.181-13.4-25.29,9.231-3.043,26.2,19.162,25.583.254-7.945-5.534-4.62,1.389-7.646,7.544,4.91,2.35-23.514,31.417-4.695,2.877,6.27L554.886,453l-2.241,7.324,6.392-8.267-10-5.922ZM490.89,465.2l-8.1,4.7,2.684-7.829-4.526-22.885,7.633-15.748,16.305-2.038,7.633,4.8-22.122,8.074-3.043,26.2ZM283.576,406.175l.785,24.744,22.473,22.89h12.321l20.386-22.89,1.569-24.744-9.257-13.824H294.362Z" fill="#e0b086"/><path d="M534.72,506.482l10.368,5.467-16,28.038-32.154-28.038,8-5.467,1.829-28.37-5.534-4.62,1.389-7.646,7.544,4.91,2.35-23.514,31.417-4.695,2.877,46.15-15.17,1.478Zm-84.483-35.27-1.445-50.595-4.337-6.072-1.445,5.493-16.48,2.024-14.456-4.626-6.553,14.308,5,1.955-.006,16.713-7.689-7.642-3.469,6.461,5.382,5.968.786,8.063-6.168,23.081,8.095,5.4,27.177,2.023,5.59-4.722v-16.76ZM334.153,449.885l6.957-16.963-2-4.508-4.625,8.716V407.377l-4.808-6.311h-34.26l-5.009,6.311V437.13l-4.308-8.716-2.521,4.508,6.893,16.963.537,7.881L288.5,477.4l21.938,8.114,27.047-9.917-4.207-17.831Z" fill="#f6e8d5"/><path d="M118.1,455.954l1.4,25.591-30.855,5.6-11.23-10.3,6.522-22.254,7.914,3.125L63.8,446.638l15.227-40.872,20.235-5.109,9.953,3.006,4.26,15.827,4.42,2.9-.6,13.773,8.114,3.71-13.129,9.2.206,16.812ZM40.359,697.879l2.4-28.314H34.148L33.13,582.226H16.918v29.21l-2.7,13.715,6.311,72.728Z" fill="#f6e8d5"/><path d="M625.463,492.411a15.877,15.877,0,0,1-12.953,11.726,15.887,15.887,0,0,0-8.288-30.467,15.891,15.891,0,0,1,21.241,18.741Zm-19.352,11.406a15.888,15.888,0,0,1-1.889-30.147,15.885,15.885,0,1,0,8.288,30.467A15.721,15.721,0,0,1,606.111,503.817Zm11.744,2.366-8.219,1.72,7.586,36.246,8.219-1.72Z" fill="#6767f7"/><path d="M642.347,433.014l-3.482,5.867-6.4,5.246-8.88.712L622.55,455.37l-35.85-7.7,1.509-6.3,5.889-10.448-4.7-5.746,3.935-6.411,4.755,5.319,5.889-7.409-1.71-7.788,9.688-6.268,9.688,3.229s5.128-4.559,5.888-3.989S637.6,407.18,637.6,407.18l3.8-3.229Zm16.783,104.2-18.35-24.063-24.457-6.05-7.846,6.05,4.759,24.633,10.466.6,9.878,9.854s5.728.844,7.2,1.226Z" fill="#d3c7bc"/><path d="M260.89,373.351l-14.09-4.57-4.13,32.39-79.19.029H267.57Zm-41.7-3.661-.87.141v-7.55L207.5,355.14l5.05-16.21-6.84,8.131-17.47.809-1.81,12.5-6.44,2.04,20.2,23.48ZM151.61,371.4l-8.44,29.8h20.31l-2.46-32.779Zm61.84-49.06-6.67-12.631-6.38,3.43-5.87-11.359s-9.25,11.72-10.32,11.9-8.59-1.439-8.59-1.439l3.23,36.07,9.39-.441,17.47-.809,6.84-8.131-4.87-4.449Z" fill="#f6e8d5"/><path d="M619.552,414.969l-7.123.38-5.794,3.419,3.609-5.509,9.973-1.33,2.754,1.9v2.659Zm13.3,1.519,3.8-1.614,3.514.475,1.645,1.139v-2.659l-1.835-1.33-4.084-.57-2.943,1.659Z" fill="#474340"/><path d="M644.94,669.94l-6.15-28.349H565.53l-2.13,16.77-18.57-.8-1.108,40.3h53.71l.778-10.55,4.055,10.55,48.86.64Zm-34.3-195.949a12.186,12.186,0,0,0-15.93,10.469,14.386,14.386,0,1,0,15.93-10.469Zm5.87-337.17a49.474,49.474,0,0,0-46.3,66.819h51.95v31.741a49.442,49.442,0,0,0-5.65-98.56ZM260.89,373.351l-10.86-3.52,1.56-2.651-13.79-4.369L220.84,401.2h47.59Zm-87.94-11.84-13.79,4.37,1.26,2.73-8.81,2.79-8.44,29.8,41.04-.369Z" fill="#dfecfc"/><path d="M599.02,252.831a.157.157,0,0,0,.09-.141v-1.409a.157.157,0,0,0-.22-.15l-5.51,2.6a.15.15,0,0,0-.09.139v1.441a.165.165,0,0,0,.09.149l5.51,2.591a.156.156,0,0,0,.22-.141v-1.429a.15.15,0,0,0-.09-.14l-3.45-1.631a.161.161,0,0,1,0-.289Zm7.92-2.93-4.89,10.67a.158.158,0,0,1-.14.089h-1.35a.155.155,0,0,1-.14-.22l4.88-10.669a.149.149,0,0,1,.14-.1h1.36A.161.161,0,0,1,606.94,249.9Zm7.12,3.969v1.441a.165.165,0,0,1-.09.149l-5.51,2.591a.156.156,0,0,1-.22-.141v-1.429a.15.15,0,0,1,.09-.14l3.45-1.631a.161.161,0,0,0,0-.289l-3.45-1.59a.157.157,0,0,1-.09-.141v-1.409a.157.157,0,0,1,.22-.15l5.51,2.6A.15.15,0,0,1,614.06,253.87Zm-74.88-37.25a.162.162,0,0,0,0,.29l3.45,1.631a.186.186,0,0,1,.09.149v1.421a.152.152,0,0,1-.22.14l-5.51-2.591a.148.148,0,0,1-.09-.139v-1.45a.152.152,0,0,1,.09-.141l5.51-2.589a.152.152,0,0,1,.22.14v1.409a.158.158,0,0,1-.09.141Zm11.37-4.519-4.89,10.67a.142.142,0,0,1-.14.09h-1.35a.156.156,0,0,1-.14-.221l4.88-10.67a.141.141,0,0,1,.14-.089h1.36A.156.156,0,0,1,550.55,212.1Zm7.12,3.97v1.45a.148.148,0,0,1-.09.139l-5.51,2.591a.152.152,0,0,1-.22-.14V218.69a.165.165,0,0,1,.09-.149l3.45-1.631a.162.162,0,0,0,0-.29l-3.45-1.589a.143.143,0,0,1-.09-.141v-1.409a.152.152,0,0,1,.22-.14l5.51,2.589A.152.152,0,0,1,557.67,216.071Z"/><path d="M614.19,241.491v3.469H585.1v-3.469Zm-.559-26.767H598.065V218.2h15.566Z" fill="#d1a3f5"/><path d="M614.189,236.041H594.374v-3.474h19.815ZM585.1,252.861v3.47h6.02v-3.47Z" fill="#98b7ff"/><polygon points="568.53 697.861 565.692 679.066 559.763 673.507 558.227 658.467 478.731 653.081 472.022 672.905 468.438 674.387 464.918 697.861 568.53 697.861" fill="#917a5a"/><rect x="512.267" y="535.095" width="65.643" height="84.286" transform="translate(31.841 -28.487) rotate(3.084)" fill="#98b7ff"/><rect x="508.797" y="552.596" width="85.028" height="65.767" transform="translate(-62.978 1104.497) rotate(-86.916)" fill="#dfecfc"/><rect x="578.161" y="531.587" width="14.729" height="12.783" transform="translate(320.86 -211.83) rotate(27.981)" fill="#d1a3f5"/><rect x="572.163" y="542.876" width="14.729" height="12.783" transform="translate(325.455 -207.696) rotate(27.981)" fill="#eee0fa"/><rect x="564.268" y="541.18" width="14.729" height="12.783" transform="matrix(0.997, -0.076, 0.076, 0.997, -39.741, 44.758)" fill="#98b7ff"/><polygon points="607.732 600.762 607.732 600.762 600.131 583.13 588.383 586.813 574.733 576.972 588.195 575.241 588.851 563.067 581.522 553.418 552.704 561.091 549.956 559.11 536.7 544.919 519.673 533.391 519.559 539.309 530.482 548.337 511.482 537.826 509.098 544.678 511.456 560.244 531.203 569.409 495.469 591.588 494.744 576.242 467.006 580.641 467.006 603.628 463.174 606.812 455.827 656.992 478.433 635.437 491.769 636.156 545.267 580.761 547.707 580.447 588.992 629.101 614.838 629.101 607.732 600.762" fill="#f6e8d5"/><polygon points="211.132 486.728 204.24 465.35 172.841 464.758 159.439 506.329 174.851 511.837 167.863 542.456 171.357 552.422 200.913 533.851 200.913 509.672 189.306 517.003 211.132 503.218 211.132 496.837 205.006 498.144 211.132 486.728" fill="#f6e8d5"/><path d="M80.479,412.6H76.858l.369-1.165,3.252-1.464,8.866,2.254-1.353,3Zm17.087-25.57-5.717,5.009-16.6,5.911L73.417,412.6l3.363-.808,2.247-6.029,20.235-5.109,9.953,3.006,4.26,15.827,4.42,2.9-.6,13.773,8.114,3.71-13.129,9.2.206,16.812s5.41-10.137,5.61-9.937,1.2,9.937,1.2,9.937l2.905-8.735s1.5,4.609,1.5,4.308,15.928-27.548,15.928-27.548V407.369L122.2,388.736l-3.907.6-2.5-2.3Zm1.052,28.5-1.052,3.156,9.367,2.78,3.856,5.935-2.4-8.865Z" fill="#e2d4c7"/><path d="M578.494,540.642l-14.687,1.113-.966-12.746,14.687-1.113ZM124.44,434.543l.015.01,10.169-20.673L119.5,390.7l-23.041-2.7-4.608,4.037,22.94,2.507,12.02,20.222-4.569,18.343.041.026c-3.275-1.147-7.876.608-11.168,4.543-3.9,4.664-4.479,10.608-1.29,13.276s8.937,1.049,12.838-3.614C126.347,442.938,127.062,437.392,124.44,434.543Z" fill="#6767f7"/><polygon points="40.359 697.879 42.763 669.565 139.633 669.565 139.633 697.879 40.359 697.879" fill="#98b7ff"/><polygon points="194.38 480.626 203.713 483.929 207.447 488.236 204.288 481.344 195.385 478.185 194.38 480.626" fill="#665c56"/><polygon points="183.61 477.25 184.724 474.848 175.713 472.011 171.549 473.734 175.282 474.164 183.61 477.25" fill="#665c56"/><path d="M283.51,140.561H179.55v106.07H125.4a107.516,107.516,0,1,1,158.11-106.07Zm310.864,74.163H562.126V218.2h32.248Zm19.816,8.916v3.48H585.1v-3.48Zm-23.52,8.931v3.47H585.1v-3.47Zm15.206,320.088-6.949-12.988-11.271,6.03,6.948,12.988ZM414.312,185.687l-9.979,9.774-5.058-5.126-3.418,3.418,6.835,7.04,1.641,1.709,13.4-13.4Zm-249.8,345.36H158.29l-1.34,2.854h-7.084l-2.3,8.1L117.7,552.422,82.856,615.133h-2.68l-1.723,5.9-4.212,2.146.67,9.365,34.719,10.778L122.8,609.282l-2.034,56.674,105.764,4.564-2.154-51.247,37.483,13.635V620.2h-3.245l-8.041-56.709L221.711,546.08l-5.218-10.2-5.361,1.34-5.839-6.172-33.936,21.375Z" fill="#cef2cf"/><path d="M527.17,341.491l-1.289,17.75H399.6l3.591-38.51,20.789-12.446-2.058-.366,1.946-10.622,10.464,4.791-6.482-3.013,2.266-5.2H480.53l5.224,6.444,8.438,1.077,34.719,35.72Zm67.434,217.2-5.891-11.012-4.614,9.134,4.05,5.331ZM83.534,497.628l41.874-7.514,3.093-6.167-6.356-7.073-2.647,4.671-30.855,5.6L74.285,473.974l-7.076,6.552Zm97.779,109H187.2l-8.207-50.95-4.908,1.89Zm-15.221-49.538-4.164-4.667-2.489,48.442h5.217Z" fill="#eafaeb"/><path d="M137.483,600.707a11.758,11.758,0,0,1-7.48-9.175c-1.91-11.13,9.933-21.173,21.763-15.6.14,2.5-1.021,6.057-4.207,7.126,15.814,9.983,2.294,30.434-14.278,23.709-3.025-1.541-1.409-4.359,1.823-2.727,3.61,1.244,8.3,1.244,11.256-.387a13.367,13.367,0,0,0,4.812-4.287,13.8,13.8,0,0,0,1.141-2.111c.251-.59,1.059-3.025.432-3.288-.157-.066-.24.12-.283.294a10.3,10.3,0,0,1-2.264,4.276,11.432,11.432,0,0,1-4.885,3.343c-2.363.861-5.1.969-8.867.146.249-.27.747-1.018,1.037-1.323ZM148.4,576.935a7.8,7.8,0,0,1,.106,1.1,5.233,5.233,0,0,1-1.747,4.342q-.4.4-.9.83c4.466,2.776,6.8,8.849,4.206,13.093-3.5,5.718-10.432,4.417-14.219.5-3.965-4.1-3.44-9.4-.592-13.333a16.523,16.523,0,0,1,13.15-6.537Z" fill="#96c94e" fill-rule="evenodd"/><path d="M134.94,589.489c.85-8.486,10.614-10.168,14.245,1.143,2.929,11.626-15.591,9.1-14.245-1.143Zm7.962,5.583c7.711.282,4.016-7.605-1.047-9.348-5.018-1.727-7.808,9.347,1.047,9.348Z" fill="#232639" fill-rule="evenodd"/><polygon points="229.439 697.861 221.711 670.52 156.95 667.566 137.156 666.663 133.475 676.389 125.343 697.879 229.439 697.861" fill="#dfecfc"/><polygon points="491.786 512.942 450.237 494.101 440.215 489.041 434.625 493.763 407.448 491.74 399.353 486.343 390.294 490.872 348.248 509.691 363.998 659.935 455.776 659.935 467.006 580.641 497.075 575.873 491.786 512.942" fill="#975bc8"/><path d="M232,472.011,227.55,523.7l-36.042,4.164,9.405-18.2,10.219-6.454v-6.381l-6.126,1.307,6.126-11.416L204.24,465.35H174.851l-15.412,40.979,15.412,5.508-1.412,4.8s-27.354,2-27.785,2.284,19.289-63.563,19.289-63.563l46.674-5.935,11.338,12.54ZM427.4,402.8l-23.99,2.666L391,421.112l2.1,26.012,12.42,16.138-.785-8.064-5.382-5.967,3.469-6.461,7.688,7.642.007-16.713-5-1.955,6.554-14.308,14.456,4.626,16.479-2.024,1.446-5.493,4.337,6.072L443.3,410.5Z" fill="#665c56"/><path d="M431.349,437.821l-10.89-.893-4.559,3.566,3.017-6.666,12.432,1.006Zm8.577-3.993.578,3.252,5.4-2.246,3.351,2.672-.46-2.672-2.891-2.821Z" fill="#665c56"/><polygon points="363.998 697.861 363.998 659.935 455.776 659.935 454.302 697.861 363.998 697.861" fill="#6767f7"/><path d="M307.678,421.664l-11.4-.3-4.269,2.149,3.285-4.641,12.02-.294Zm9.773.09L329.6,421.7l3.542,1.734-2.525-4.182-12.833-.584Z" fill="#e0b086"/><polygon points="393.987 500.541 343.142 481.034 344.447 479.604 336.934 468.785 317.757 479.203 310.44 485.514 307.679 479.203 288.502 468.785 280.988 479.604 282.525 481.289 226.893 504.448 205.255 600.216 255.744 570.864 255.744 666.131 367.459 666.131 372.649 564.553 415.625 571.165 393.987 500.541" fill="#98b7ff"/><path d="M415.625,571.165l-46.9-10.856,17.044-13.387-6.812-15.627-38.117,22.559-30.4-7.037-52.334,12.475-2.362,11.572-25.6,4.979-24.891,24.373,17.152,18.341-56.034-20.382-26.917-3.1-5.738,2,18.935,7.958-10.428,1.372-19.648-9.458c1.9-6.8,3.165-11.351,3.165-11.351l29.868-7.567,12.253,3.387,6.222,6.9,1.506-5.891-4.76-16.414-23.262-6.559-26.421,11.058L74.911,632.547,76.8,662.969s28.548-4.575,28.836-5.437c.194-.584,9.359-33.418,15.246-54.519l16.4,13.922,34.9-1.8L232,658.233l23.743,2.84V630.684l-14.857-5.4,88.873-39.391,60.019,33.961,33.659-18.432Z" fill="#f6e8d5"/><polygon points="463.299 263.287 466.802 261.503 471.647 261.503 471.159 262.864 466.802 262.626 463.299 263.287" fill="#665c56"/><polygon points="480.659 261.354 480.208 262.601 483.679 262.172 484.888 262.601 484.073 261.101 480.659 261.354" fill="#665c56"/><path d="M497.36,243.033l-9.873,10.419-28.6-4.959-20.582,14.63,1.24-21.077,14.837-10,12.771-.248L471,233.944l1.788-2.148,15.327-3.628,9.13,6.718Zm35.39,89.927-2.61,3.99-2.97,4.541-3.03,17.59H585.1v-47.1Z" fill="#dfecfc"/><path d="M486.991,249.981l-28.93-.166S450.787,268,450.622,267.5s-3.678,3.72-3.678,3.72,1.965,2.936,4.266,6.411c-.941,2.743-7.531,21.975-7.531,22.436,0,0,21.449,8.7,22.11,8.7l7.467-7.04L472.526,289c6.008-.065,11.655-.173,11.655-.173S486.826,250.807,486.991,249.981Z" fill="#f6e8d5"/><polygon points="491.021 243.823 483.21 243.947 479.49 238.429 474.262 243.533 468.765 238.74 465.542 245.187 461.4 247.245 460.541 245.683 438.554 262.71 439.05 266.678 435.744 274.117 439.691 274.571 438.885 280.068 442.687 279.737 443.018 283.87 445.89 283.498 447.308 288.496 451.363 277.866 446.944 271.224 450.622 267.504 455.365 271.027 455.747 259.239 464.178 252.295 464.736 258.887 473.766 254.61 478.374 260.127 483.086 255.602 490.153 257.151 488.479 249.815 491.021 243.823" fill="#665c56"/><path d="M422.1,177.791H391.49a1,1,0,0,0-1,1V209.4a1,1,0,0,0,1,1H422.1a1,1,0,0,0,1-1v-30.61A1,1,0,0,0,422.1,177.791Zm-1,30.61H392.49v-28.61H421.1Zm202.44,204.61-2.75-1.9a1.045,1.045,0,0,0-.71-.171l-9.97,1.331a1,1,0,0,0-.7.439l-3.61,5.51a1,1,0,0,0,.11,1.24,1.032,1.032,0,0,0,.73.311,1,1,0,0,0,.5-.14l5.59-3.3,6.64-.35,3.2,1.42a.989.989,0,0,0,1.4-.91v-2.66A.982.982,0,0,0,623.54,413.011Zm-1.57,1.939-2.01-.9a1.042,1.042,0,0,0-.46-.081l-7.12.381a.951.951,0,0,0-.46.14l-2.1,1.229,1.01-1.53,9.14-1.22,2,1.381ZM466.39,278.94a1,1,0,1,1,1.16-1.629l3.2,2.29,6.64-.28a1,1,0,1,1,.08,2l-6.98.29h-.04a.939.939,0,0,1-.58-.19Zm155.77-76.3H529.59a1,1,0,0,0-1,1V223.4H390.35a1,1,0,0,0-1,1v134.68a1,1,0,0,0,1,1H585.1a1,1,0,0,0,1-1v-90.43h36.06a1,1,0,0,0,1-1V203.64A1,1,0,0,0,622.16,202.64ZM438.11,358.081H401.93l3.4-36.45,15.22,1.029,18.07,20.77C438.57,344.981,438.37,350.921,438.11,358.081Zm70.69,0H440.11c.3-8.32.52-14.98.52-14.98a.986.986,0,0,0-.25-.691l-18.6-21.379a1,1,0,0,0-.68-.341l-13.43-.909,17.73-10.61,20.16,3.6a1.012,1.012,0,0,0,1.16-.811.993.993,0,0,0-.81-1.159l-17.89-3.19-3-.54h-.01l-.69-.121,1.53-8.369s31.47,14.16,31.51,14.16c.05-.021.09-.031.14-.051a1.121,1.121,0,0,0,.36-.289.961.961,0,0,0,.07-.1.506.506,0,0,0,.06-.1,1.007,1.007,0,0,0-.49-1.33l-27.11-12.46,1.47-3.379,33.49,14.629a2.066,2.066,0,0,0,.44.111.862.862,0,0,0,.33-.061,1.837,1.837,0,0,0,.43-.289l15.11-14.25,3.88,4.789-15.1,11.01a1,1,0,0,0,.59,1.811,1.017,1.017,0,0,0,.59-.19l15.63-11.4,7.51.961L508.8,330.8ZM436.14,294.71h8.21c-.46,1.371-.79,2.391-1.03,3.141Zm4.34-20.75a1,1,0,0,0-.67-.379l-2.6-.3,2.75-6.2a.959.959,0,0,0,.08-.53l-.39-3.15,19.23-13.67,3.66,2.62-7.43,6.119a1,1,0,0,0-.36.74l-.22,6.691s-4.14.63-4.18.65a.193.193,0,0,0-.1.03.911.911,0,0,0-.29.18.176.176,0,0,0-.05.04s-3.72,3.76-3.73,3.78a.447.447,0,0,0-.1.139,1.014,1.014,0,0,0,.03,1.061l3.99,5.99v.01c-.04.12-1.4,4.08-1.95,5.689l-.03.1-.67,1.75-.6-2.1a1,1,0,0,0-.96-.719.615.615,0,0,0-.13.01l-1.83.23-.25-3.081a.991.991,0,0,0-.35-.69,1.017,1.017,0,0,0-.73-.229l-2.54.219.62-4.24A.994.994,0,0,0,440.48,273.96Zm51.37-30.7a1,1,0,0,0-.85-.44l-7.26.119-3.27-4.849-.15-.221a1,1,0,0,0-.73-.44.85.85,0,0,0-.27.02h-.01a1,1,0,0,0-.52.26l-4.57,4.461s-5.01-4.33-5.13-4.38l4.25-5.1,14.55-3.439,8.36,6.15.1,7.239-6.76,7.141,2.35-5.571A1,1,0,0,0,491.85,243.261Zm-4.35,6.78,1.33,5.8-5.53-1.221a1.015,1.015,0,0,0-.91.261l-3.94,3.779-3.92-4.69a.99.99,0,0,0-.76-.359.906.906,0,0,0-.43.1l-7.73,3.66s-.46-5.3-.48-5.369a.943.943,0,0,0-.1-.23,1.048,1.048,0,0,0-.27-.29l-3.77-2.91,5-2.49a.981.981,0,0,0,.45-.45l2.64-5.29,4.52,3.95a1.012,1.012,0,0,0,1.36-.04l4.37-4.27,3.05,4.52a.992.992,0,0,0,.85.449l6.27-.1-1.94,4.57A1.1,1.1,0,0,0,487.5,250.041Zm-.61,14.69a2.582,2.582,0,0,1,.78,2.07,4.618,4.618,0,0,1-1.15,3.04C486.64,268.111,486.76,266.39,486.89,264.731Zm-32.12,7.1a.994.994,0,0,0,1.59-.77l.11-3.441,4.44-.67v.141a7.025,7.025,0,0,0,14.05,0v-.11l1.48-.051a6.135,6.135,0,0,0,.42,2.181,17.636,17.636,0,0,0,1.03,1.79c.31.43,1.1,1.809,1.1,1.809l-2.68,1.371a1,1,0,0,0,.45,1.889,1.086,1.086,0,0,0,.46-.109l3.63-1.86a1,1,0,0,0,.51-.611.738.738,0,0,0,.01-.21c.01.01.01.01.02.01a6.01,6.01,0,0,0,1.66.22,7.016,7.016,0,0,0,1.22-.109c-.43,6.05-.82,11.669-1.02,14.55-2.91.05-22.8.21-24.21.1-.48-.869-10.81-16.6-10.81-16.6l2.49-2.53Zm-1.62-3.7,1.32-.2-.04,1.151Zm24.49-4.65a4.22,4.22,0,0,0-.88,1.42l-.01.009-2.17.081c-.01-.01-.01-.01-.01-.021a4.541,4.541,0,0,0-.67-1.129.985.985,0,0,0,.24-.381l.17-.479.59-1.63a.993.993,0,0,0-.94-1.34h-7.53a1.009,1.009,0,0,0-.45.109l-5.45,2.77a1,1,0,0,0,.46,1.891.554.554,0,0,0,.18-.02l.25-.051a1.068,1.068,0,0,0-.07.151c-.02-.01-.03,0-.05,0l-4.76.73.19-5.871,6.61-5.439.4,4.689a1,1,0,0,0,1.42.821l8.33-3.95,4.12,4.93a.947.947,0,0,0,.63.34l-.6,1.67a.292.292,0,0,0-.02.089A.98.98,0,0,0,477.64,263.481Zm-11.85,5.09h4.47a1,1,0,0,0,1-1,.919.919,0,0,0-.18-.54.01.01,0,0,0,.01-.01v-.01a2.31,2.31,0,0,0,.26-.75,1.986,1.986,0,0,0-.36-1.49,1.022,1.022,0,0,0,.65-.28,2.548,2.548,0,0,1,1.22,1.57.7.7,0,0,0,.03.2.076.076,0,0,0,.01.04,4.02,4.02,0,0,1,.06.79,5.025,5.025,0,0,1-10.05,0,3.12,3.12,0,0,1,.41-1.74.01.01,0,0,1,.01-.01.061.061,0,0,0,.01.04,1,1,0,0,0,.84.45.949.949,0,0,0,.54-.16l1.37-.89h1.56a2.355,2.355,0,0,0-.7,1.359,1.557,1.557,0,0,0-.01.431h-1.15a1,1,0,0,0,0,2Zm17.26,2.839a4.568,4.568,0,0,1-3.44-1.54l-.01-.009-.88-1.451v-.02a4.436,4.436,0,0,1-.29-1.589,4.107,4.107,0,0,1,.02-.47v-.04a1.2,1.2,0,0,0,.06-.2.941.941,0,0,0,.42-.141l1.36-.889h1.58a2.394,2.394,0,0,0-.69,1.79h-1.19a1,1,0,0,0,0,2h4.48a.451.451,0,0,0,.11-.03v.02c-.05.779-.11,1.569-.16,2.359A4.384,4.384,0,0,1,483.05,271.41ZM480,259.96l3.39-3.27,2.04.45c-.06.781-.12,1.591-.19,2.451a1.087,1.087,0,0,0-.18-.01Zm-17.32-14.469,3.98-4.781-1.86,3.73Zm-1.94-.791-.6.73-.19-.549-4.16-11.86,11.11-.22,2.56,1.43Zm-2.46,1.471.37,1.039-.46.551L439.43,261.1l.02-.35,1.07-18.15,13.35-9Zm-7.29,35.48,3.99,10.9a.5.5,0,0,0,.09.159.981.981,0,0,0,.73.49l16.08,2.081.31,5.339.03.451.01.25-6.65,6.26-20.43-8.93C445.21,298.47,450.99,281.651,450.99,281.651Zm22.87,13.1a.08.08,0,0,1,.01-.041h5.37l-5.11,4.811Zm36.94,63.33v-27.51a1.129,1.129,0,0,0-.1-.44l-11.62-23.7,29.78,30.641-2.53,3.869a1.375,1.375,0,0,0-.15.381l-2.89,16.76Zm73.3,0H525.33l2.79-16.22,2.17-3.32,1.13-1.72,1.99-3.05L584.1,313.46Zm0-46.78-51.72,20.73a1.094,1.094,0,0,0-.47.379l-1.92,2.941-33.81-34.77-.04-.05a.4.4,0,0,0-.1-.081,1.084,1.084,0,0,0-.23-.139.235.235,0,0,0-.08-.02.293.293,0,0,0-.16-.04c-.01-.01-.01-.01-.02-.01l-8.04-1.031-4.97-6.129a1.022,1.022,0,0,0-.71-.371h-7.99L473.72,290c2.92-.041,6.38-.08,10.48-.17a1.009,1.009,0,0,0,.98-.93c.27-3.87.7-10.06,1.15-16.37a6.584,6.584,0,0,0,3.34-5.73,4.53,4.53,0,0,0-2.26-4.13c0-.011-.01-.011-.01-.02l-.32-.59c.11-1.6.22-3.121.32-4.49l2.54.56a1.012,1.012,0,0,0,.92-.27,1.038,1.038,0,0,0,.27-.931l-1.08-4.73,8.04-8.48a1.051,1.051,0,0,0,.27-.7l-.12-8.151a.976.976,0,0,0-.41-.789l-9.13-6.72a.988.988,0,0,0-.82-.161l-15.33,3.621a.942.942,0,0,0-.53.339l-1.26,1.511-3.12-1.75a.986.986,0,0,0-.51-.12l-12.74.24a.974.974,0,0,0-.34.06.536.536,0,0,0-.11.05.364.364,0,0,0-.09.049.357.357,0,0,0-.08.051l-14.78,9.969a1,1,0,0,0-.44.771l-1.24,21.07a.992.992,0,0,0,.38.84l.33,2.63-3.19,7.179a1.008,1.008,0,0,0,.8,1.4l2.92.339-.65,4.471a.979.979,0,0,0,.26.83.935.935,0,0,0,.81.31l2.8-.24.25,3.129a1.039,1.039,0,0,0,.37.7,1.024,1.024,0,0,0,.76.21l2.01-.26,1.19,4.17c-.51,1.51-.95,2.81-1.34,3.939H431.35a.937.937,0,0,0-.37.071.954.954,0,0,0-.55.53l-.01.03-1.87,4.279-3.04-1.389a1.005,1.005,0,0,0-1.4.719l-1.94,10.631a1,1,0,0,0,.16.75.768.768,0,0,0,.22.22L403.91,319.71a.469.469,0,0,0-.13.111,1.3,1.3,0,0,0-.12.109c-.02.03-.04.051-.06.081s-.04.07-.06.1a.577.577,0,0,0-.09.25.263.263,0,0,0-.03.12l-3.51,37.6h-8.56V225.4H584.1Zm37.06-44.65H586.1V224.4a1,1,0,0,0-1-1H530.59V204.64h90.57ZM418.44,188.4l-3.42-3.42a1.006,1.006,0,0,0-1.41-.011l-9.26,9.081-4.36-4.42a1.057,1.057,0,0,0-.71-.3h-.01a.99.99,0,0,0-.7.3l-3.42,3.41a1,1,0,0,0-.01,1.409l6.83,7.041,1.64,1.7a.971.971,0,0,0,.71.311h.01a.987.987,0,0,0,.71-.291l13.4-13.4A1,1,0,0,0,418.44,188.4Zm-14.09,12.67-7.09-7.31,2.01-2.01,4.35,4.409a1,1,0,0,0,1.41.02l9.28-9.089,2.01,2.01Zm216.87,223.25a1,1,0,0,1-1,1h-7.79a1,1,0,0,1,0-2h3a3.006,3.006,0,0,1-.53-1.7,3.037,3.037,0,0,1,.6-1.8l-.44-.03-3.18,2.07a1,1,0,0,1-1.09-1.681l3.47-2.25a1.038,1.038,0,0,1,.62-.159l5.42.429a1,1,0,0,1,.19,1.951,2.961,2.961,0,0,1,.39,1.469,3,3,0,0,1-.54,1.711c0,.01-.01.01-.01.02A.986.986,0,0,1,621.22,424.321ZM81.78,686.16v11.7h-2v-11.7a1,1,0,0,1,2,0Zm29.97-259.02-2.4-8.859a1,1,0,0,0-.67-.7l-9.77-3a.987.987,0,0,0-1.24.639l-1.05,3.15a.967.967,0,0,0,.06.781,1,1,0,0,0,.6.5l9.01,2.67,3.66,5.629a1,1,0,0,0,.84.451.968.968,0,0,0,.41-.08A1,1,0,0,0,111.75,427.14Zm-3.98-6.219a.983.983,0,0,0-.55-.41l-8.38-2.49.42-1.24,8.3,2.55.6,2.19Zm248.76-214.44H244.61a1,1,0,0,0-1,1v36.8a1,1,0,0,0,1,1H323.9l9.5,10.189a.986.986,0,0,0,.73.321.92.92,0,0,0,.37-.071,1,1,0,0,0,.63-.929v-9.51h21.4a1,1,0,0,0,1-1v-36.8A1,1,0,0,0,356.53,206.481Zm-1,36.8h-21.4a1,1,0,0,0-1,1v7.97l-8.07-8.65a1.007,1.007,0,0,0-.73-.32H245.61v-34.8H355.53ZM310.46,232.12a1,1,0,0,1-1,1H266.18a1,1,0,0,1,0-2h43.28A1,1,0,0,1,310.46,232.12Zm-45.28-11.589a1,1,0,0,1,1-1H335.3a1,1,0,0,1,0,2H266.18A1,1,0,0,1,265.18,220.531Zm-55.96-45.86a1,1,0,0,1,1-1h69.13a1,1,0,0,1,0,2H210.22A1,1,0,0,1,209.22,174.671Zm109.52,277.57a1.018,1.018,0,0,1-.18.57,1,1,0,0,1-.82.43h-10a.983.983,0,0,1-.99-.94.127.127,0,0,1-.01-.06,1,1,0,0,1,1-1h10A1,1,0,0,1,318.74,452.241Zm189.47,22.12a1.5,1.5,0,1,0,1.51,1.509A1.506,1.506,0,0,0,508.21,474.361Zm.11,1.02h.02c.01.009.03.009.04.02A.13.13,0,0,0,508.32,475.381Zm-178.08-49.4a1,1,0,0,1-.56,1.83.933.933,0,0,1-.55-.171l-1.55-1.029h-1.79a2.658,2.658,0,0,1,.79,1.9,2.333,2.333,0,0,1-.1.709l1.54-.08a1.013,1.013,0,0,1,1.06.941,1,1,0,0,1-.94,1.05l-6.96.4h-.06a1,1,0,0,1-.06-1.99l.31-.02a2.607,2.607,0,0,1-.2-1.01,2.691,2.691,0,0,1,.78-1.9h-2.18a1,1,0,0,1,0-2h8.11a1.023,1.023,0,0,1,.56.17Zm-25.53,5.55-6.97-.4a1,1,0,0,1-.94-1.05,1.013,1.013,0,0,1,1.06-.941l1.55.08a2.333,2.333,0,0,1-.1-.709,2.691,2.691,0,0,1,.78-1.9H298.3l-1.55,1.029a.933.933,0,0,1-.55.171.988.988,0,0,1-.83-.441,1,1,0,0,1,.27-1.389l1.81-1.2a.967.967,0,0,1,.55-.17h8.12a1,1,0,0,1,0,2h-2.19a2.691,2.691,0,0,1,.78,1.9,2.607,2.607,0,0,1-.2,1.01l.31.02a1,1,0,0,1-.06,1.99Zm17.95,13.21a1,1,0,0,1-.03,1.41l-3.16,3.009a1.007,1.007,0,0,1-.69.27H305.86a1,1,0,0,1-.71-.29l-3-3.009a1,1,0,0,1,1.41-1.411l2.72,2.71h12.1l2.87-2.73A1,1,0,0,1,322.66,444.741Zm-237.18-.51-6.99-2.7a1,1,0,0,1,.72-1.871l6.63,2.571,6.26-2.341a1.007,1.007,0,0,1,1.29.591,1,1,0,0,1-.59,1.28l-6.61,2.48a1.03,1.03,0,0,1-.35.06A.889.889,0,0,1,85.48,444.231Zm220.66-3.72,1.7-3.45a1,1,0,0,1,1.8.879l-.99,2.01h7.57l-.91-2.049a1,1,0,0,1,1.83-.81l1.53,3.46a.988.988,0,0,1-.91,1.4H307.04a1,1,0,0,1-.85-.469A1.013,1.013,0,0,1,306.14,440.511ZM83.52,424.9,77.21,422a.993.993,0,0,1,.77-1.83v-.011a2.9,2.9,0,0,1-.2-1.069,3,3,0,0,1,.35-1.4c0-.01.01-.01.01-.019A.994.994,0,0,1,78,415.69l3.21-.4a1.352,1.352,0,0,1,.4.03l5.41,1.609a1,1,0,0,1-.28,1.96,1.419,1.419,0,0,1-.28-.039l-2.9-.86a2.7,2.7,0,0,1,.22,1.1,3,3,0,0,1-1.98,2.819l2.55,1.171a1,1,0,0,1-.42,1.91A1.029,1.029,0,0,1,83.52,424.9Zm372.64,111.16a.881.881,0,0,0-.33-.06h-10.8a1,1,0,0,0-1,1v4.03a1,1,0,0,0,1,1h10.84a1,1,0,0,0,.96-1V537A.985.985,0,0,0,456.16,536.061Zm-1.33,3.97h-8.8V538h8.8ZM691.56,575.44c-.45-.652-22.71-83.761-23.639-84.078l-35.581-20.7-2.46-6.8.79-.51c7.723,3.744,5.459,1.941,7.45-4.68,6.2-2.561,5.616-1.317,4.24-7.91,5.572-4.706,5.437-3.127,1.989-9.641-1.441-8.543-1.339-22.658-1.759-31.259,5.832-12.678,9.321-8.6-2.51-16.23,3.061-9.674,1.282-6.163-6.8-7-.3-.631-.676-4.9-1.57-5.07-.414-.737-7.824,4.717-8.3,4.829-9.165-6.115-6.182-10.057-14.87-.789-8.646-5.121-5.785-4.337-12.2,2.49-11.183-.6-10.619-4.127-9.38,8.33-11.947,4.023-7.971,1.638-4.73,13.39-8.287,9.372-5.9,4.94,1.08,16.619-.406.84-5.04,3.906-3.87,5.1l7.69,10.081-1.3,5.41a.981.981,0,0,0-.6.53l-6.08,13.19L546.57,468.7l-.08-1.219c.694-.181,2.23-.031,2.34-1.041l1.33-7.339c.271-2.065-3.271-.718-4.24-.8l-.66-10.45c.246.4.6,1.673,1.09,1.849l7.34,3.8c-5.563,16.175,2.777,3.29,6.14-.841a1.012,1.012,0,0,0-.28-1.47l-9.77-5.78c-.034-.04-4.363-8.333-4.5-7.879l-29.18-13.4c-.589-.4-2.887.873-3.47.96.214,0-8.335-5.274-7.87-4.69l-16.31,2.039a.994.994,0,0,0-.77.561l-7.64,15.74c-.5.693,4.487,22.547,4.4,23.26-4.418,11.81-3.194,9.958,6.18,4.51l14.63,19.54-1.28,19.879c-2.344,1.63-8.62,6.022-11.18,7.081l-.06-.74c-7.174-3.3-45.544-20.391-51.52-23.841V473.18c.752-.424,10.476-.182,10.03-2-.224-.738-1.108-50.527-1.63-51.149l-5.43-10.011a1.011,1.011,0,0,0-.45-.42l-15.9-7.7c-.449-.381-24.011,2.667-24.531,2.579-.771.063-13.314,15.946-13.29,16.709.2.526,1.793,26.149,2.3,26.54l12.121,15.752-5.92,22.17c-4.426,2.322-13.57,6.612-18.18,8.58l-35.46-13.6a1.2,1.2,0,0,0,.4-1.6c-.473-.225-7.771-12.355-8.59-11.21l-2.39-10.111.84-7.579,6.91-16.83c.4-.535-1.279-3.357-1.4-3.891-.184-.7,1.892-23.176,1.3-23.788l-9.26-13.831a1,1,0,0,0-.83-.44H298.28V275.22h67.36c2.938.244-.017-133.678,1-134.661-.763-2-187.3-1.852-188.091,0,0,0,0,105.075,0,105.075-1,.947-119.854-1.839-119.628,1l0,60.8a1,1,0,0,0,1,1H110.2v77.6H97.57c-.564-.066-1.357.936-1.76,1.22H95.8l-4.47,3.909c-.174.283-18.033,5.821-17.07,6.67l-1.84,14.651c-.1,1.622,1.869.972,2.77.719L62.86,446.291a1.007,1.007,0,0,0,.57,1.28l12.2,4.819,5.93,6.77-.52,1.741-1.04-.39c.129-4.208-7.322-6.829-9.27-2.77-1.746,3.9,5.644,7.917,8.52,4.629l1.23.461-3.58,12.19c-.751-.445-2.249-2.839-3.29-1.78-.336.854-9.061,6.925-7.04,8.06L23.13,500.44c-1.377.361-12.432,71.084-13.021,71.922-1.136,11.161-5.379,11.184,5.811,10.869v28.11L13.23,624.96c-.09.252,6.309,72.622,6.29,72.9h2c.015.016-6.3-72.639-6.3-72.65l2.68-13.58c.058-.173,0-28.21.02-28.4H31.13l-.92,90c-.233,1.939,6.375.724,7.25,1.1.01.05-1.566,23.488-1.53,23.53h5.44c.365-4.307,1.982-23.4,2.31-27.29H134.6c-.036.184-10.277,27.1-10.3,27.29h2.12l2.33-6.171c4.518-4.218,12.826-11.986,17.27-16.129l23.86,1.27,1.11,21.03h2l-1.1-20.921,31.37,1.68c-.058,1.1,24.113,16.536,24.57,17.241l.57,2h2.07c.009,0-7.482-26.488-7.48-26.491.928-.206,4.652.952,4.54-.889-.139-3.249-.481-11.546-.62-14.69.237.114,4.8,3.593,4.97,3.44l22.86,2.729v35.9h2V677.8c.438-.35,27.423-10.042,27.63-10.67h28.82l-1.18,30.73H314l1.2-30.73h22.27c.174.78,25.049,10.686,25.53,11.13v19.6h2v-14.77l36.89-22.161h23.09c-.01.1-4.334,36.84-4.34,36.931h2.02L427,660.93h16.21l11.08,11.591-.98,25.34h1.99c.586-9.893.781-31.172,1.88-40.77l19.86-18.931.68,14.77c.009.008-6.5,19.212-6.5,19.221-.6.429-3.779,1.1-3.77,2.089l-3.54,23.621h2.02l3.41-22.76c.488-.606,35.713-15.192,34.191-17.059a1,1,0,0,0-1.331-.481l-28.47,13.43,5.7-16.86,40.7,2.759-3.88,40.971h11.41l5.13-40.11c6.587.438,17.935,1.215,24.53,1.659.215,2.114.985,9.577,1.21,11.81-3.644-2.95-9.386-7.624-13.04-10.58-.977-.831-2.274.758-1.26,1.551,1.889,1.537,5.714,4.631,7.6,6.17a166.6,166.6,0,0,1,12.92,11.2l2.77,18.3h2.02l-2.86-18.94a.959.959,0,0,0-.3-.58l-5.66-5.31-1.26-12.351,1.36-1.379c4.549.695,3.413-.642,4.16-4.19l8.31-8.37,32.26-2.051-1.1,31.591c-7.242,4.54-6.622,2.093-7.24,10.939v.011l-.78,10.63h2l.45-6.03,2.32,6.03h2.14l-4.12-10.7.53-5.73c.45-.475,7.01-3.666,6.68-4.539l1.13-32.32,30.43-1.94,5.74,26.47c-1.1-.345-21.8-26.478-23.279-24.651a1,1,0,0,0-.091,1.411l24.24,27.23c-.007,0,5.372,24.769,5.37,24.77l.14.64,1.95-.43c-.1-.361-5.495-25.407-5.6-25.77.012,0-6.682-30.836-6.68-30.84l1.48-46.761c.572,4.494-1.483,2.095,15.579,13.151,8.292,4.756,14.579,8.933,15.831,8.81,1.045-.075,18.225-39.989,18.811-40.531A1.011,1.011,0,0,0,691.56,575.44ZM630.58,471.68c.211.895,35.459,20.636,35.99,21.21l21.4,77.08-24.15-35.889c-.9-1.5-3.593,1.486-4.47,1.78-.55-.359-17.535-23.712-18.329-23.68l-22.031-5.45c.066-2.7-3.313-.917-4.69-.83l-.18-1.08c15.887-3.3,17.111-27.352,1.68-32.26l.47-9.151,3.65-1.509,2.7,4.27c.374.854-.409,8.234,1.4,7.96,2.021.163.372-5.967.671-6.88l3.47-2.27Zm-17.54,31.131c-17.189,4.4-25.1-21.787-8.56-28.16C620.9,471.764,628.26,496.053,613.04,502.811Zm.26,5.349-2.23,1.721-.25-1.2Zm-17.76-11.149a16.848,16.848,0,0,0,7.59,6.82c-11.116-2.31-15.22-17.6-6.81-25.151A16.875,16.875,0,0,0,595.54,497.011Zm28-8.22a17,17,0,0,0-9.91-14.81c11.3,2.5,15.113,17.6,6.76,25.209A17.3,17.3,0,0,0,623.54,488.791Zm-9.71-16.81a16.665,16.665,0,0,0-7.06-.1,1.028,1.028,0,0,0,.18-.471l1-13.77,4.41-.589c.194.37,1.343,6.745,1.89,6.7Zm18.25-28.821c-.132.014-8.13.643-8.25.661l-3.76-2.3c.139-.049,5.506-2.378,5.86-2.52h5.4l3.97,1.54Zm8.67-28.619a29.013,29.013,0,0,0-3.97-.66c-.384-.128-2.5.962-2.88,1.069l.03-.77,2.15-1.21c1.083.156,3.942.309,4.66,1.321Zm-41.26,9.4v-.01c5.838-7.826,6.321-4.66,3.9-14.579l8.7-5.631c.332-.031,9.8,3.569,9.9,3.061.453-.15,4.508-3.611,4.95-3.77.763.384,9.541,4.7,10.2,5.059.931.636,2.655-1.641,3.33-2.009.035,1.337.141,4.4.19,5.7a14.7,14.7,0,0,0-5.26-.7c-.524.476-3.581,1.536-3.45,2.49-.669,5.6,1.137,3.881,4.84,2.351.93.121,3.411.294,4.04,1.13,0,.028.031.932.03.96-.268-.425-3.875-.144-4.31-.221a17.51,17.51,0,0,0-2.72,1.23,1,1,0,0,0,.44,1.89c.335.054,1.325-.569,1.63-.69v.01a3.01,3.01,0,0,0,.73,2.891l.01.01-1.65.22a1,1,0,0,0,.14,1.99c.625-.188,5.605-.457,5.93-1.121l.28,8.48-2.4,3.111-5.61-4.331h-.01L631.52,426a1,1,0,0,0-1.9.63l1.49,4.509-8.95.5a.992.992,0,0,0-.53.181c-2.248,1.614-7.707,5.5-9.88,7.06-3.084-3.693-9.288-11.122-12.37-14.81Zm-10.34,17.8,5.82-10.32c.879-.935-4.063-5.582-4.35-6.32l2.86-4.661,3.6,4.02-.34,16.891c-.212,1.258,3.945,1.988,4.61,2.47-.081.293-2.664,5.207-2.46,5.43-.228-.037-6.143-1.113-6.37-1.14-.036-.02-4.651-.839-4.69-.85Zm-41.2,18.33-.96,5.31-.62.1c-.036-.561-.3-4.74-.33-5.18Zm-2.2,27.72c-6.95.68-18.672,1.827-25.5,2.49-.223-.206-8.844-9.694-9.09-9.86-2.189-1.767-6.653-5.488-8.84-7.32l1.02-5.6c6.983,3.924,7.847,8.172,8.43-2.74l2.49-.581c.632.617,2.824,8.024,4.21,7.491l12.78-1.88c1.317.05,1.484-5.159,1.88-5.881l3.17-.46c2.423,6.771,1.619,5.151,8.2,4.331C544.643,469.908,545.6,485.315,545.75,487.791Zm-40.61-21.5,4.57-1.06-.38,3.79Zm-11.23-28.8,17.55,10.29-1.27,12.589Zm43.27,17.979c.236.667.339,2.068,1.33,2-.025.136,5.117-1.822,5.23-1.839,0,0,.19,2.9.19,2.91L515.7,461.91l3.44-3.45c.814-.343,11.078,1.323,10.81-.559.113-.85.434-2.482-.92-2.43l-10.45.66c-.574-.2-4.081,4.277-4.49,4.569a.988.988,0,0,0,.11,1.44l-2.22.511,1.45-14.54L543,443.7l.59,9.451C542.734,453.669,536.52,453.5,537.18,455.47Zm2.34,6.861c.029,0,1.247-.154,1.31-.16a3.072,3.072,0,0,0,.09,1.969c-1.522-.343-2.284,1.861-.57,2.051.093.014,2.608-.212,2.7-.21l-3.41.52c-.4-.58-1.56-5.147-2.49-5.14.033,0,1.369-.174,1.4-.171A.979.979,0,0,0,539.52,462.331Zm-19.48,2.329c.706,1.254,2.288-.32,3.06-.67l1.21-.139a2.731,2.731,0,0,0,.41,2.369l-2.85.271a1,1,0,0,0,.09,1.989c.938-.463,8.417.419,6.51-2.249a2.774,2.774,0,0,0,.21-2.88,1.025,1.025,0,0,0,.99-1.09l5.12-.61c-.741.26-3.37.006-3.48,1.169l-1.04,5.09-11.35,1.671-2.61-5.73c.017,0,3.956-.476,3.97-.47A.987.987,0,0,0,520.04,464.66Zm-7.18-37.52c.011-.03,2.754-1,2.78-1.02l28.5,13.09c4.952,9.951,4.394,7.538,13.41,13.131l-2.35,3.029c.116-.8,1.321-2.743.15-3.259l-7.78-4.02c-.626-.631-2.408-7.027-3.79-6.531l-31.07,4.64-19.98-11.719ZM484.6,467.69c.048-.306,2.072-5.627,1.85-5.82l-4.46-22.549,7.25-14.96,15.41-1.931,5.6,3.53c-.051.031-20.219,7.355-20.25,7.4a.009.009,0,0,0-.01.009,1.039,1.039,0,0,0-.53.54c-.129.411-3.022,26.023-3.1,26.451-.265.616,2.833,4.025,3.05,4.54Zm7.09-3.089-3.3-4.411,2.7-23.209,18.63,26.19c-.735.443-8.288,1.221-8.09,2.579-1.315,9.021-3.426,6.79,4.11,12.811l-.29,4.42Zm13.81,42.71a1.01,1.01,0,0,0,.44-.76l1.27-19.78c.558-.133.371-6.135.49-6.571,3.028,1.194,8.587,13.441,11.21,14.911,3.187-.182,9.252-.588,12.5-.78,3.452,14.812-1.414,10.9,12.3,18.02l-11.96,20.96-9.37-.5c-5-4.372-18.605-16.237-23.81-20.77Zm39.11,19.639c1.515,1.481,6.146-10.133,6.84-10.58l21.07,10.9c-11.157,1.554-11.255-2.253-10.23,7.689l-28.31-1.53,11.5-20.149c.01,0,4.189,2.179,4.2,2.169C549.663,516.327,542.586,526.456,544.61,526.95Zm33.73,24.871.05.649-12.7.96c-.226-3.042-.579-7.706-.81-10.75,2.821-.222,9.96-.763,12.69-.96.225,3.034.553,7.068.76,10.111Zm-1.33,61.609v-.009c-6.067-7.114-20.092-23.705-26.34-31.02,1.614-.042,27.976-.744,28.83-.761,2.912,2.1,6.572,4.735,9.46,6.82l-.06.211.22-.09.89.639h.01l15.65,11.291,1.18.85.19.75,6.52,25.99h-24.1c-1.386-1.643-6.712-7.912-8-9.421v-.009Zm4.01,13.371-.1,1.85c-19.9-1.07-43.781-2.278-63.67-3.67.1-1.885.385-6.868.47-8.68,5.123-5.855,22.637-29.683,28.02-34.591l1.55-.2C557.253,593.979,571.366,614.37,581.02,626.8Zm-2.14-48.07.07-1.291,4.76-.619-.28,5.19Zm14.61,10.53,8.02-.41,3.88,8.98Zm6.26-7.051-11.19,3.5-3.2-2.309.36-6.84c4.474-.169,3.325-1.164,3.66-4.8-.041-2.473.739-6.892.28-9.29l4.21-2.25,8.46,20.96C602.231,581.218,599.849,582.177,599.75,582.21Zm-12.7-35.05c.182.093.449.237.63.331-1,1.868-2.875,5.425-3.87,7.28-.9-1.061-1.646-3.051-3.4-2.091-.221-2.943-.488-6.481-.72-9.429,1.4.734,4.256,2.271,5.66,3v.01Zm-.06,5.891,1.72-3.25c.451.885,4.271,7.778,4.41,8.55l-4.69,2.5c-.821-1.075-2.477-3.248-3.29-4.32Zm7.41,3.149c0-.026-4.542-8.5-4.55-8.529.359-.7,1.114-2.105,1.49-2.81l7.18-3.84,6,11.23-9.51,5.08Zm-4.53-12.819c-.283.547-.966,1.79-1.25,2.35-.45-.229-1.118-.6-1.56-.83l-.01-.011c-2.057-1.072-5.476-2.924-7.54-4,0-.054-.024-.27-.02-.319l-.32-4.2c.763-1.438,2.515-4.727,3.26-6.139,1.064.561,9.955,5.282,11.25,5.969ZM578.89,532.64l-.16-2.149,1.03.53Zm.16,22.471c.6-.146,1.476-.388,2.08-.55.736.977,2.236,2.943,2.97,3.909a.142.142,0,0,1-.02.061l.03-.05c1.04,1.357,2.691,3.541,3.72,4.9.006.1-.109,2.006-.11,2.1-1.519-1.3-3.51-3.025-5.03-4.33-.866-.512-1.976-2.409-3.12-1.741-.01,0-.02,0-.03.02a.3.3,0,0,0-.12.1c-1.048,1.086.754,1.987,1.43,2.659v.01c1.541,1.314,3.86,3.329,5.4,4.641v.01l1.33,1.14-.12,2.32c-2.92-1.172-6.63-2.643-9.55-3.82a1.009,1.009,0,1,0-.94,1.78c3.1,1.236,7.274,2.916,10.37,4.15l-.1,1.94c-9.71,1.242-29.166,3.757-39.12,5.029-.776.209-2.95.115-3.57.68-1.187,1.292-4.607,4.723-5.77,5.961v.01l-20.58,21.3v.01l-2.12,2.18v.01c-5.054,5.251-19.436,20.121-24.71,25.59l-10.56-.57c23.229-22.333,16-10.374,15.69-42.43,13.471-8.352,28.864-17.929,42.3-26.25C551.426,562.378,566.44,558.523,579.05,555.111Zm-63.13,57.48-.23,4.27-3.7-.2Zm4.01-63.631c-.93-.538-4.107-2.394-5.02-2.939h-.01c-1.255-.73-3.065-1.79-4.33-2.53.365-1.043,1.106-3.163,1.47-4.21,2.987,1.652,6.553,3.615,9.55,5.28.834.057,9.1,6.072,9.72,4.34,1.3-1.23-5.938-5.65-6.34-6.411-1.07-.881-3.342-2.779-4.4-3.639l.07-3.6c1.353.921,7.23,4.88,8.46,5.73h-.05c.019.015.049.008.07.01,1.609,1.088,5.286,3.581,6.93,4.689l13.17,14.111c.123.141,1.032.756,1.18.88l-11.81,3.14-.33.09c-1.108.563-5.955,3.688-7.12,4.37-5.352-2.473-13.516-6.273-18.78-8.71l-.63-4.191c1.7.548,3.692,1.2,5.4,1.75a1,1,0,0,0,.61-1.9c-1.835-.591-4.544-1.473-6.35-2.06-.22-1.442-.9-6.029-1.14-7.54,2.507,1.475,6.133,3.584,8.67,5.07A1,1,0,0,0,519.93,548.96Zm-1.01-8.879.93.77a.968.968,0,0,0-.09.41l-4.46-2.47.23-4.351,3.12.171C518.771,535.248,518.2,539.719,518.92,540.081Zm43.94,2.45-30.32-1.641c-2.367-1.594-6.485-4.385-8.89-6.009,6.322.341,32.016,1.728,38.79,2.089C562.481,537.49,562.843,542.16,562.86,542.531Zm1.03,14.55L552.9,560c-3.18-1.506-14.023-15.262-17.15-16.93l27.27,1.47C563.267,547.556,563.7,554.021,563.89,557.081Zm-34.78,12.45-9.17,5.7.52-9.71Zm-10.61-4.92c0,.129-.612,11.366-.64,11.9l-4.76,2.959c.224-4.192.691-12.858.92-16.939C514.929,562.954,517.632,564.213,518.5,564.611Zm47.29-9.181c1.781-.137,4.2-.32,6-.46-1.572.423-4.363,1.169-5.93,1.581Zm11.63-15.71c-1.525.107-10.954.834-12.69.96-.223-3.027-.592-7.7-.82-10.75l11.99-.909.74.389C576.836,532.02,577.23,537.175,577.42,539.72ZM496.8,513.151c3.628,3.159,18.976,16.566,22.29,19.44a.051.051,0,0,0-.05.04c-6.123-.367-5.355-1.107-5.83,5.009-.775-.437-2.173-1.46-2.67-.139l-2.39,6.85c.009,2.017,1.085,7.293,1.29,9.26-.075.567.429,2.228.43,2.849.306.752.17,4.626,1.35,4.771-.469,5.517-1.265,14.906-1.73,20.479l-13.1,8.131-.61-12.75,2.37-.381c-.594-7.013-4.5-53.431-5.18-61.53Zm-102.73-66.4-2.04-25.33,11.9-15,23.29-2.59,15.35,7.43,1.33,2.449c-.524.12-1.481,4.989-1.68,5.421l-15.59,1.91c-.7.162-15.5-5.95-15.47-4.021l-6.55,14.311c-.9,1.713,4.179,2.438,4.91,3.05l-.01,13.63c-.922-.33-6.494-8.085-7.57-5.711-4.841,8.906-4.609,5.89,1.83,13.32l.42,4.27Zm6.5,2.33,2.5-4.66c.853.2,8.024,9.881,8.44,5.99l.01-16.711c.194-1.226-4-2.013-4.65-2.5l5.74-12.54c.708.1,13.279,4.459,14.039,4.391l16.481-2.02c1.206.024,1.367-3.473,1.75-4.17l2.92,4.089.34,11.851c-.583-.39-1.659-2.13-2.53-1.74l-5.97,1.809c-1.5.325-.064,3.5-.12,4.381.359,2.257,5.229-1.239,6.22-1.27l2.55,2.04.92,32.3c-5.76.618-20.959,2.227-26.91,2.859C418.664,469.149,403.9,452.779,400.57,449.081ZM446.71,434.2c-.751-1.159-4.573,1.367-5.44,1.48l-.2-1.149,4.56-1.391Zm-40.23,29.351c.161.091-.428-4.879-.41-4.99l15.21,19.619a1.036,1.036,0,0,0,.87.381l17.06-1.351v11.371l-4.92,4.16-26.51-1.98-7.28-4.851Zm-7.2,23.95c.275.175,7.571,5.045,7.829,5.219.733.056,27.128,2.017,27.851,2.071l.29-.25c.027,0,5.077-4.3,5.1-4.31l7.89,3.979-11.95,7.781-32.59-2.65-11.48-8.31Zm-21.53,7.88c1.577.61,13.542,5.2,15.42,5.92l16.1,52.53-7.64,1.619c-.93.027-4.847-2.128-5.2-.38-1.323,1.795,14.286,4.467,14.76,5.041l2.97,9.69-42.97-9.95,16.98-11.76c1.82-.732-4.59-8.138-4.71-8.991l-2.17-4.96c-.342-.478-1.283-3.729-2.02-3.8a1.025,1.025,0,0,0-.82.089l-14.93,8.841-.47-1.27,7.99-10.281a1,1,0,0,0-1.58-1.229l-7.21,9.28-1.76-4.821a1,1,0,0,0-1.88.69l2.22,6.091a.958.958,0,0,0,.39,1.08l.55,1.5c-5.653,3.34-15.41,9.117-21.09,12.48l-30.01-6.95c-.539-.194-50.532,12.055-51.06,12.069l2.73-8.429a1,1,0,0,0,.05-.38c-.483-.463-.328-20.032-2.35-18.8-2.148-.968.744,18.284.339,18.741l-2.469,7.619-6.28-12.589a1,1,0,0,0-1.79.89l7.22,14.479-2.17,10.571c-2.574.5-21.9,4.258-24.93,4.85-.722.036-22.422,21.954-22.98,22.27l2.83-12.53c-.576-.238,20.239-22.224,12.9-19.07l-3.651,4.5-6.71,3.32c4.817-21.335,10.59-46.9,15.4-68.18.171-.077,2.25-.94,2.49-1.04l52.02-21.65,14.8,16.229a1,1,0,0,0,.74.331c1.972-1.215,9.267-13.234,10.89-15.04,1.922.818-2.012,37.064-.93,38.569-.1.625,8.357.187,8.69.311a1,1,0,0,0,1-1c.276-1.895-7.055-.678-7.91-1l1.86-34.661h.01l.01-.229c.065-.062,3.814-3.276,3.87-3.34.387.537,10.842,15.012,11.53,15.969a.988.988,0,0,0,1.38.231c.231-.119,15.036-16.474,15.23-16.641Zm-16.5,49.61c.288,2.318,17.941-9.124,18.68-8.97.266.591,1.766,4.023,1.98,4.54-.428.7-22.257,10.388-20.661,12.039.118,2.389,20.794-10.424,21.441-10.259l1.86,4.27-16.06,12.62c-6.433-1.5-18.656-4.321-24.98-5.791,10.315-6.1,24.6-14.564,34.99-20.709l.63,1.44C378.788,534.908,359.533,543.476,361.25,544.991Zm28.1,21.12L414.81,572c0,.024,7.464,28.876,7.47,28.909L389.79,618.7c-27.913-15.764-61.632-34.942-89.68-50.7-1.1-.253-27.631,1.6-28.19.74-2.957-.62-9.371-1.956-12.37-2.581-.247-1.229-1.255-4.854-.59-6.04l51.48-12.279Zm-185.06,34.38c.013.48,14.319,15.318,14.54,15.709l-30.89-11.24L179.78,554.3c-1.807.694-5.026,1.936-6.8,2.62,1.723,11.686,4.916,33.4,6.63,45.009l-12.9-4.689a5.376,5.376,0,0,0-.93-.14l.46-14.01.03-1.08,1.05.29c.088.1,5.738,6.377,6.02,6.689,2.33,2.035,2.59-5.508,3.22-6.309.169-.377-.489-2-.55-2.38l-4.22-14.56c-.078-1.012-4.3-1.509-4.92-1.88l.23-7.141-6.05-6.78-.62,12.1-12.59-3.55c-.663-.4-26.44,11.059-27.081,11.1-.7.255-32.86,44.1-33.369,44.54H84.56l33.83-60.89,25.4-8.86s11.616,3.658,11.62,3.65c.335.145,3.7,2.454,4.03,2.32a1,1,0,0,0,.52-1.85c-2.016-1.244-9.338-5.786-11.22-6.95l1.88-6.65h5.75c.761.546,4.519,9.747,6.06,8.42,1.92-.656-4.271-8.571-4.35-9.46l.85-1.81h4.85c1.814,5.39,4.538,15.4,6.63,20.7.5,1.311,1.909.3,2.63-.2,3.915-2.445,28.5-17.893,32.09-20.219l4.22,4.46c-.46.676-20.209,5.846-18.791,7.629a1.02,1.02,0,0,0,1.281.621c3.293-1.107,21.071-7.63,24.12-8l1.77,3.45c0,.01-1.244,5.48-1.24,5.49l-23.13,4.05-9.14,1.6a1,1,0,0,0,.34,1.97c5.926-1.629,24.531-2.631,30.88-3.01-.02.06-7.49,33.241-7.52,33.29-.011.08-3.622,16.018-3.64,16.11A1.057,1.057,0,0,0,204.29,600.491ZM185.8,604.18l-4.05-1.47c-1.9-12.878-4.673-31.733-6.56-44.5.706-.268,2.293-.882,3.01-1.159C180.141,569.1,183.858,592.134,185.8,604.18Zm-24.22-25.54c-1.2-.344-4.454-1.212-5.7-1.569-.591-.265-29.8,7.554-30.381,7.56-2.112,2.679-2.089,7.1-3.569,10.9-.608-.234-1.635-1.065-2.27-.48-.066.063-4.094,3.116-4.15,3.19a.818.818,0,0,0-.2.219c0,.01-.01.01-.01.021a.882.882,0,0,0-.11.29c-.481.974,4.135,3.981,4.56,4.59-4.962,17.749-10.812,38.835-14.95,53.49-2.47.829-17.23,3.369-27.07,4.96L76,633.93l-.07-1.079c9.244-12.4,36.21-48.581,45.86-61.52l25.84-10.82c6.125,1.727,16.385,4.621,22.39,6.32l.19.66c-3.083-.815-6.852-1.825-9.92-2.65l-3.08-.82a1,1,0,0,0-.52,1.929c4.518,1.168,9.63,2.645,14.16,3.75l1.92,6.621c-.335-.362-1.084-1.882-1.59-2.01l-4.6-1.72c-1.109-.417-3.478-1.307-4.6-1.73-.835-.309-2.6-.972-3.43-1.28a1,1,0,0,0-.71,1.87c3.914,1.472,8.417,3.148,12.34,4.63,1.207,1.756,3.161,4.629,4.37,6.349-.159.678-.787,3.114-.97,3.831C167.484,579.673,170.311,581,161.58,578.64Zm2.71,2.82c-.016.385-.47,14.471-.5,15.41l-3.13-.359c.108-2.116.718-13.987.82-15.831C161.959,580.814,163.849,581.339,164.29,581.46ZM133.33,598c4.151,1.747,11.33,4.763,15.53,6.53l-6.47.85c-2.5-1.206-15.865-7.637-18.63-8.971,1.3-4.649,2.3-8.22,2.79-9.989l29.05-7.36,3.9,1.079c-.117,2.361-.694,13.569-.82,16.141-.905.041-19.971-2.653-20.05-1.981C137.844,594.939,130.487,595.939,133.33,598ZM81.74,621.72l-6.02,8.071-.43-6.02,3.46-1.76Zm-1.91-1.83,1.1-3.759H85.9l-2.54,3.42ZM162.4,562.6l.4-7.7,2.28,2.559-.19,5.841Zm-33.16-79.32-6.35-7.071c-1.238-1.254-2.091,1.067-2.58,1.861l-.62-11.25c.69,0,2.232-6.027,2.51-6.49.843,2.761,1.486,2.626,2.45,1.47.57-1.181,9.76-16.96,15.85-27.38.371-.421,0-26.546.13-27.052.285-.565-4.241-4.711-4.47-5.169H285.41c-.238.5-3.005,3.451-2.83,4.011.044.309.714,24.673.82,24.969-.222.565-1.084,1.473-.75,2.121,5.983,15,9.1,17.558,6.06,34.52-.695-1.186-8.144,11.058-8.54,11.209-.535.7.183,1.407.66,1.88l-50.39,20.98c-.279-.826,3.2-29.9,2.3-30.548L223.7,461.291l-11.34-12.54c-.585-1.158-46.7,5.917-47.542,5.609-1.705.451-4.973,15.626-10.579,32.41-.869,2.841-1.739,5.67-2.579,8.42L129.19,484.8A1.208,1.208,0,0,0,129.24,483.281Zm-9.08-49.5c11.023,2.044,1.079,18.409-6.85,17.459C102.832,448.9,112.423,433.215,120.16,433.781Zm-1.68-1.841.33-7.72,3.95,2.681-1.25,5A8.393,8.393,0,0,0,118.48,431.94Zm-4.88,21.311c8.2-.035,16.827-11.395,12.03-18.841l9.89-20.089a1,1,0,0,0-.06-.99l-5.63-8.631c-2.41-3.653-7.109-10.933-9.59-14.649l1.59-.25c5.2,5.567,11.617,12.415,16.8,17.96V433.64c-9.23,15.79-13.11,22.511-14.74,25.431-1.693-6.451-3.27-.632-4.08,2.119-.671-9.552-2.264-7.092-6.37.811l-.11-8.76A2.437,2.437,0,0,0,113.6,453.251Zm47.02-100.26-8.91-3.68c4.521-10.033,7.68-7.1-1.82-13.52,5.509-8.9,6.7-5.409.81-14.7,9.221-8.2,6.641-4.356,6.09-16.371,10.945-2.738,8.513-.1,9.91-11.239.3-.143,9.579,1.234,9.489.64l10.4-7.28,10.15,3.609c2.607-.12,11.932-2.367,14.4-2.74l7.34,7.381c-.138.529,8.048.35,8.34.45,1.454,9-1.043,7.639,8.32,9.56.048,10.68-3.233,8.538,5.32,13.57-2.029,10.987-4.678,8.033,5.18,14.469-3.831,11.625-4.088,7.59,3.58,16.8l-5.48,10.331c-9.044-1.2-6.921-2.287-10.27,6.1l-14.15,2.281c-.178-.671.443-6.934-.45-7.2l-10.2-6.73c.065-.3,4.851-15.383,4.86-15.679a.561.561,0,0,0-.02-.361s0-.025-.01-.02a.247.247,0,0,0-.05-.139c0-.02,0-.03-.01-.04h-.01a.046.046,0,0,0-.03-.051.685.685,0,0,0-.17-.23c-.015-.019-4.308-3.937-4.33-3.959.013-.424,6.252-12.176,5.43-12.36l-6.67-12.64c-.732-1.821-5.892,2.436-6.84,2.54-.66-1.264-2.122-4.118-2.76-5.351-.791-.66-2.5-7.314-4.31-5.27-2.826,3.25-7.122,8.2-9.93,11.441-.549.068-8.692-1.869-8.88-1.09-.819.7.591,8.592.46,9.51-2.087-.37-1.8,2.328.18,2.03l2.27,25.35c-.173,1.892,8.382.218,9.23.529l-1.55,10.661-11.17,3.23c-.269-.791-.425-2.7-1.72-2.26l-12.61,4-2.24-1.351C157.737,362.293,162.546,353.369,160.62,352.991Zm18.37-25.26c-.236,1.954,5.33.724,6.23,1.05a1,1,0,0,0,0-2h-2.19a3.142,3.142,0,0,0,.02-3.44h2.98a1,1,0,0,0,0-2c-.6-.017-8.295.067-8.6-.11l-.03-.271,1.37-.9c.847-.383,9.013.479,8.71-1.37.048-.8.077-2.164-1.08-2.06-.986.306-8.912.109-9.25,1.5l-.41-4.63c2.68.531,6.276,1.3,7.67,1.159a.921.921,0,0,0,.32-.129c.9-.176,7.424-8.054,9.62-10.911,1.422,2.732,3.728,7.21,5.16,9.981.722,1.84,5.9-2.427,6.85-2.53l3.45,6.53-6.25-1.981a.8.8,0,0,0-.34-.049c-.83.395-10.046-.53-9.69,1.359-.048.8-.078,2.2,1.1,2.08l8.56-.8,5.81,1.3c-1.4.99-10.152,1.288-11.9,1.469a1,1,0,0,0-.81,1.47,3.107,3.107,0,0,0,.04,3.98c-1.446,2.966,7.069.511,7.97.831a1,1,0,0,0-.19-1.99l-2.59.25a3.063,3.063,0,0,0-.33-2.841c1.439-.268,10.913.014,8.77-3a.983.983,0,0,0,.75-.379l1.62,3.069-5.56,11.681c-.815,1.129,3.973,4.241,4.39,4.97l-5.93,7.06c-5.661.265-20,.927-25.47,1.19l-1.84-20.54A3.116,3.116,0,0,0,178.99,327.731Zm-1.33-3.9c0-.018-.051-.553-.05-.57l.35.04A2.454,2.454,0,0,0,177.66,323.831Zm9.61,37.079a.92.92,0,0,0,.15-.4l1.22-8.391h16.73c.979.26,3.134-4.717,3.64-5.21-3.888,12.346-3.849,6.925,8.31,15.911.01.183-.02,6.962.01,7.139L200.3,384.481,181.73,362.91C182.158,362.674,187.189,361.439,187.27,360.91Zm-27.39,8.921c1.806,3.948,7.647,16.623,9.55,20.76-7.613,4.8-4.331,3.523.2,9.369-4.871.034-20.018.177-25.13.22l7.93-27.99S159.874,369.823,159.88,369.831Zm7.45,24.65c.531-.788,5.1-2.575,4.27-3.96-1.136-2.464-10.157-22.089-11.06-24.03.928-.293,10.53-3.34,11.73-3.72.168.593.546,1.917.72,2.53.123.4,9.782,34.135,9.9,34.54l-10.57.089Zm7.67-29.44,4.66-1.48,19.77,22.98c.653,2.315,19.5-15.978,20.19-15.91l14.68-2.37L220.19,400.18l-35.12.01Zm62.16,1.669c.258-.573.954-2.123,1.19-2.679l11.74,3.72c-.219.368-.68,1.152-.89,1.52-1.1,1.737-3.209,5.015-4.34,6.79v.01L235.7,390.4c-1.092,1.413,3.642,3.337,4.2,4.08l-5.22,5.69-12.3.009Zm.24,33.461c4.715-6.055,8.012-4.771.5-9.511,1.775-2.775,7.2-11.259,8.89-13.889v-.01l3.67-5.74c0-.009,9.585,3.111,9.59,3.11L266.3,400.2H237.37Zm24.51-26.91c.439-1.125-9.888-3.591-10.39-4,.418-.8,1.893-2.51.37-3.04l-13.79-4.37a.973.973,0,0,0-.73.059l.18-.45c.839-.183,7.267,1.65,7.63.361l6.13-11.54c1.049-.815-6.209-7.755-6.43-8.42,3.041-11.038,5.839-7.86-4.33-14.53,1.7-10.517,4.934-8.153-3.88-13.371-.126-11.413,3.852-9.9-6.99-12.109-1.334-10.8.128-7.891-10.07-8.461-.364-.152-7.945-8.57-8.34-7.75-2.12.416-11.826,2.382-14.12,2.841-15.048-5.424-8.565-4.638-21.81,3.79-12.011-.608-10.113-4.072-11.5,8.7-12.667,3.186-8.638-.043-8.32,13.111-7.812,7.849-9.265,3.886-2.86,14.01-5.325,9.245-8.463,6.4,1.22,12.93-6.265,11.829-6.65,8.209,5.07,13.449l-3.33,8.811c-.557,1.215,1.928,1.944,2.55,2.49-.117.4.736,1.857.86,2.23-.5.34-8.575,2.241-8.38,3.129L142.4,400.2h-8.11l-11.36-12.149c-.482-.752-3.637.269-4.31.23-2.51-2.713-2.969-2.288-6.42-2.25V268.541H296.28v122.81c-.613.09-2.318-.276-2.71.389l-6.6,8.46H269.19Zm28.43,97.66c2.546,1.382,13.7,7.433,16,8.69-.142.258-1.294,2.462-1.46,2.779h-.01c-.338.671-6.725,12.841-7.29,13.921-1.1-1.207-14.68-16.094-15.32-16.79l6.08-8.75.47-.68ZM201.91,525.66c-1.325.152-7.21.834-8.65,1,1.318-2.549,7.228-13.991,8.42-16.29l.23-.139v-.011c.317-.44,10.806-6.221,10.22-7-.145-.579.362-6.928-.37-7.161-.484-.644-4.225.668-4.85.66l4.02-7.5c.666.431,5.819,20.672,7.609,19.2,2.384.329-6.771-21.432-6.458-22-.081-.2-6.47-20.092-6.541-20.3l16.36-3.059a1,1,0,0,0,.46-.25c.007,0,8.6,9.542,8.61,9.55l-2.62,30.39c-.552.338-2.35.66-2.43,1.479l-4.33,19.151Zm19.21-.21-2.71,11.99c-.476-.644-.976-2.929-2.16-2.53l-4.79,1.2-5.44-5.75c-.878-1.126-3.3,1.368-4.11,1.64v-4.33Zm-55.37-17.929-5.02-1.79c1.244-3.336,10.16-27.014,11.62-30.9l2.7.309c.912-.035,9.033,4.332,9.47,2.531.229-.894,2.176-3.253.5-3.78l-9.01-2.83c-.517-.256-2.054.679-2.54.8l2.07-5.51h27.97l6.54,20.28-5.93,11.04c-.973,2.99,4.994.284,6.01.4v4.6c-5.759,3.649-15.2,9.592-20.95,13.23-4.872-1.735-16.593-5.929-21.32-7.62v-.01Zm9.74-34.331.27-.119,7.58,2.389-.25.531C182.9,475.932,175.681,473.226,175.49,473.19Zm12.99,48.391c.527,1.061,9.07-8.3,9.52-8.441.023.4-8.483,15.236-7.31,15.3.153,1.051,8.608-.681,9.22-.54v5.36l-25.59,16.12-1.79,1.12v.01l-.61.379-2.9-9.029c1.238-5.41,4.507-19.727,5.79-25.33ZM152.91,497.97c4.27-14.022,9.8-32.03,12.8-41.709l45.52-5.78,9.68,10.729-16.74,3.141H174.85c-1.21.048-1.235,1.9-1.71,2.72l-2.21,5.879a.982.982,0,0,0-.36.96c-1.88,5.063-10.455,27.666-12.11,32.241-.54,1.536,5.352,2.487,6.04,3.05,1,.354,2.867,1.018,3.87,1.38a1.057,1.057,0,0,0,.17.26l4.26,4.45-.12.4c-7.034.488-24.575,1.869-25.71,2.061C147.81,514.781,150.12,507.131,152.91,497.97Zm19.58,19.73-2.32,10.151L169,517.96C170.2,517.87,171.37,517.791,172.49,517.7Zm164.13-47.609c.4.571,5.976,8.6,6.55,9.43-.475.524-14.343,15.729-15.31,16.79-1.27-2.427-7.628-14.539-8.76-16.7C322.961,477.524,332.67,472.234,336.62,470.091Zm-1.77-1.31c-.3.2-17.565,9.475-17.8,9.709-1.4,1.206-4.805,4.145-6.241,5.38-.758-1.466-1.576-4.193-2.57-5.489-.039-.07-17.562-9.537-17.63-9.59l1.09-8.51c.46.392,4.366,6.253,5.08,5.93h31.34c.863.317,4.191-5.631,4.7-6.03Zm-1.62-19.28c-.141.375-.846,7.462-.9,7.75-1.076.9-3.511,2.911-4.61,3.82H296.56c-1.1-.909-3.514-2.908-4.59-3.8l-.03-.5-.47-6.95c.011-.378-6.7-16.477-6.79-16.83.242-.441,1.122-2,1.36-2.43.385.8,3.016,6.085,3.47,7.009a1,1,0,0,0,1.89-.439v-12.82c.741.832,4.364-1.779,5.1-1.94l11.15.289c1.857.075.567-3.275.66-4.2.394-1.855-12.349-.235-13.04-.59-.83-.222-3.382,4.357-3.87,4.77V407.731c.12-.183,4.389-5.457,4.48-5.66h33.3l4.3,5.639v14.341c-.519-.5-1.879-3.927-2.82-3.8l-12.83-.579c-1.58-.195-1.074,3.148-1.37,3.98a1,1,0,0,0,.99,1.1l11.92-.051c.525.147,3.551,2.049,4.11,1.67v12.761a1.01,1.01,0,0,0,1.89.47c.407-.761,3.186-6.018,3.66-6.9.214.481.79,1.776.99,2.24Zm-38.09-28.68.68-.96,10.61-.26.12,1.03C305.805,420.74,295.4,419.956,295.14,420.821Zm35.39.22c.072-.62-11.565-.206-11.97-.29l.12-1.041,11.35.51Zm.79-27.69,8.77,13.1-1.34,21.02c-.493-.109-3,5.324-3.27,5.641-.211-.629.387-25.843-.2-26.339-.4-.379-4.957-7.1-5.611-6.7H295.41c-1.963,1.19-4.186,4.972-5.79,6.679-.654.524.009,25.445-.22,26.1-.758-.693-2.315-7.224-4.13-4.981l-.68-21.369c.842-1.074,2.533-3.249,3.35-4.3h.01c1.811-2.321,5.055-6.485,6.9-8.849ZM180.55,141.561H364.64V273.22H298.28c-.4-.915.956-6.839-1-6.679H210.17c-.5-.665,1.175-21.692-1-20.911H180.55ZM60.92,306.43v-58.8H208.17v18.91c-.992.937-98.2-1.828-97.968,1l0,38.892Zm54.48,81.6,1.48,1.359c-3.484-.417-8.12-.94-11.61-1.359Zm-18.62,1.02c5.946.691,16.3,1.9,22.14,2.589,4.043,6.185,10.482,16.071,14.56,22.31l-9.34,18.99a7.737,7.737,0,0,0-.73-.409c.79-4.141,4-14.037,4.261-18.27-3.237-5.428-8.848-14.883-12.021-20.22-.315-.75-2.223-.548-2.83-.721-.442-.109-2.152-.19-2.62-.28l-.66-.07-15.32-1.679Zm-22.19,22.24,1.58-12.6,15.78-5.629c3.414.374,19.137,2.1,22.23,2.43,2.594,4.364,8.883,14.936,11.56,19.439l-2.47,9.9c-2.176-1.493-6.56-4.428-8.75-5.85l1.26-15.93a.99.99,0,0,0-.26-.851h.02c-.421-.727-3.483.056-4.12-.01v.01l-.7.071c-.316-1-.1-4.3-.87-5.041.04-.722-10.532,2.509-10.84,2.46-.069.04-20.148,5.084-20.23,5.111-.956-.039-2.33,5.607-2.75,6.149Zm39.11-7.31-.76,9.62-2.52-9.29Zm-4.97-1.511-5.78-1.739,5.45-1.42ZM76.59,450.611c-.01,0-.01-.01-.02,0l-11.49-4.54,12.1-32.47h3.13c.363.06,7.3,2.687,7.679,2.629,1.1.17,1.809-2.987,2.271-3.59a1,1,0,0,0-.67-1.379L80.73,409c-.5-.193-1.655.569-2.11.709l1.16-3.1,19.46-4.921,9.15,2.77c.02.1,4.125,15.238,4.13,15.331-.045.492,4.023,2.822,4.35,3.13l-.42,9.6c-6.351,2.472-11.969,10.962-8.75,17.409l-15.86,6.7C88.04,455.137,80.388,452.116,76.59,450.611ZM79.3,411.6l1.27-.57,7.37,1.87-.48,1.09C86.359,413.681,80.375,411.214,79.3,411.6Zm21.28,45.39-9.61,7.6-8.05-2.99.46-1.54C94.43,464.421,89.894,463.019,100.58,456.991Zm-18.22,6.53c.337.061,8.45,3.269,8.789,3.2,1.291-.144,17.714-14.063,18.7-14.51a6.412,6.412,0,0,0,1.48.691l.16,13a1.01,1.01,0,0,0,1.5.86c.081.369,4.218-7.289,4.29-7.331l1.17,21.28-29.5,5.361-10.4-9.54ZM69,480.22l5.29-4.889c2.165,1.554,11.9,11.784,14.53,12.8.179-.055,30.888-5.567,31.03-5.65.595-.046,2.13-3.518,2.48-3.9l4.97,5.53-2.56,5.109c-.1.021-40.758,7.308-40.85,7.331-3.926-4.108-11.4-11.948-15.26-15.98ZM35.14,668.571c-.59-28.824-.621-98.187-1.86-126.01-.068-.058-.117-.152-.21-.171a.514.514,0,0,0-.09-.059.266.266,0,0,1-.1-.04c-2.993-2.073-.982,38.638-1.73,38.94H10.59l1.33-7.62c.608-.444,18.47,1.094,17.57-1,.938-2.083-16.688-.565-17.22-1l12.15-69.55,43.61-19.22c.331.263,14.639,15.489,15.03,15.66.689.539,41.782-7.5,42.521-7.4.931.025,2.238-3.992,2.709-4.51l22.79,10.529c-1.227,4.616-7.691,23.4-6.03,22.6,2.309.333,11.456-1.037,21.96-1.609l1.84,15.549-1.02,4.46c-.493-.663-1.979-8.43-3.32-8.07h-6.22c-1.033-.13-1.549,2.259-1.98,2.85-10.113-.236-6.474-.414-9.56,8.33-.563.251-27.7,9.629-29.38,10.25-.963.216-34.5,62.089-35.1,62.65-.762.113-2.824-.411-3.05.72l-1.61,5.49c-.546.641-4.677,1.675-4.37,2.91.456,6.2,2.182,33.055,2.57,39.78a1.008,1.008,0,0,0,1.15.929c29.15-4.679,29.39-5.409,29.63-6.109.388-4.374,12.124-36.12,15-42.661l-1.83,50.731a1,1,0,0,0,.96,1.029l15.01.651-.37.97Zm105.49,9.29c-1.271,1.19-8.827,8.242-10.27,9.589l4.72-12.48c2.386.126,5.8.315,8.17.44Zm-4.81-4.85.41-1.071c1.579-.021,3.912-.014,5.48-.03l-.39,1.391C139.836,673.216,137.319,673.1,135.82,673.011Zm14.8.79c-1.575-.088-5.744-.315-7.26-.391l.43-1.509,7.08-.031Zm12.37.659-10.37-.559.27-2.04,10.35-.05Zm14.66.781-12.67-.67.27-2.77,12.68-.07Zm13.6.729-11.6-.619.29-3.631,11.53-.049Zm1.99.111.23-4.421,9.1-.049c.021.136-.04,4.838.02,4.97Zm30.02,3.609,3.72,13.161-20.5-14.06Zm-18.73-3.01c.117-.206,0-4.861.04-5.079l8.75-.04.66,5.629Zm10.8-5.129,5.62-.03,1.74,6.13-6.68-.36Zm-74.7-5.74c-2.3-.1-16.24-.7-18.83-.81-1.088-.3,4.731-62.163.072-56.081l-5.742,14.831c1.82-6.5,3.66-13.1,5.3-18.96L136.64,617.7a1.016,1.016,0,0,0,.7.23c.721-.041,32.828-1.691,34.5-1.779L225.13,661.2l.35,8.27Zm114.11-5.861-22.36-2.679c-1.479-1.079-6.233-4.491-7.64-5.5v-.01c-.626-.194-51.851-37.852-52.6-37.63-1.351.068-34.333,1.78-34.512,1.779l-9.7-8.23,8.69,5.53c8.162.787-19.571-14.113-18.72-14.28l2.49-1.919c4.234,2.034,17.18,8.27,21.4,10.3a1.119,1.119,0,0,0,.57.09l10.42-1.37a1,1,0,0,0,.86-.86c1.1-1.28-16.056-7.173-17.13-8.011.81-.178,2.325-.871,3.06-1.059l1.06.119,17.94,2.071c2.065.241,5.075.579,7.14.82.683-.1,13.64,4.99,14.23,5.069,5.607,2.041,35.719,12.988,41.91,15.241l1.61,1.719c10.806,10.467,4.914,10.639,17.46,5.221l13.82,5.02Zm0-30.7-11.18-4.071c1.578-.573,9.506-4.764,11.18-3.98Zm0-11.2c-6.994,3.1-15.231,6.744-22.23,9.85-2-2.132-7.367-7.879-9.28-9.92l-.02-.19c-.6-.148-16.076-17.205-16.56-17.54,3.262-3.2,20.35-19.927,23.98-23.48,4.394-.852,21.213-4.132,25.27-4.91.982-.055,42.615-1.843,43.6-1.891l22.48,18.281L259.05,616.14l-1.91.841C256.85,617.112,255.063,617.907,254.74,618.051Zm2,57.609v-8.529h22.5Zm106.26.431-21.01-8.96H363Zm-106.26-10.96v-42.64c20.093-10.909,51.872-26.854,72.96-35.49,12.19,6.347,28.153,19.21,39.42,26.959-.182,3.649-2.5,49.142-2.61,51.171ZM365,680.761v-13.63c.859-.147,3.438.535,3.46-.95l.27-5.251H398Zm89.4-11.02-8.42-8.811h8.76Zm.44-12.89a.982.982,0,0,0,.25.809l-.18,1.27H368.83l2.47-48.389c.5.1,17.935,10.451,18.479,10.309.616.189,33.6-18.483,34.142-18.559a1,1,0,0,0,.489-1.12c0-.015-7.832-30.283-7.83-30.3-3.461-11.286-17.916-58.46-21.64-70.62.353-.881-11.641-4.584-11.97-5l7.21-3.23,12.8,9.27,33.83,2.75,13.51-8.8,40.52,18.37c.76,8.933,4.466,53.175,5.16,61.42l-1.37.22c-.463.065-25.972,4.1-26.4,4.189-.451-.524,6.622-31.434,4.211-30.629a1.014,1.014,0,0,0-1.161.82l-5.14,30.14h-.02c0,.043-.1.685-.1.71C463.666,597.642,457.351,639.141,454.84,656.851Zm10.6-58.05.57-4.02v3.97Zm.57,1.96v2.4l-1.34,1.121.48-3.45Zm12.05,33.66c-.355.323-19.463,18.559-20.42,19.469l6.61-46.659c11.081-9.584,8.343-1.283,5.67-20.611l23.89-8.96c.461,9.575,1.422,30.16,1.89,39.941L478.83,633.68Zm47.66,62.87h-7.41l3.82-40.27,8.67.59Zm37.39-43.14s-.521,3.253-.52,3.259c-23.807-1.519-58.783-3.747-82.9-5.27l-.73-15.67,12.63.67c.8-.14,6.749.484,7.18-.439l11.81-18.12,5,.27c.3.921-1.391,8.446.55,8.309,12.75,1.075,33.818,5.1,46.44,6.79-.609,3.665-1.555,9.247-2.15,12.861l-9.02-.47a1,1,0,0,0-.11,2l12.64.74Zm2.42-2.431c-.053-.792,1.162-4.021.1-4.489l4.65-.3Zm72.29-11.129H563.49c.4-2.359,1.429-8.509,1.81-10.78.05,0,16.514.895,16.56.889,1.82.219.942-6.044,1.32-6.9.343.3,5.293,6.7,5.81,6.3h25.85c3.071.838-6.66-28.937-6.129-29.54-1.208-2.843-6.11-14.233-7.251-16.881.753-.488,3.738-.84,3.1-2.31l-8.92-22.1,10.71-5.73a1.012,1.012,0,0,0,.41-1.351l-6.95-12.99a1.023,1.023,0,0,0-.59-.49c-.4-.443-5.75,2.879-6.2,2.99.092-.982,4.278-6.034,2.48-6.789L582.49,528c-.92-.523-1.486.554-1.79,1.25l-2.15-1.111c.142-1.334-1.293-1.32-2.22-1.159-10.331-5.354-30.69-15.818-40.72-21.16-.272-1.436-2.581-13.71-2.79-14.76,20.979-2.4,14.077,2.621,13.87-20.33.739-.572,33.769-7.506,34.069-8.709,1.489-3.222,4.492-9.716,5.971-12.931.3.047,4.007.725,4.42.8L586.3,466.4a1,1,0,0,0,.96,1.279c1.258,1.048,5.456-17.152,5.87-17.439l5.35.959c.359.579-4.472,20.188-2.221,19.44,1.869,1.526,3.69-18.758,4.191-19.079l5.12.92c.116.562-.208,4.727.38,5.05.21.507-1.7,14.838-.5,14.669-24.892,3.737-17.452,40.16,6.73,33.131l.16.98c-4.431.7-3.953.851-3.02,4.93-.479.522-2.093,1.183-1.83,2.1.048.218,1.461,7.576,1.51,7.779l3.25,16.85c.142,1.157,2.092.778,2.85.92.524.834.489,6.779,2.33,6.241.286-.195,8.7-1.56,8.7-1.98.266.263,3.6,7.568,3.98,7.379l4.14,2.13,5.53,25.77Zm-20.65-101.58,6.09.35.66.65.34,1.649L618,542.97Zm23.41,9.379c-1.66-.359-5.39-.93-6.53-1.1-2.171-1.86-7.987-8.571-10.29-9.911-2.14-.11-7.612-.457-9.69-.559l-1.21-6.27c.772-.533,9.944-1,9.23-2.86-.029-2.008-8.73,1.1-9.61.9l-1.4-7.26,8.59-5.41a1,1,0,0,0-1.07-1.69l-7.93,4.989-1.09-5.659c1.312-1.011,5.6-4.315,6.97-5.381,1.112.265,21.89,5.417,23.65,5.851l17.49,22.939ZM671.9,614.3c-13.39-7.53-27.41-16.141-28.55-18.04-1.48-12.14-1.847-34.348-1.57-46.27l3.13-2.081,5.21,19.831a1,1,0,0,0,1.93-.5l-5.38-20.509c.5-.334,4.344-2.9,4.94-3.3.708.366,8.333,21.2,9.959,19.511,2.358.014-8.5-19.989-8.269-20.63l5.48-3.66c.648.167,11.238,22.707,12.539,20.63,2.535.078-11.135-21.219-10.869-21.75l2.26-1.51,26.74,39.74ZM300.57,160.62H188.65a1,1,0,0,0-1,1v36.81a1,1,0,0,0,1,1h21.4v9.5a1,1,0,0,0,.63.931,1,1,0,0,0,1.1-.25l9.51-10.181h79.28a1,1,0,0,0,1-1V161.62A1,1,0,0,0,300.57,160.62Zm-1,36.81H220.85a1,1,0,0,0-.73.311l-8.07,8.66V198.43a1,1,0,0,0-1-1h-21.4V162.62H299.57ZM88.11,426.261a1,1,0,0,1-.73,1.209l-6,1.5,1.95,3.9a.993.993,0,0,1-.9,1.441.992.992,0,0,1-.89-.55l-2.51-5.01a1,1,0,0,1-.01-.861.976.976,0,0,1,.67-.549l7.21-1.81A1,1,0,0,1,88.11,426.261Zm-1.14-163.51a14.28,14.28,0,1,0,14.28,14.28A14.3,14.3,0,0,0,86.97,262.751Zm0,26.56a12.28,12.28,0,1,1,12.28-12.28A12.3,12.3,0,0,1,86.97,289.311Zm6.65-12.28a1,1,0,0,1-1,1H86.97a1,1,0,0,1-1-1v-9.19a1,1,0,0,1,2,0v8.19h4.65A1,1,0,0,1,93.62,277.031Zm.79,150.45a.992.992,0,0,1,1.27-.62l1.16.4a2.988,2.988,0,0,1,.08-4.581l-.78-.27a.983.983,0,0,1-.63-1.259,1,1,0,0,1,1.27-.63l7.72,2.63a1,1,0,0,1,.46.33l1.9,2.4a1,1,0,0,1-.17,1.41,1.016,1.016,0,0,1-.62.21,1,1,0,0,1-.78-.381l-1.71-2.17-1.85-.629a3.084,3.084,0,0,1,.08.68,2.983,2.983,0,0,1-2.87,2.99l3.66,1.27a1.011,1.011,0,0,1,.61,1.28,1,1,0,0,1-.94.669.983.983,0,0,1-.33-.059l-6.91-2.4A.993.993,0,0,1,94.41,427.481ZM253.5,187.261H210.22a1,1,0,0,1,0-2H253.5a1,1,0,0,1,0,2ZM171.77,479.45a.993.993,0,0,1,.65-1.25l2.63-.83a1,1,0,0,1,.59,0l6.68,2.011a1,1,0,0,1-.29,1.96,1.551,1.551,0,0,1-.29-.04l-2.33-.71v.01a2.44,2.44,0,0,1,.03.539,2.814,2.814,0,0,1-1.34,2.25l1.88.52a1.005,1.005,0,0,1-.27,1.971.871.871,0,0,1-.27-.04l-6.8-1.881a1.01,1.01,0,0,1-.7-1.229,1,1,0,0,1,1.23-.7l.96.26a2.77,2.77,0,0,1-.04-2.52l-1.07.33A.984.984,0,0,1,171.77,479.45Zm266.7-17.8a1.01,1.01,0,0,1-.96,1.039l-9.25.381h-.04a1.028,1.028,0,0,1-.79-.371l-2.98-3.76a1,1,0,1,1,1.56-1.25l2.67,3.361,8.75-.361A.991.991,0,0,1,438.47,461.651Zm-.28,3.539a1,1,0,0,1-1,1h-6.12a1,1,0,0,1,0-2h6.12A1,1,0,0,1,438.19,465.19Zm1.42-23.929a1,1,0,0,1,.85-1.13l4.29-.63a1.072,1.072,0,0,1,.72.17l.89.63a.988.988,0,0,1,.25,1.389c-.01.02-.03.03-.04.041v.01a2.875,2.875,0,0,1,.22,1.1,2.828,2.828,0,0,1-.9,2.08l-.01.009a.989.989,0,0,1-.8.9l-3.49.66a1.108,1.108,0,0,1-.19.02,1,1,0,0,1-.18-1.99l.92-.17a2.836,2.836,0,0,1-.43-1.51,2.65,2.65,0,0,1,.15-.891l-1.12.161a.682.682,0,0,1-.14.009A1,1,0,0,1,439.61,441.261Zm138.36,115.55.09.05-.01.1Zm-40.54-73.73a1,1,0,0,1-.89,1.1l-5.95.651h-.11a1,1,0,0,1-.11-1.99l5.95-.651A1.011,1.011,0,0,1,537.43,483.081Zm.51-3.34a1,1,0,0,1-.89,1.1l-9.86,1.1a.448.448,0,0,1-.11.01.17.17,0,0,1-.07-.01.962.962,0,0,1-.61-.26l-1.14-1.06-1.92-1.779a1,1,0,1,1,1.36-1.46l1.08,1,1.64,1.52.06-.011,9.35-1.029A1,1,0,0,1,537.94,479.741ZM434.5,456.331a1,1,0,0,1,.88-1.111l4.62-.53c-1.84-4.119-3.77-8.669-3.77-9.51a1,1,0,0,1,1-1,1.008,1.008,0,0,1,1,.951c0,.02.01.029.01.049.21.921,2.24,5.7,4.14,9.94a1.019,1.019,0,0,1-.04.9.985.985,0,0,1-.76.5l-5.97.689h-.12A.994.994,0,0,1,434.5,456.331ZM539,470.851a1,1,0,0,1-.19,1.269l-.83.741-2.59,2.319a.993.993,0,0,1-.67.25.993.993,0,0,1-.82-1.569,1.248,1.248,0,0,1,.15-.181l2.81-2.5-.06-.089-2.24-3.631a1,1,0,0,1,1.71-1.05l2.57,4.181Zm-110.74-23.18h-4.64a1,1,0,0,1,0-2h2.16a2.929,2.929,0,0,1-.42-1.531,3,3,0,0,1,.2-1.079l-3.01.22c-.03,0-.05.01-.08.01a1,1,0,0,1-.07-2l7.23-.53a.983.983,0,0,1,1.07.919,1,1,0,0,1-.39.841l.01.01a2.922,2.922,0,0,1-1.06,4.179h-.01A1,1,0,0,1,428.26,447.671ZM175.2,499.22l9.41,3.46,4.39-1.659a1,1,0,0,1,1.29.58,1.013,1.013,0,0,1-.58,1.289l-4.74,1.79a1.04,1.04,0,0,1-.35.071.828.828,0,0,1-.35-.071l-9.76-3.589a1,1,0,1,1,.69-1.871Zm33.16-11.4-3.16-6.891a1.006,1.006,0,0,0-.58-.529l-8.9-3.16a1,1,0,0,0-1.26.56l-1.01,2.44a1.021,1.021,0,0,0,.6,1.33l9.08,3.21,3.56,4.109a1.009,1.009,0,0,0,.76.351,1.1,1.1,0,0,0,.54-.16A1.011,1.011,0,0,0,208.36,487.821Zm-12.66-7.79.25-.581,7.6,2.69.37.8Zm-5.13,9.71a1.008,1.008,0,0,1,1.3-.57l.53.2a2.856,2.856,0,0,1-.24-1.129,2.819,2.819,0,0,1,1.22-2.331l-.11-.04a.983.983,0,0,1-.59-1.279,1,1,0,0,1,1.28-.6l5.46,2.02a.924.924,0,0,1,.36.23l2.58,2.58a1,1,0,0,1-1.41,1.42l-2.43-2.43-.83-.31a2.593,2.593,0,0,1,.1.74,2.8,2.8,0,0,1-1.67,2.56l3.98,1.53a1,1,0,0,1-.36,1.93,1.107,1.107,0,0,1-.36-.061l-8.23-3.159A1.013,1.013,0,0,1,190.57,489.741ZM183,486.87a1,1,0,1,1,1.22,1.59l-4.46,3.391,1.69,2.76a.992.992,0,0,1-.33,1.37,1.033,1.033,0,0,1-.52.15,1.007,1.007,0,0,1-.86-.48l-2.15-3.531a1,1,0,0,1,.25-1.319Zm135.12,23.441a2.655,2.655,0,1,1-2.65-2.651A2.654,2.654,0,0,1,318.12,510.311Zm113.31-76.47L419,432.831a1.006,1.006,0,0,0-.99.59l-3.02,6.66a.993.993,0,0,0,.91,1.41,1.031,1.031,0,0,0,.62-.21l4.25-3.321,10.5.861a1.013,1.013,0,0,0,.76-.26,1.031,1.031,0,0,0,.32-.74v-2.99A.993.993,0,0,0,431.43,433.841Zm-1.08,2.9-9.81-.811a1.043,1.043,0,0,0-.7.21l-1.35,1.06,1.05-2.319,10.81.88Zm-112.23,60.04a2.655,2.655,0,1,1-2.65-2.65A2.656,2.656,0,0,1,318.12,496.781ZM186.99,333.571a1,1,0,0,1-.06-.96l2.43-5.25a1,1,0,1,1,1.82.839l-1.78,3.831h2.21a1,1,0,1,1,0,2h-3.78A.985.985,0,0,1,186.99,333.571Zm1.83,4.28,7.18-.691L198.71,334a1,1,0,0,1,1.52,1.31l-2.98,3.45a1.008,1.008,0,0,1-.66.35l-7.58.73a.308.308,0,0,1-.1.01,1,1,0,0,1-.09-2Z" fill="#232639"/></svg>