<svg xmlns="http://www.w3.org/2000/svg" viewBox="0 0 640 300"><rect width="640" height="300" opacity="0"/><path d="M409.446,120.916,411.97,118l2.524,2.917-2.524,2.917Zm2.524-13.376,2.524-2.917-2.524-2.918-2.524,2.918ZM426.072,118l-2.524,2.917,2.524,2.917,2.523-2.917Zm0-16.294-2.524,2.918,2.524,2.917,2.523-2.917ZM440.172,118l-2.523,2.917,2.523,2.917,2.528-2.917Zm2.521-13.374-2.526-2.918-2.524,2.918,2.524,2.918ZM454.275,118l-2.523,2.917,2.523,2.917,2.524-2.917Zm0-16.294-2.523,2.918,2.523,2.917,2.524-2.917ZM468.376,118l-2.524,2.917,2.524,2.917,2.523-2.917Zm0-16.294-2.522,2.92,2.524,2.918,2.524-2.918Zm14.1,32.588-2.529,2.918,2.529,2.917L485,137.211Zm0-16.294-2.529,2.917,2.529,2.917L485,120.916Zm0-16.294-2.526,2.92,2.526,2.918L485,104.625Zm14.1,65.177-2.524,2.917,2.524,2.918L499.1,169.8Zm0-16.3-2.524,2.918,2.524,2.917,2.524-2.917Zm0-16.294-2.524,2.918,2.524,2.917,2.524-2.917Zm0-16.294-2.524,2.917,2.524,2.917,2.524-2.917Zm0-16.294-2.524,2.918,2.524,2.917,2.524-2.917Zm14.1,65.177-2.524,2.917,2.524,2.918,2.528-2.918Zm0-16.3-2.524,2.918,2.524,2.917,2.528-2.917Zm0-16.294-2.524,2.918,2.524,2.917,2.528-2.917Zm0-16.294-2.524,2.917,2.524,2.917,2.528-2.917Zm2.526-13.374-2.526-2.92-2.524,2.918,2.524,2.917Zm11.578,62.257L522.26,169.8l2.524,2.918,2.523-2.918Zm0-16.3-2.524,2.918,2.524,2.917,2.523-2.917Zm0-16.294-2.524,2.918,2.524,2.917,2.523-2.917Zm0-16.294-2.524,2.917,2.524,2.917,2.523-2.917Zm0-16.294-2.524,2.918,2.524,2.917,2.523-2.917Zm14.1,65.177L536.36,169.8l2.524,2.918,2.524-2.918Zm0-16.3-2.524,2.918,2.524,2.917,2.524-2.917Zm0-16.294-2.524,2.918,2.524,2.917,2.524-2.917Zm0-16.294-2.524,2.917,2.524,2.917,2.524-2.917Zm0-16.294-2.524,2.918,2.524,2.917,2.524-2.917Zm14.1,71.011,2.523-2.918-2.523-2.917-2.528,2.917Zm0-16.294,2.523-2.917-2.523-2.918-2.528,2.918Zm0-16.294,2.523-2.917-2.523-2.918-2.528,2.918Zm0-16.295,2.523-2.917L552.987,118l-2.528,2.917Zm-2.525-19.208,2.526,2.918,2.524-2.918-2.524-2.918Zm16.626,62.257-2.524,2.917,2.524,2.918,2.523-2.918Zm0-16.3-2.524,2.918,2.524,2.917,2.523-2.917Zm0-16.294-2.524,2.918,2.524,2.917,2.523-2.917Zm0-16.294-2.524,2.917,2.524,2.917,2.523-2.917Zm0-16.294-2.524,2.918,2.524,2.917,2.523-2.917Zm14.1,65.177-2.523,2.917,2.523,2.918,2.529-2.918Zm0-16.3-2.521,2.918,2.524,2.917,2.528-2.917Zm0-16.294-2.523,2.918,2.523,2.917,2.529-2.917Zm0-16.294-2.523,2.917,2.523,2.917,2.529-2.917Zm2.526-13.374-2.526-2.918-2.521,2.918,2.524,2.918ZM411.97,91.586l2.524-2.918-2.524-2.916-2.524,2.916Zm0-16.294,2.524-2.917-2.524-2.917-2.524,2.917Zm0-16.3,2.524-2.917-2.524-2.917-2.524,2.917Zm0-16.293,2.524-2.918-2.524-2.917-2.524,2.917Zm14.1,43.048-2.524,2.916,2.524,2.918,2.523-2.918Zm0-16.293-2.524,2.917,2.524,2.918,2.523-2.918Zm0-16.3-2.524,2.917L426.072,59l2.523-2.918Zm0-16.294-2.524,2.917,2.524,2.918,2.523-2.918Zm14.1,48.882-2.523,2.916,2.523,2.918,2.528-2.918Zm0-16.293-2.523,2.917,2.523,2.918,2.528-2.918Zm0-16.3-2.523,2.917L440.172,59l2.528-2.918Zm0-16.294-2.523,2.917,2.523,2.918,2.528-2.918Zm0-16.295-2.523,2.918,2.523,2.917,2.528-2.917Zm14.1,65.177-2.523,2.916,2.523,2.918,2.524-2.918Zm0-16.293-2.523,2.917,2.523,2.918,2.524-2.918Zm0-16.3-2.523,2.917L454.275,59l2.524-2.918Zm0-16.294-2.523,2.917,2.523,2.918,2.524-2.918Zm0-16.295-2.523,2.918,2.523,2.917,2.524-2.917Zm14.1,65.177-2.522,2.915,2.524,2.918,2.524-2.918Zm0-16.293-2.524,2.917,2.524,2.918,2.523-2.918Zm0-16.3-2.524,2.917L468.376,59l2.523-2.918Zm0-16.294-2.522,2.917,2.524,2.918,2.524-2.918Zm0-16.295-2.524,2.918,2.524,2.917,2.523-2.917Zm14.1,65.177-2.529,2.916,2.529,2.918L485,88.668Zm0-16.293-2.529,2.917,2.529,2.918L485,72.376Zm0-16.3-2.529,2.917L482.479,59,485,56.081Zm0-16.294-2.529,2.917,2.529,2.918L485,39.787Zm0-16.295-2.529,2.918,2.529,2.917L485,23.493Zm14.1,65.177-2.524,2.916,2.524,2.918,2.524-2.918Zm0-16.293-2.524,2.917,2.524,2.918,2.524-2.918Zm0-16.3-2.524,2.917L496.579,59l2.524-2.918Zm0-16.294-2.524,2.917,2.524,2.918,2.524-2.918Zm14.1,48.882-2.524,2.916,2.524,2.918,2.528-2.918Zm0-16.293-2.524,2.917,2.524,2.918,2.528-2.918Zm0-16.3-2.524,2.917L510.68,59l2.528-2.918Zm0-16.294-2.524,2.917L510.68,42.7l2.528-2.918Zm14.1,48.882-2.524,2.916,2.524,2.918,2.523-2.918Zm0-16.293-2.524,2.917,2.524,2.918,2.523-2.918Zm0-16.3-2.524,2.917L524.784,59l2.523-2.918Zm0-16.294-2.524,2.917,2.524,2.918,2.523-2.918Zm14.1,48.882-2.524,2.916,2.524,2.918,2.524-2.918Zm0-16.293-2.524,2.917,2.524,2.918,2.524-2.918Zm0-16.3-2.524,2.917L538.884,59l2.524-2.918Zm14.1,38.422,2.523-2.918-2.523-2.916-2.528,2.916Zm0-16.294,2.523-2.917-2.523-2.917-2.528,2.917Zm2.518-19.212-2.522-2.917-2.529,2.917L552.983,59Zm11.583,29.672-2.524,2.916,2.524,2.918,2.523-2.918Zm0-16.293-2.524,2.917,2.524,2.918,2.523-2.918Zm28.406,97.423L592.97,169.8l2.524,2.918,2.523-2.918Zm0-16.3-2.527,2.918,2.523,2.917,2.524-2.917Zm-268.035,16.3-2.524,2.917,2.524,2.918,2.528-2.918Zm0-16.3-2.524,2.918,2.524,2.917,2.528-2.917Zm0-16.294-2.524,2.918,2.524,2.917,2.528-2.917Zm0-16.294-2.524,2.917,2.524,2.917,2.528-2.917Zm14.1,48.883-2.524,2.917,2.524,2.918,2.524-2.918Zm0-16.3-2.524,2.918,2.524,2.917,2.524-2.917Zm0-16.294-2.524,2.918,2.524,2.917,2.524-2.917Zm0-16.294-2.524,2.917,2.524,2.917,2.524-2.917Zm0-16.294-2.524,2.918,2.524,2.917,2.524-2.917Zm14.1,32.588-2.524,2.918,2.524,2.917,2.523-2.917Zm0-16.294-2.524,2.917,2.524,2.917,2.523-2.917Zm0-16.294-2.524,2.918,2.524,2.917,2.524-2.915ZM369.766,118l-2.528,2.917,2.528,2.917,2.524-2.917Zm0-16.294-2.526,2.918,2.526,2.917,2.523-2.917Zm14.1,22.128,2.524-2.917L383.867,118l-2.524,2.917Zm0-16.293,2.524-2.917-2.524-2.918-2.524,2.918Zm14.1,16.293,2.528-2.917L397.969,118l-2.524,2.917Zm0-16.293,2.526-2.917-2.526-2.918-2.524,2.918ZM341.563,85.752l-2.524,2.916,2.524,2.918,2.524-2.918Zm14.1,0-2.524,2.916,2.524,2.918,2.524-2.919Zm0-16.293-2.524,2.917,2.524,2.918,2.523-2.918Zm14.1,16.293-2.528,2.916,2.528,2.918,2.524-2.918Zm0-16.293-2.528,2.917,2.528,2.918,2.524-2.918Zm0-16.3-2.528,2.917L369.766,59l2.524-2.918Zm14.1,38.422,2.524-2.918-2.524-2.916-2.524,2.916Zm0-16.294,2.524-2.917-2.524-2.917-2.524,2.917Zm0-16.3,2.524-2.917-2.524-2.917-2.524,2.917Zm14.1,32.589,2.528-2.918-2.528-2.916-2.524,2.916Zm0-16.294,2.528-2.917-2.528-2.917-2.524,2.917Zm0-16.3L400.5,56.08l-2.528-2.917-2.524,2.917Zm0-16.293,2.528-2.918-2.528-2.917-2.524,2.917Zm14,243.061,2.524-2.918-2.524-2.916-2.524,2.916Zm0-16.295,2.524-2.918-2.524-2.916-2.524,2.916Zm0-16.294,2.524-2.918-2.524-2.916-2.524,2.916Zm14.1,26.756-2.524,2.916,2.524,2.918,2.523-2.918Zm0-16.3-2.524,2.916,2.524,2.918,2.523-2.918Zm0-16.294-2.524,2.917,2.524,2.917,2.523-2.917Zm14.1,32.589-2.523,2.916,2.523,2.918,2.528-2.918Zm0-16.3-2.523,2.916,2.523,2.918,2.528-2.918Zm0-16.294-2.523,2.917,2.523,2.917,2.528-2.917Zm14.1,32.589-2.523,2.916,2.523,2.918,2.524-2.918Zm0-16.3-2.523,2.916,2.523,2.918,2.524-2.918Zm0-16.294-2.523,2.917,2.523,2.917,2.524-2.917Zm14.1,32.589-2.524,2.916,2.524,2.918,2.523-2.918Zm0-16.3-2.524,2.916,2.524,2.918,2.523-2.918Zm0-16.294-2.522,2.918,2.524,2.918,2.524-2.918Zm14.1,32.589-2.529,2.916,2.529,2.918L485,282.848Zm0-16.3-2.529,2.916,2.529,2.918L485,266.553Zm0-16.294-2.529,2.917,2.529,2.917L485,250.26Zm14.1,32.589-2.524,2.916,2.524,2.918,2.524-2.918Zm0-16.3-2.524,2.916,2.524,2.918,2.524-2.918Zm0-16.294-2.524,2.917,2.524,2.917,2.524-2.917Zm0-16.295-2.524,2.917,2.524,2.918,2.524-2.918Zm0-16.3-2.524,2.917,2.524,2.918,2.524-2.918Zm0-16.294-2.524,2.918,2.524,2.917,2.524-2.917Zm0-16.3-2.524,2.918L496.579,188l2.524-2.916Zm14.1,97.771-2.524,2.916,2.524,2.918,2.528-2.918Zm0-16.3-2.524,2.916,2.524,2.918,2.528-2.918Zm0-16.294-2.524,2.917,2.524,2.917,2.528-2.917Zm0-16.295-2.524,2.917,2.524,2.918,2.528-2.918Zm0-16.3-2.524,2.917,2.524,2.918,2.528-2.918Zm0-16.294-2.524,2.918,2.524,2.917,2.528-2.917Zm0-16.3-2.524,2.918L510.68,188l2.528-2.916Zm14.1,81.476-2.524,2.916,2.524,2.918,2.523-2.918Zm0-16.294-2.524,2.917,2.524,2.917,2.523-2.917Zm0-16.295-2.524,2.917,2.524,2.918,2.523-2.918Zm0-16.3-2.524,2.917,2.524,2.918,2.523-2.918Zm0-16.294-2.524,2.918,2.524,2.917,2.523-2.917Zm0-16.3-2.524,2.918L524.784,188l2.523-2.916Zm14.1,81.476-2.524,2.916,2.524,2.918,2.524-2.918Zm0-16.294-2.524,2.917,2.524,2.917,2.524-2.917Zm0-16.295-2.524,2.917,2.524,2.918,2.524-2.918Zm0-16.3-2.524,2.917,2.524,2.918,2.524-2.918Zm0-16.294-2.524,2.918,2.524,2.917,2.524-2.917Zm0-16.3-2.524,2.918L538.884,188l2.524-2.916Zm14.1,71.015,2.523-2.918-2.523-2.916-2.528,2.916Zm0-16.293,2.523-2.918-2.523-2.917-2.528,2.917Zm0-16.3,2.523-2.918-2.523-2.917-2.528,2.917Zm0-16.294,2.523-2.917-2.523-2.918-2.528,2.918Zm0-16.3,2.523-2.917-2.523-2.918-2.528,2.918Zm14.1,43.049-2.524,2.917,2.524,2.918,2.523-2.918Zm0-16.3-2.524,2.917,2.524,2.918,2.523-2.918Zm0-16.294-2.524,2.918,2.524,2.917,2.523-2.917Zm0-16.3-2.524,2.918L567.088,188l2.523-2.916Zm14.1,32.592-2.523,2.917,2.523,2.918,2.529-2.918Zm0-16.294-2.521,2.92,2.524,2.917,2.528-2.917Zm0-16.3-2.523,2.918L581.189,188l2.529-2.916Zm14.305,114.063-2.524,2.917.528.61c.7-1.14,1.375-2.3,2.051-3.464ZM327.459,182.161l-2.524,2.918L327.459,188l2.528-2.916Zm14.1,32.592-2.524,2.917,2.524,2.918,2.524-2.918Zm0-16.294-2.524,2.918,2.524,2.917,2.524-2.917Zm0-16.3-2.524,2.918L341.563,188l2.524-2.916Zm28.2,65.182-2.528,2.917,2.528,2.917,2.524-2.917Zm14.1,22.127,2.524-2.918-2.524-2.916-2.524,2.916Zm0-16.294,2.524-2.918-2.524-2.916-2.524,2.916Zm14.1,16.294,2.528-2.918-2.528-2.916-2.524,2.916Zm0-16.294,2.528-2.918-2.528-2.916-2.524,2.916Zm-68.743-50.92.761-.879-1.732-2Q328.726,200.824,329.226,202.256ZM383.867,42.7l2.524-2.918-.8-.919q-1.623,1.038-3.219,2.114Zm39.681-19.211,2.524,2.917,2.523-2.917-1.932-2.234c-.5.123-1,.239-1.5.368Zm70.507,0,2.524,2.917,2.524-2.917-.513-.592q-1.608-.476-3.234-.912ZM581.64,91.066q-.954-1.8-1.955-3.576l-1.019,1.178,2.523,2.918Zm14.513,43.99-.659-.763-2.524,2.918,2.524,2.917,1.169-1.352Q596.432,136.909,596.153,135.056Zm-3.183,50.023,1.417,1.637q.476-2.136.884-4.3Z" fill="#eee0fa"/><path d="M355.876,145.853l22.065-20.6H459.9l22.065,20.6v101.42H355.876V145.853" fill="#eee0fa"/><ellipse cx="136.197" cy="260.967" rx="4.728" ry="4.754" fill="#232639"/><ellipse cx="136.197" cy="286.322" rx="4.728" ry="4.754" fill="#232639"/><path d="M49.515,266.721a1,1,0,0,1-1-1v-9.508a1,1,0,1,1,2,0v9.508A1,1,0,0,1,49.515,266.721Z" fill="#232639"/><path d="M66.852,266.721a1,1,0,0,1-1-1v-9.508a1,1,0,1,1,2,0v9.508A1,1,0,0,1,66.852,266.721Z" fill="#232639"/><path d="M84.188,266.721a1,1,0,0,1-1-1v-9.508a1,1,0,0,1,2,0v9.508A1,1,0,0,1,84.188,266.721Z" fill="#232639"/><path d="M49.515,292.076a1,1,0,0,1-1-1v-9.508a1,1,0,0,1,2,0v9.508A1,1,0,0,1,49.515,292.076Z" fill="#232639"/><path d="M66.852,292.076a1,1,0,0,1-1-1v-9.508a1,1,0,0,1,2,0v9.508A1,1,0,0,1,66.852,292.076Z" fill="#232639"/><path d="M84.188,292.076a1,1,0,0,1-1-1v-9.508a1,1,0,0,1,2,0v9.508A1,1,0,0,1,84.188,292.076Z" fill="#232639"/><ellipse cx="461.471" cy="158.53" rx="4.728" ry="4.754" fill="#232639"/><ellipse cx="461.471" cy="183.885" rx="4.728" ry="4.754" fill="#232639"/><path d="M374.789,164.284a1,1,0,0,1-1-1v-9.508a1,1,0,0,1,2,0v9.508A1,1,0,0,1,374.789,164.284Z" fill="#232639"/><path d="M392.125,164.284a1,1,0,0,1-1-1v-9.508a1,1,0,0,1,2,0v9.508A1,1,0,0,1,392.125,164.284Z" fill="#232639"/><path d="M409.461,164.284a1,1,0,0,1-1-1v-9.508a1,1,0,0,1,2,0v9.508A1,1,0,0,1,409.461,164.284Z" fill="#232639"/><path d="M374.789,189.639a1,1,0,0,1-1-1v-9.508a1,1,0,1,1,2,0v9.508A1,1,0,0,1,374.789,189.639Z" fill="#232639"/><path d="M392.125,189.639a1,1,0,0,1-1-1v-9.508a1,1,0,1,1,2,0v9.508A1,1,0,0,1,392.125,189.639Z" fill="#232639"/><path d="M409.461,189.639a1,1,0,0,1-1-1v-9.508a1,1,0,1,1,2,0v9.508A1,1,0,0,1,409.461,189.639Z" fill="#232639"/><ellipse cx="461.471" cy="209.24" rx="4.728" ry="4.754" fill="#232639"/><path d="M374.789,214.994a1,1,0,0,1-1-1v-9.508a1,1,0,0,1,2,0v9.508A1,1,0,0,1,374.789,214.994Z" fill="#232639"/><path d="M392.125,214.994a1,1,0,0,1-1-1v-9.508a1,1,0,0,1,2,0v9.508A1,1,0,0,1,392.125,214.994Z" fill="#232639"/><path d="M409.461,214.994a1,1,0,0,1-1-1v-9.508a1,1,0,0,1,2,0v9.508A1,1,0,0,1,409.461,214.994Z" fill="#232639"/><ellipse cx="461.471" cy="234.595" rx="4.728" ry="4.754" fill="#232639"/><path d="M374.789,240.349a1,1,0,0,1-1-1v-9.508a1,1,0,0,1,2,0v9.508A1,1,0,0,1,374.789,240.349Z" fill="#232639"/><path d="M392.125,240.349a1,1,0,0,1-1-1v-9.508a1,1,0,0,1,2,0v9.508A1,1,0,0,1,392.125,240.349Z" fill="#232639"/><path d="M409.461,240.349a1,1,0,0,1-1-1v-9.508a1,1,0,0,1,2,0v9.508A1,1,0,0,1,409.461,240.349Z" fill="#232639"/><ellipse cx="30.365" cy="34.281" rx="1.683" ry="1.693" fill="#232639"/><ellipse cx="35.505" cy="34.281" rx="1.683" ry="1.693" fill="#232639"/><ellipse cx="40.644" cy="34.281" rx="1.683" ry="1.693" fill="#232639"/><rect x="118.259" y="90.892" width="27.683" height="16.263" fill="#eee0fa"/><rect x="80.44" y="90.892" width="27.683" height="16.263" fill="#eee0fa"/><rect x="42.621" y="90.892" width="27.683" height="16.263" fill="#eee0fa"/><path d="M70.305,108.155H42.621a1,1,0,0,1-1-1V90.892a1,1,0,0,1,1-1H70.305a1,1,0,0,1,1,1v16.263A1,1,0,0,1,70.305,108.155Zm-26.684-2H69.305V91.892H43.621Z" fill="#232639"/><path d="M108.123,108.155H80.441a1,1,0,0,1-1-1V90.892a1,1,0,0,1,1-1h27.682a1,1,0,0,1,1,1v16.263A1,1,0,0,1,108.123,108.155Zm-26.682-2h25.682V91.892H81.441Z" fill="#232639"/><path d="M145.943,108.155H118.259a1,1,0,0,1-1-1V90.892a1,1,0,0,1,1-1h27.684a1,1,0,0,1,1,1v16.263A1,1,0,0,1,145.943,108.155Zm-26.684-2h25.684V91.892H119.259Z" fill="#232639"/><path d="M151.024.348A146.753,146.753,0,0,0,62.474,29.9h102.28v22.41H25.6l-.38,18.61a147.417,147.417,0,0,0,12.305,170.9L52.667,227.69h81.954l22.065,20.6v46.764A147.407,147.407,0,0,0,151.024.348Zm13.73,115.207H25.582v-34.7H164.754Z" fill="#eee0fa"/><path d="M482.905,145.589a1.26,1.26,0,0,0-.026-.128,13.875,13.875,0,0,0-.227-.325l-.009-.014-22.065-20.6a1,1,0,0,0-.682-.269H448.009V65a1,1,0,0,0-1-1H165.754V29.9a1,1,0,0,0-1-1H25.582a1,1,0,0,0-1,1v85.652a1,1,0,0,0,1,1H60.463V226.69h-7.8a1,1,0,0,0-.682.269l-22.065,20.6s-.006.01-.01.014a1,1,0,0,0-.187.266c-.011.02-.029.035-.038.056a.989.989,0,0,0-.083.4V299a1,1,0,0,0,1,1H156.687a1,1,0,0,0,1-1V248.29a1,1,0,0,0-.062-.3.763.763,0,0,0-.02-.095.871.871,0,0,0-.081-.12,1.021,1.021,0,0,0-.144-.2s-.006-.011-.011-.015l-22.065-20.6a1,1,0,0,0-.683-.269h-10.85V116.555h40.983a1,1,0,0,0,1-1v-5.41h220.7v14.108h-8.511a1,1,0,0,0-.683.269l-22.065,20.6-.009.013a.99.99,0,0,0-.2.287c-.006.013-.018.022-.023.035a.986.986,0,0,0-.084.4v101.42a1,1,0,0,0,1,1H481.96a1,1,0,0,0,1-1V145.853A.993.993,0,0,0,482.905,145.589Zm-392.26,81.1H62.463V116.555H90.645Zm65.042,45.953-124.084,0V249.291H155.687ZM31.6,298V274.645l124.084,0V298ZM154.15,247.29H33.138l19.924-18.6h81.165Zm-61.505-20.6V116.555h29.126V226.69Zm71.109-112.135H26.582v-32.7H163.754Zm0-34.7H26.6V53.313H163.754Zm0-28.545H26.582v-10.8H163.754Zm0-12.8H26.582V30.9H163.754Zm2,42.344V66H446.009v58.25h-26.9v-37.3a1,1,0,0,0-1-1H165.754Zm0,27.287V87.955H417.11v36.3H388.453V109.145a1,1,0,0,0-1-1Zm212.582,18.108H459.5l19.921,18.6H358.413ZM480.96,246.273H356.876V222.917H480.96Zm0-25.357H356.876V197.562H480.96Zm0-25.355H356.876V172.208H480.96Zm0-25.354H356.876V146.853H480.96Z" fill="#232639"/><ellipse cx="244.647" cy="109.23" rx="7.105" ry="7.144" fill="#fff"/><ellipse cx="308.806" cy="87.026" rx="7.105" ry="7.144" fill="#fff"/><ellipse cx="61.465" cy="179.119" rx="7.105" ry="7.144" fill="#fff"/><path d="M244.777,117.29a8.144,8.144,0,1,1,8.1-8.144A8.134,8.134,0,0,1,244.777,117.29Zm0-14.288a6.144,6.144,0,1,0,6.1,6.144A6.132,6.132,0,0,0,244.777,103Z" fill="#232639"/><path d="M308.986,95.1a8.144,8.144,0,1,1,8.105-8.144A8.134,8.134,0,0,1,308.986,95.1Zm0-14.288a6.144,6.144,0,1,0,6.105,6.144A6.132,6.132,0,0,0,308.986,80.812Z" fill="#232639"/><path d="M61.465,187.263a8.144,8.144,0,1,1,8.1-8.144A8.133,8.133,0,0,1,61.465,187.263Zm0-14.288a6.144,6.144,0,1,0,6.1,6.144A6.131,6.131,0,0,0,61.465,172.975Z" fill="#232639"/></svg>