<?xml version="1.0" encoding="utf-8"?>
<!-- Generator: Adobe Illustrator 26.0.2, SVG Export Plug-In . SVG Version: 6.00 Build 0)  -->
<svg version="1.1" id="Warstwa_1" xmlns="http://www.w3.org/2000/svg" xmlns:xlink="http://www.w3.org/1999/xlink" x="0px" y="0px"
	 viewBox="0 0 800 800" style="enable-background:new 0 0 800 800;" xml:space="preserve">
<style type="text/css">
	.st0{fill:#CEE7FD;}
	.st1{fill:#007BFF;}
	.st2{opacity:0.3;}
	.st3{fill:#FFFFFF;}
	.st4{fill:#DAE8FF;}
	.st5{fill:#005BEA;}
	.st6{fill:#7185A3;}
	.st7{fill:#3199F0;}
	.st8{opacity:0.2;}
</style>
<g>
	<g>
		<path class="st0" d="M334.7,289.8c-101.6,58.7-101.5,153.9,0.2,212.6c101.7,58.8,266.6,58.8,368.3,0.1
			c101.6-58.7,101.5-153.9-0.2-212.6C601.2,231.2,436.3,231.1,334.7,289.8z"/>
		<g>
			<path class="st1" d="M485.7,537.4L485.7,537.4c-32.7,19-77.9,16.3-127.8-12.5c-99.7-57.6-180.6-197.7-180.6-313
				c0-57.6,20.2-98.1,52.8-117l0,0l0.1,0c0,0,0,0,0,0l49.2-28.4v0c32.7-19,77.9-16.4,127.8,12.5c99.7,57.6,180.6,197.7,180.6,313
				c0,57.6-20.2,98.2-52.9,117.1l0,0L485.7,537.4z"/>
			<path class="st2" d="M210.8,245.5c16.9,9.8,32.2,10.7,43.3,4.2c11.1-6.4,17.9-20.2,17.9-39.7c0-37.6-25.4-83-57.4-103.8
				c-10.8,10.1-19.7,23.2-26,39.2l16.8,22.2l-24.5,4c-2.4,12.3-3.7,25.6-3.7,40.1c0,0.9,0.1,1.9,0.1,2.9
				C187,227.5,198.5,238.4,210.8,245.5z"/>
			<path class="st2" d="M485.7,537.4c32.6-18.9,52.8-59.4,52.8-117c0-115.3-80.9-255.5-180.6-313c-49.9-28.8-95-31.5-127.7-12.6
				l49.2-28.4v0c32.7-19,77.9-16.4,127.8,12.5c99.7,57.6,180.6,197.7,180.6,313c0,57.6-20.2,98.2-52.9,117.1L485.7,537.4
				L485.7,537.4z"/>
			<path class="st3" d="M357.9,472.6c74.8,43.2,135.4,8.1,135.4-78.4c0-86.5-60.6-191.6-135.4-234.8
				c-74.8-43.2-135.5-8.1-135.4,78.4C222.5,324.3,283.1,429.4,357.9,472.6z M357.9,420.4c-49.9-28.8-90.3-98.9-90.3-156.5
				c0-57.7,40.4-81,90.3-52.3c49.9,28.8,90.3,98.9,90.3,156.5C448.2,425.8,407.8,449.2,357.9,420.4z M357.9,368.2
				c-24.9-14.4-45.1-49.4-45.1-78.3s20.2-40.5,45.1-26.1c24.9,14.4,45.2,49.4,45.2,78.3C403.1,370.9,382.8,382.6,357.9,368.2z"/>
			<path class="st4" d="M254.2,249.8c11.1-6.4,17.9-20.2,17.9-39.7c0-18.2-6-38.1-15.7-56.2c-21.1,15.4-33.9,44.3-33.9,84
				c0,4.4,0.2,8.8,0.5,13.3C235,255.3,245.8,254.6,254.2,249.8z"/>
			<g>
				<path class="st5" d="M438.5,551.2c-25,0-52.7-8.4-81.4-24.9c-100-57.8-181.4-198.8-181.4-314.5c0-56.3,19-98.4,53.6-118.4
					c0.1-0.1,0.2-0.1,0.3-0.1l49-28.3c0,0,0.1-0.1,0.1-0.1c34.6-20.1,80.6-15.6,129.3,12.6c100,57.8,181.4,198.8,181.4,314.5
					c0,56.4-19.1,98.4-53.7,118.5l-49.2,28.4C472.2,547.1,456,551.2,438.5,551.2z M231,96.2C231,96.2,231,96.2,231,96.2
					c-33.5,19.5-52,60.5-52,115.6c0,114.6,80.6,254.4,179.8,311.6c47.7,27.6,92.5,32,126.1,12.5c0,0,0,0,0,0l49.2-28.4
					c33.6-19.4,52.1-60.5,52.1-115.7c0-114.6-80.6-254.4-179.8-311.6c-47.8-27.6-92.6-32-126.2-12.5c0,0-0.1,0.1-0.2,0.1L231,96.2
					C231,96.1,231,96.1,231,96.2z"/>
			</g>
			<path class="st1" d="M36.6,462.8L36.6,462.8c-0.2-4.7,3.9-10.2,14.8-16.5c21.5-12.4,68.4-19.4,73.8-16.2l0,8.7l-77.8,45
				c-6.4-3.7-10.7-7.8-10.7-12.6V462.8z"/>
			<path class="st2" d="M47.4,475l77.8-44.9l0,8.7l-77.8,45c-6.4-3.7-10.7-7.8-10.7-12.6v-8.4l0,0C36.9,467.4,41.2,471.4,47.4,475z"
				/>
			<g>
				<path class="st5" d="M47.4,485.4c-0.3,0-0.6-0.1-0.8-0.2c-7.8-4.5-11.5-9.1-11.6-14v-8.4c0-0.1,0-0.1,0-0.2
					c-0.1-5.8,5-11.6,15.6-17.7c21.9-12.6,69.3-19.8,75.4-16.2c0.5,0.3,0.8,0.8,0.8,1.4l0,8.7c0,0.6-0.3,1.1-0.8,1.4l-77.8,45
					C47.9,485.3,47.7,485.4,47.4,485.4z M38.3,463v8.1c0,3.5,3,7,9.1,10.7l76.2-44l0-6.6c-7.7-1.8-50.7,4.6-71.3,16.5
					c-9.5,5.5-14.2,10.5-14,15C38.3,462.8,38.3,462.9,38.3,463z"/>
			</g>
			<path class="st6" d="M70.2,520.9L70.2,520.9c4,2.5,10.8,1.7,21.7-4.6c21.5-12.4,50.9-49.5,50.9-55.8l-7.5-4.4l-77.9,45
				c0,7.3,1.4,13.2,5.5,15.6L70.2,520.9z"/>
			<path class="st7" d="M70.2,520.9L70.2,520.9c4,2.5,10.8,1.7,21.7-4.6c21.5-12.4,50.9-49.5,50.9-55.8l-7.5-4.4l-77.9,45
				c0,7.3,1.4,13.2,5.5,15.6L70.2,520.9z"/>
			<path class="st2" d="M65,505.5l77.8-44.9c0,6.2-29.4,43.4-50.9,55.8C70.4,528.7,65,520.1,65,505.5z"/>
			<g>
				<path class="st5" d="M75.3,523.9c-2.2,0-4.1-0.5-5.7-1.5c-0.1,0-0.1-0.1-0.2-0.1l-7.2-4.2c-4.2-2.5-6.3-8-6.3-17
					c0-0.6,0.3-1.1,0.8-1.4l77.9-45c0.5-0.3,1.1-0.3,1.6,0l7.5,4.4c0.5,0.3,0.8,0.8,0.8,1.4c0,7.1-29.9,44.6-51.7,57.2
					C85.6,521.9,79.8,523.9,75.3,523.9z M70.8,519.4c0.1,0,0.2,0.1,0.3,0.2c3.8,2.4,10.5,0.9,20-4.6c20.6-11.9,47.7-45.9,49.9-53.5
					l-5.7-3.3l-76.2,44c0.1,7.1,1.7,11.4,4.7,13.2L70.8,519.4z"/>
			</g>
			<path class="st3" d="M41.9,512.7c-6.8-3.9-12.3-13.5-12.3-21.3c0-3.9,1.4-6.7,3.6-8l316-182.4c2.2-1.3,5.3-1.1,8.7,0.9
				c6.8,3.9,12.3,13.5,12.3,21.3c0,3.9-1.4,6.7-3.6,8l0,0l-316,182.4l0,0C48.4,514.9,45.3,514.7,41.9,512.7z"/>
			<path class="st0" d="M54.2,505.6c0-3.9-1.4-8.3-3.6-12.2l316-182.4c2.2,3.9,3.6,8.2,3.6,12.1c0,3.9-1.4,6.7-3.6,8l-316,182.4l0,0
				C52.9,512.3,54.2,509.5,54.2,505.6z"/>
			<g>
				<path class="st5" d="M47.5,516c-2,0-4.2-0.6-6.3-1.9c-7.4-4.2-13.1-14.2-13.1-22.8c0-4.4,1.5-7.7,4.4-9.4l316-182.4
					c2.9-1.7,6.5-1.3,10.4,0.9c7.4,4.3,13.1,14.3,13.1,22.8c0,4.4-1.6,7.7-4.4,9.4L51.5,515C50.3,515.7,48.9,516,47.5,516z
					 M352.4,301.8c-0.9,0-1.7,0.2-2.4,0.6L34,484.8c-1.8,1-2.8,3.4-2.8,6.6c0,7.3,5.1,16.3,11.5,19.9c0,0,0,0,0,0
					c2.7,1.6,5.3,1.9,7,0.9l316-182.4c1.8-1,2.8-3.4,2.8-6.6c0-7.3-5.1-16.3-11.5-19.9C355.4,302.3,353.8,301.8,352.4,301.8z"/>
			</g>
			<path class="st1" d="M154.1,449.3L154.1,449.3l0.1,8.2l-0.1,0c0.5,7.8-10.9,29.3-29.4,39.9c-21.5,12.4-37.1,9.7-49.7,2.3l0-8.7
				l77.8-44.9C153.8,446.5,154.1,447.7,154.1,449.3z"/>
			<path class="st2" d="M124.8,488.6c18.1-10.4,29.4-31.2,29.4-39.4c0,0,0,0,0,0h0.1v8.2l-0.1,0c0.5,7.8-10.9,29.3-29.4,39.9
				c-21.5,12.4-37.1,9.7-49.7,2.3l0-8.7C87.7,498.3,103.3,501,124.8,488.6z"/>
			<g>
				<path class="st5" d="M96.9,507.6c-7.8,0-15.2-2.2-22.7-6.5c-0.5-0.3-0.8-0.8-0.8-1.4l0-8.7c0-0.6,0.3-1.1,0.8-1.4l77.8-44.9
					c0.5-0.3,1.1-0.3,1.6,0c1.3,0.7,2,2.1,2.1,4.2c0,0.1,0.1,0.3,0.1,0.5v8.2c0,0.1,0,0.2,0,0.4c0.2,9.4-12.4,30.7-30.2,40.9
					C115.4,504.6,106,507.6,96.9,507.6z M76.7,498.7c14.7,8.2,29.8,7.3,47.3-2.8c17.6-10.1,29.1-30.9,28.5-38.3c0-0.2,0-0.4,0.1-0.5
					v-7.3c0-0.1-0.1-0.3-0.1-0.4c0-0.5,0-0.8-0.1-1.1l-75.7,43.7L76.7,498.7z M155.8,449.3L155.8,449.3L155.8,449.3z"/>
			</g>
			<path class="st1" d="M140.7,425.9L140.7,425.9l-7-4.1l0,0.1c-6.5-4.4-30.8-5.2-49.2,5.5c-21.5,12.4-26.9,27.3-26.9,41.9l7.5,4.4
				l77.8-44.9C142.9,427.6,142,426.7,140.7,425.9z"/>
			<path class="st2" d="M65,473.5l77.8-44.9c0-6.2-29.4-9.3-50.9,3.1C70.4,444.1,65,459,65,473.5z"/>
			<g>
				<path class="st5" d="M65,475.2c-0.3,0-0.6-0.1-0.8-0.2l-7.5-4.4c-0.5-0.3-0.8-0.8-0.8-1.4c0-18.6,8.8-32.4,27.7-43.3
					c17.8-10.3,42.5-10.5,50.5-5.7c0.1,0,0.2,0.1,0.3,0.1l7.1,4.1c0.1,0.1,0.3,0.2,0.4,0.3c1.8,1.1,2.7,2.5,2.6,3.9
					c0,0.6-0.3,1.1-0.8,1.4L65.8,475C65.6,475.1,65.3,475.2,65,475.2z M59.1,468.2l5.9,3.4l75.7-43.7c-0.2-0.2-0.5-0.4-0.9-0.6
					c-0.1-0.1-0.2-0.2-0.3-0.2l-6.4-3.7c-0.2,0-0.3-0.1-0.5-0.2c-6.1-4.1-29.9-4.6-47.5,5.5C67.7,438.8,59.4,451.4,59.1,468.2z
					 M142.8,428.6L142.8,428.6L142.8,428.6z"/>
			</g>
		</g>
	</g>
	<g>
		<path class="st3" d="M111.2,130.2L111.2,130.2c-3.1,1.8-5.9,4.2-8.2,7.1l46.2,60.9l-27.1,4.4l-19.1,11
			c10.9,25.9,29.9,49.9,51.5,62.4c16.9,9.8,32.2,10.7,43.3,4.2l0,0l19.1-11c0,0,0,0,0,0l0,0l0,0c11.1-6.4,17.9-20.2,17.9-39.7
			c0-39.1-27.4-86.7-61.3-106.2c-16.9-9.8-32.2-10.6-43.3-4.2l0,0L111.2,130.2z"/>
		<path class="st0" d="M154.4,205.2l-26.8-3.5l-5.5,0.9l-19.1,11c10.9,25.9,29.8,49.8,51.4,62.3L154.4,205.2z"/>
		<path class="st0" d="M111.2,130.2c11.1-6.4,26.4-5.6,43.3,4.2c33.8,19.5,61.3,67.1,61.3,106.2c0,19.5-6.8,33.3-17.9,39.7l0,0
			l19.1-11c0,0,0,0,0,0l0,0c11.1-6.4,17.9-20.2,17.9-39.7c0-39.1-27.4-86.7-61.3-106.2c-16.9-9.8-32.2-10.6-43.3-4.2l0,0
			L111.2,130.2L111.2,130.2z"/>
		<g>
			<path class="st5" d="M181.8,286c-8.7,0-18.3-2.9-28.2-8.6c-21.2-12.3-40.8-35.9-52.2-63.2c-0.3-0.8,0-1.6,0.7-2.1l19.1-11
				c0.2-0.1,0.4-0.2,0.6-0.2l24.4-4l-44.6-58.7c-0.5-0.6-0.4-1.4,0-2c2.4-2.9,5.2-5.3,8.4-7.2c0.1-0.1,0.2-0.2,0.3-0.2l19.1-11
				c0.1-0.1,0.2-0.1,0.4-0.2c12.1-6.8,27.9-5.3,44.6,4.4c34.2,19.8,62.1,68,62.1,107.6c0,19.5-6.6,34.1-18.7,41.1c0,0,0,0,0,0
				c0,0,0,0-0.1,0l-19.1,11C193.6,284.6,188,286,181.8,286z M105,214.3c11.3,26.1,30,48.6,50.3,60.3c15.8,9.1,30.7,10.7,41.7,4.3
				l19-11c0,0,0.1,0,0.1,0c11-6.4,17.1-20,17.1-38.3c0-38.5-27.1-85.5-60.4-104.8c-15.8-9.1-30.6-10.6-41.6-4.2
				c-0.1,0.1-0.2,0.1-0.4,0.2l-18.5,10.7c-0.1,0.1-0.2,0.2-0.3,0.2c-2.6,1.5-4.9,3.4-7,5.7l45.4,59.9c0.3,0.5,0.4,1.1,0.2,1.6
				c-0.2,0.5-0.7,0.9-1.3,1l-26.8,4.4L105,214.3z"/>
		</g>
		<path class="st1" d="M84.5,221.4l58.5-9.6l11.5-6.6L96,128.1l-11.5,6.6C69.9,152.6,69.9,186.6,84.5,221.4z"/>
		<polygon class="st2" points="143,211.8 154.5,205.2 96,128.1 84.5,134.7 		"/>
		<g>
			<path class="st5" d="M84.5,223c-0.7,0-1.3-0.4-1.5-1c-14.9-35.3-14.8-70,0.2-88.4c0.1-0.2,0.3-0.3,0.5-0.4l11.5-6.6
				c0.7-0.4,1.6-0.2,2.1,0.4l58.5,77.1c0.3,0.4,0.4,0.9,0.3,1.3c-0.1,0.5-0.4,0.9-0.8,1.1l-11.5,6.6c-0.2,0.1-0.4,0.2-0.6,0.2
				L84.8,223C84.7,223,84.6,223,84.5,223z M85.6,136c-13.9,17.3-13.9,50-0.1,83.6l56.9-9.3l9.6-5.5l-56.5-74.5L85.6,136z"/>
		</g>
	</g>
	<g>
		<polygon class="st0" points="665.2,603.4 479.9,652.5 531.9,669.4 541.4,687.9 558.9,688.6 580.3,710.4 		"/>
		<polygon class="st3" points="665.2,551.1 479.9,600.2 531.9,617.1 541.4,650.4 558.9,636.3 580.3,658.2 		"/>
		<polygon class="st0" points="550.9,628.1 665.2,551.1 531.9,617.1 541.4,650.4 558.9,636.3 		"/>
		<polygon points="550.9,628.1 541.4,650.4 558.9,636.3 		"/>
		<g>
			<path class="st5" d="M580.3,659.8c-0.4,0-0.9-0.2-1.2-0.5l-20.3-20.8l-16.4,13.1c-0.4,0.3-1,0.4-1.5,0.3
				c-0.5-0.2-0.9-0.6-1.1-1.1l-9.2-32.4l-51.3-16.7c-0.7-0.2-1.2-0.9-1.1-1.6c0-0.7,0.5-1.4,1.2-1.5l185.4-49.1
				c0.7-0.2,1.4,0.1,1.8,0.7c0.4,0.6,0.4,1.4-0.1,1.9l-85,107C581.3,659.5,580.8,659.8,580.3,659.8
				C580.3,659.8,580.3,659.8,580.3,659.8z M558.9,634.7c0.4,0,0.9,0.2,1.2,0.5l20,20.5L660.9,554l-175.2,46.4l46.8,15.2
				c0.5,0.2,0.9,0.6,1.1,1.1l8.8,30.8l15.6-12.5C558.2,634.8,558.6,634.7,558.9,634.7z"/>
		</g>
	</g>
	<g>
		<path class="st0" d="M127.3,652.4c-4.7-2.7-4.7-7.1,0-9.8l69.1-39.9c4.7-2.7,12.3-2.7,17,0l176.2,101.6c4.7,2.7,4.7,7.1,0,9.8
			L320.5,754c-4.7,2.7-12.3,2.7-17,0L127.3,652.4z"/>
		<path class="st1" d="M393.2,656.6v-13.1c0-1.8-1.2-3.5-3.5-4.9L213.5,537c-4.7-2.7-12.3-2.7-17,0l-69.1,39.9
			c-2.4,1.4-3.5,3.1-3.5,4.9v12.9l0,0c-0.1,1.9,1,3.7,3.5,5.2l176.2,101.6c4.7,2.7,12.3,2.7,17,0l69.1-39.9
			C392.1,660.2,393.2,658.4,393.2,656.6L393.2,656.6z"/>
		<path class="st8" d="M197.7,553.5L359.8,647c-8.6-5,1.1-14.2,5.9-22.3l-131.9-76.1C219.4,552.9,204.8,557.5,197.7,553.5z"/>
		<path class="st2" d="M389.7,638.6c4.7,2.7,4.7,7.1,0,9.8l-69.2,39.9c-4.7,2.7-12.3,2.7-17,0L127.3,586.7c-2.3-1.4-3.5-3.1-3.5-4.9
			c0,0,0,0,0,0v12.9l0,0c-0.1,1.9,1,3.7,3.5,5.2l176.2,101.6c4.7,2.7,12.3,2.7,17,0l69.1-39.9c2.4-1.4,3.5-3.2,3.5-5h0v-13.1
			C393.2,641.7,392.1,640,389.7,638.6z"/>
		<g>
			<path class="st5" d="M312,705.2c-3.4,0-6.7-0.8-9.3-2.3L126.5,601.3c-2.7-1.6-4.3-3.9-4.3-6.3c0-0.1,0-0.2,0-0.3v-12.9
				c0-2.5,1.5-4.7,4.4-6.4l69.1-39.9c5.2-3,13.4-3,18.7,0l176.2,101.6c2.8,1.6,4.4,3.9,4.3,6.3v13.1c0,0.1,0,0.1,0,0.2
				c-0.1,2.4-1.6,4.6-4.3,6.2l-69.1,39.9C318.7,704.4,315.4,705.2,312,705.2z M125.5,594.4c0,0.1,0,0.3,0,0.4
				c-0.1,1.3,0.9,2.6,2.7,3.6l176.2,101.6c4.2,2.4,11.2,2.4,15.4,0l69.1-39.9c1.7-1,2.7-2.3,2.7-3.5c0-0.1,0-0.1,0-0.2v-12.9
				c0-1.2-1-2.5-2.7-3.5L212.7,538.4c-4.2-2.4-11.2-2.4-15.4,0l-69.1,39.9c-1.7,1-2.7,2.3-2.7,3.5V594.4z"/>
		</g>
		<path class="st0" d="M332.9,594.6c-9.1-5.2-15.3,0.2-27-6.6c-13.5-7.8-13.5-32.4-27-40.2c-3.7-2.1-6.4-1.9-8.6-0.7v0l-0.1,0.1
			c0,0,0,0-0.1,0l-8.2,4.7h0c-0.1,0.1-0.2,0.2-0.4,0.3c0,0,0,0,0.1,0c-2.4,1.4-4.2,4-6.3,6.1c0.4-0.4,0.7-0.8,1.1-1.2
			c-1.3-0.1-2.8-0.6-4.5-1.6c-13.5-7.8-17.5-29.4-27-34.8c-1.9-1.1-3.6-1.1-5.1-0.2l0,0l-8.3,4.8l0,0c0,0,0,0,0,0
			c-8.9,4.7-10.5,39.8-22.1,33L351.4,652l8.5-4.9C346.4,639.3,346.4,602.4,332.9,594.6z"/>
		<g>
			<path class="st5" d="M351.4,653.6c-0.3,0-0.6-0.1-0.8-0.2l-162.1-93.6c0,0,0,0,0,0c-0.8-0.5-1.1-1.5-0.6-2.2
				c0.5-0.8,1.5-1.1,2.2-0.6h0c1.5,0.9,2.4,0.7,2.9,0.5c3.3-1.3,5.9-9.1,8.2-15.9c2.6-7.7,5-15,9.2-17.5c0.1-0.1,0.1-0.1,0.2-0.1
				l8.3-4.8c0.1-0.1,0.2-0.1,0.3-0.1c2-1.1,4.2-1,6.4,0.3c4.7,2.7,8.1,8.8,11.6,15.3c4,7.3,8.5,15.5,15.4,19.5c1.1,0.6,2.1,1,3,1.3
				c1.5-1.7,3-3.4,4.9-4.6c0.1-0.1,0.1-0.1,0.2-0.1c0.1,0,0.1-0.1,0.2-0.1l8.2-4.7c0,0,0.1,0,0.1-0.1l0.1-0.1c0,0,0.1,0,0.1-0.1
				c3.1-1.7,6.4-1.4,10.1,0.7c7.2,4.2,10.8,12.7,14.2,20.9c3.4,8.1,6.5,15.7,12.8,19.3c5.9,3.4,10.3,3.5,14.5,3.7
				c3.9,0.1,7.9,0.3,12.5,2.9c0,0,0,0,0,0c7.3,4.2,10.8,15.9,14.3,27.2c3.2,10.7,6.6,21.7,12.8,25.3c0.5,0.3,0.8,0.8,0.8,1.4
				c0,0.6-0.3,1.1-0.8,1.4l-8.5,4.9C352,653.6,351.7,653.6,351.4,653.6z M195.3,560l156.1,90.1l5.5-3.2c-5.9-5.1-9-15.5-12.1-25.6
				c-3.2-10.7-6.6-21.7-12.8-25.3c-3.9-2.2-7.2-2.3-11-2.5c-4.4-0.1-9.5-0.3-16.1-4.1c-7.2-4.2-10.8-12.7-14.2-20.9
				c-3.4-8.1-6.5-15.7-12.8-19.3c-3.6-2.1-5.6-1.4-7-0.6c0,0-0.1,0-0.1,0.1l0,0c0,0,0,0,0,0c0,0,0,0,0,0l-8,4.6c0,0-0.1,0.1-0.1,0.1
				c-0.2,0.1-0.2,0.2-0.3,0.2c0,0,0,0-0.1,0c-1.5,1-2.9,2.5-4.3,4.1c-0.1,0.1-0.2,0.3-0.3,0.4c0,0,0,0,0,0c-0.3,0.4-0.7,0.8-1,1.1
				c0,0-0.1,0.1-0.1,0.1l0,0c0,0,0,0,0,0c-0.6,0.7-1.7,0.7-2.3,0.1c-0.4-0.4-0.6-0.9-0.5-1.4c-0.9-0.3-1.7-0.7-2.6-1.2
				c-7.7-4.5-12.5-13.1-16.6-20.8c-3.3-6.1-6.4-11.8-10.4-14.1c-1.7-1-2.7-0.6-3.4-0.2c-0.1,0.1-0.2,0.1-0.3,0.1l-7.8,4.5
				c-0.1,0.1-0.2,0.2-0.4,0.2c-3.1,1.8-5.6,9.2-7.8,15.7C201.9,550.2,199.4,557.5,195.3,560z"/>
		</g>
		<path class="st3" d="M324.4,608.1c-11.8-6.8-15.3,1.4-27-5.4c-13.5-7.8-13.5-55.3-27-63.1c-2-1.2-3.8-1.1-5.3-0.1v0l-8.3,4.8l0,0
			c-7.2,4-14.1,29.7-12.9,27.5c-0.2-0.1-0.4-0.1-0.6-0.3c-13.5-7.8-13.5-25.8-27-33.6c-2.6-1.5-4.6-1.4-6.4-0.3l-8.4,4.9
			c-7.7,4.4-9.7,27.2-20.7,20.8l162.1,93.6l8.5-4.9C337.9,644.2,337.9,615.9,324.4,608.1z"/>
		<g>
			<path class="st0" d="M201.5,542.5l8.4-4.9c1.8-1.1,3.8-1.2,6.4,0.3c13.5,7.8,13.5,25.8,27,33.6c0.2,0.1,0.4,0.2,0.6,0.3
				c-2.3,4.4-5.1,6.9-9.1,4.7c-13.5-7.8-13.5-25.8-27-33.6C205.3,541.4,203.3,541.5,201.5,542.5z M324.4,608.1
				c-11.8-6.8-15.3,1.4-27-5.4c-13.5-7.8-13.5-55.3-27-63.1c-2-1.2-3.8-1.1-5.3-0.1v0l-8.3,4.8l0,0c1.5-0.8,3.1-0.8,5,0.3
				c13.5,7.8,13.5,55.3,27,63.1c11.7,6.8,15.2-1.5,27,5.4c13.5,7.8,13.5,36.1,27,43.9l8.5-4.9C337.9,644.2,337.9,615.9,324.4,608.1z
				"/>
		</g>
		<g>
			<path class="st5" d="M342.9,658.6c-0.3,0-0.6-0.1-0.8-0.2L180,564.8l0,0c-0.8-0.5-1.1-1.5-0.6-2.2c0.5-0.8,1.5-1.1,2.2-0.6l0,0
				c1.5,0.8,2.7,1.1,3.8,0.7c2.9-0.9,5.2-5.6,7.4-10.2c2.2-4.6,4.5-9.4,7.9-11.3l8.4-4.8c2.4-1.5,5.1-1.4,8,0.3
				c7.2,4.1,10.7,10.9,14.1,17.5c3.1,5.9,6,11.5,11.4,15.2c1.7-6.8,7.2-22.6,13.1-26.2c0.1,0,0.1-0.1,0.2-0.1l8.3-4.8
				c0,0,0.1,0,0.1-0.1c1.5-0.9,3.8-1.5,6.8,0.2c7.4,4.3,10.7,18,14.3,32.6c3.2,13.3,6.6,27,12.7,30.5c5.4,3.1,8.8,2.8,12.5,2.5
				c3.8-0.4,8.2-0.8,14.6,2.9l0,0c7.3,4.2,10.8,13.6,14.2,22.8c3.2,8.6,6.6,17.5,12.8,21.1c0.5,0.3,0.8,0.8,0.8,1.4
				c0,0.6-0.3,1.1-0.8,1.4l-8.5,4.9C343.5,658.5,343.2,658.6,342.9,658.6z M187.6,565.3L342.9,655l5.5-3.2
				c-5.8-4.7-8.9-13.1-12-21.2c-3.2-8.6-6.5-17.5-12.8-21.1c-5.5-3.2-8.9-2.8-12.6-2.5c-4,0.4-8.1,0.8-14.4-2.9
				c-7.4-4.2-10.7-18-14.3-32.6c-3.2-13.3-6.6-27-12.7-30.5c-1.8-1-2.8-0.6-3.6-0.2c-0.1,0-0.2,0.1-0.2,0.1l-7.9,4.6
				c-0.1,0-0.1,0.1-0.2,0.1c-5.5,3-11.4,21.8-12.1,25.7c0.1,0.4,0,0.8-0.1,1.2c-0.6,1.1-1.5,1-1.8,1c-0.4-0.1-0.8-0.3-1-0.6
				c-7.2-4.2-10.7-10.9-14.2-17.5c-3.4-6.4-6.5-12.5-12.9-16.2c-2.4-1.4-3.8-0.9-4.7-0.3l-8.4,4.9c-2.5,1.5-4.6,5.7-6.6,9.9
				C193.5,558.6,191.2,563.5,187.6,565.3z"/>
		</g>
		<path class="st0" d="M315.8,624c-11.8-6.8-15.3,2.4-27-4.4c-13.5-7.8-9.1-22.1-22.6-29.9c-13.5-7.8-19.9,0-31.4-6.8
			c-13.4-7.9-11.3-12.9-20.8-18.5c-13.5-7.9-19.7,6.6-33.2-1.2l-19.9,11.5l162.1,93.6l19.9-11.5C329.3,649.1,329.3,631.8,315.8,624z
			"/>
		<g>
			<path class="st5" d="M322.9,670c-0.3,0-0.6-0.1-0.8-0.2L160,576.2c-0.5-0.3-0.8-0.8-0.8-1.4c0-0.6,0.3-1.1,0.8-1.4l19.9-11.5
				c0.5-0.3,1.1-0.3,1.6,0c6.1,3.5,10.4,2.1,15.3,0.4c5-1.7,10.6-3.6,18,0.7c4.6,2.7,6.7,5.3,8.8,8c2.4,3.1,5,6.3,12,10.4
				c5.1,3,9,2.9,13.6,2.8c4.9-0.1,10.4-0.3,17.8,4c7.2,4.2,9.7,10,12,15.7c2.2,5.4,4.3,10.5,10.6,14.1c5.3,3.1,8.6,2.6,12.4,2
				c3.9-0.6,8.2-1.3,14.6,2.4c7.2,4.1,10.7,10.7,14.1,17.1c3.4,6.3,6.5,12.2,12.9,15.8c0.5,0.3,0.8,0.8,0.8,1.4
				c0,0.6-0.3,1.1-0.8,1.4l-19.9,11.5C323.5,670,323.2,670,322.9,670z M164.1,574.8l158.8,91.7l16.8-9.7c-5.7-4.1-8.8-10-11.8-15.6
				c-3.4-6.2-6.5-12.1-12.9-15.8c0,0,0,0,0,0c-5.4-3.1-8.9-2.6-12.5-2c-3.8,0.6-8.2,1.3-14.5-2.4c-7.2-4.2-9.7-10.1-12-15.7
				c-2.2-5.4-4.3-10.5-10.6-14.1c-6.6-3.8-11.2-3.7-16.1-3.5c-4.6,0.1-9.4,0.3-15.3-3.2c-7.5-4.4-10.4-8.1-12.9-11.2
				c-2-2.6-3.8-4.8-7.9-7.2c-6.1-3.6-10.3-2.1-15.3-0.5c-4.8,1.6-10.1,3.4-17.1-0.3L164.1,574.8z"/>
		</g>
	</g>
	<g>
		<g>
			<path class="st3" d="M681.9,340.9c4.7,2.7,8.5,9.3,8.5,14.7l0,96.1c0,5.4-3.8,7.6-8.5,4.9l-166.5-96.1c-4.7-2.7-8.5-9.3-8.5-14.8
				l0-96.1c0-5.4,3.8-7.6,8.5-4.9L681.9,340.9z"/>
			<path class="st5" d="M685.7,459.5c-1.5,0-3-0.5-4.6-1.4L514.5,362c-5.2-3-9.3-10.1-9.3-16.2l0-96.1c0-3.2,1.2-5.7,3.3-6.9
				c2.1-1.2,4.9-1,7.7,0.6l166.5,96.1c5.2,3,9.3,10.1,9.3,16.2l0,96.1c0,3.2-1.2,5.7-3.3,6.9C687.8,459.3,686.8,459.5,685.7,459.5z
				 M511.5,245.3c-0.5,0-1,0.1-1.4,0.3c-1.1,0.6-1.7,2.1-1.7,4.1l0,96.1c0,4.8,3.5,10.9,7.7,13.3l166.5,96.1c1.7,1,3.3,1.2,4.4,0.6
				c1.1-0.6,1.7-2.1,1.7-4.1l0-96.1c0-4.8-3.5-10.9-7.7-13.3c0,0,0,0,0,0l-166.5-96.1C513.4,245.6,512.4,245.3,511.5,245.3z"/>
		</g>
		<g>
			<path class="st0" d="M538,312.1l-12.5-7.2c-1.1-0.7-2-0.1-2.1,1.2l0,37.7l0,0c0,1.3,0.9,2.9,2,3.5l12.5,7.2c1.1,0.6,2,0.1,2-1.2
				l0,0v-37.7C540,314.3,539.1,312.7,538,312.1z M560.3,308.5l-12.5-7.2c-1.1-0.7-2-0.1-2,1.2l0,54.1l0,0c0,1.3,0.9,2.9,2.1,3.5
				l12.5,7.2c1.1,0.7,2.1,0.1,2-1.2l0,0l0-54.1C562.3,310.8,561.4,309.2,560.3,308.5z M582.6,354.2l-12.5-7.2c-1.1-0.6-2-0.1-2,1.2
				l0,21.4l0,0c0,1.3,0.9,2.9,2.1,3.5l12.5,7.2c1.1,0.7,2,0.1,2-1.2l0,0l0-21.4C584.6,356.4,583.7,354.8,582.6,354.2z M604.9,315.5
				l-12.5-7.2c-1.1-0.7-2-0.1-2,1.2v72.9l0,0c0,1.3,0.9,2.9,2,3.5l12.5,7.2c1.1,0.7,2,0.1,2-1.2l0,0l0-72.9
				C606.9,317.8,606,316.2,604.9,315.5z M627.1,363.5l-12.5-7.2c-1.1-0.6-2.1-0.1-2,1.2v37.7l0,0c0,1.3,0.9,2.9,2,3.5l12.5,7.2
				c1.1,0.6,2,0.1,2-1.2l0,0v-37.7C629.2,365.8,628.3,364.2,627.1,363.5z M671.7,389.3l-12.5-7.2c-1.1-0.6-2.1-0.1-2.1,1.2V421l0,0
				c0,1.3,0.9,2.9,2.1,3.5l12.5,7.2c1.1,0.7,2,0.1,2-1.2l0,0l0-37.7C673.8,391.5,672.8,389.9,671.7,389.3z M649.4,360l-12.5-7.2
				c-1.1-0.7-2-0.1-2,1.2v54.1l0,0c0,1.3,0.9,2.9,2,3.5l12.5,7.2c1.1,0.7,2.1,0.1,2-1.2l0,0l0-54.1
				C651.5,362.3,650.6,360.7,649.4,360z"/>
		</g>
	</g>
	<g>
		<path class="st3" d="M639.7,214.5c-1.1-4.2-1.3-8.2-0.4-11.5c0.4,0.1,0.8,0.2,1.2,0.4l11.8-6.8c0.5-3.6,0.5-7.4,0-11.5
			c-4.6-3.6-8.8-9.3-11.3-15.8c-2.5-6.5-2.8-12.5-1.2-16.7c-1.3-1.9-2.6-3.8-4.1-5.6c-1.5-1.8-3-3.5-4.5-5.1
			c-3,2.4-7.5,2.4-12.6-0.5c-5-2.9-9.5-8.1-12.6-14c-3.1-0.4-6-0.1-8.6,0.8l-11.8,6.8c1.1,4.2,1.3,8.2,0.4,11.5
			c-0.4-0.1-0.8-0.2-1.2-0.4l-11.8,6.8c-0.5,3.6-0.5,7.4,0,11.5c4.6,3.6,8.8,9.3,11.3,15.8c2.5,6.5,2.8,12.5,1.2,16.7
			c1.3,1.9,2.6,3.8,4.1,5.6c1.5,1.8,3,3.5,4.5,5.1c3-2.4,7.5-2.4,12.6,0.5c5,2.9,9.5,8.1,12.6,14c3.1,0.4,6,0.1,8.6-0.8L639.7,214.5
			z M614.9,166.4c6.6,8.2,9.5,18.7,7.7,25.8c-4-1.1-8.5-4.2-12.4-9.1c-6.6-8.2-9.5-18.7-7.7-25.8C606.6,158.4,611,161.5,614.9,166.4
			z"/>
		<g>
			<path class="st0" d="M621,195.9c-4.6,6.5-14.6,3.8-22.5-6c-7.9-9.8-10.6-23-6-29.5c3.1-4.5,8.9-4.6,14.8-1
				c-1.6-1-3.2-1.7-4.7-2.1c-1.9,7,1.1,17.6,7.7,25.8c3.9,4.9,8.4,8,12.4,9.1c0.7-2.6,0.7-5.7,0.1-9
				C623.6,188.2,623.1,192.8,621,195.9z M640.4,191.9c0.5,4.1,0.5,7.9,0,11.5l11.8-6.8c0.5-3.6,0.5-7.4,0-11.5
				c-4.6-3.6-8.8-9.3-11.3-15.8c-2.5-6.5-2.8-12.5-1.2-16.7c-1.3-1.9-2.6-3.8-4.1-5.6c-1.5-1.8-3-3.5-4.5-5.1
				c-3,2.4-7.5,2.4-12.6-0.5c-5-2.9-9.5-8.1-12.6-14c-3.1-0.4-6-0.1-8.6,0.8l-11.8,6.8c2.6-0.9,5.5-1.1,8.6-0.8
				c3,5.9,7.5,11.1,12.6,14c5,2.9,9.5,2.9,12.6,0.5c1.5,1.6,3.1,3.3,4.5,5.1c1.5,1.8,2.8,3.7,4.1,5.6c-1.6,4.2-1.3,10.2,1.2,16.7
				C631.6,182.6,635.8,188.2,640.4,191.9z M639.7,214.5c-1.1-4.2-1.3-8.2-0.4-11.5c0.4,0.1,0.8,0.2,1.2,0.4
				c-4.6-1.7-8.8-0.9-11.3,2.7c-2.5,3.6-2.8,9.3-1.2,15.2L639.7,214.5z M585.9,146.4c-0.4-0.1-0.8-0.2-1.2-0.4l-11.8,6.8
				c4.6,1.7,8.8,0.9,11.3-2.7C585,149.1,585.5,147.9,585.9,146.4z"/>
		</g>
		<g>
			<path class="st5" d="M621.9,223.9c-0.9,0-1.9-0.1-2.9-0.2c-0.5-0.1-1-0.4-1.3-0.9c-3-5.8-7.3-10.7-11.9-13.3
				c-4.2-2.4-8.1-2.7-10.7-0.7c-0.7,0.5-1.6,0.5-2.2-0.1c-1.7-1.8-3.3-3.5-4.6-5.2c-1.3-1.7-2.7-3.5-4.2-5.8c-0.3-0.4-0.4-1-0.2-1.5
				c1.5-4,1-9.6-1.2-15.5c-2.3-6-6.3-11.5-10.8-15.1c-0.3-0.3-0.6-0.7-0.6-1.1c-0.5-4.2-0.5-8.2,0-11.9c0.1-0.5,0.4-0.9,0.8-1.2
				l11.8-6.8c0.2-0.1,0.5-0.2,0.8-0.2c0.4-2.7,0.1-5.8-0.7-9.1c-0.2-0.7,0.1-1.5,0.8-1.8l11.8-6.8c0.1-0.1,0.2-0.1,0.3-0.1
				c2.9-1,6-1.2,9.3-0.8c0.5,0.1,1,0.4,1.3,0.9c3,5.8,7.4,10.7,11.9,13.3c4.2,2.4,8.1,2.7,10.7,0.6c0.7-0.5,1.6-0.5,2.2,0.2
				c1.7,1.8,3.3,3.5,4.6,5.2c1.3,1.7,2.7,3.5,4.2,5.8c0.3,0.4,0.4,1,0.2,1.5c-1.5,4-1,9.6,1.2,15.5c2.3,6,6.3,11.5,10.8,15.1
				c0.3,0.3,0.6,0.7,0.6,1.1c0.5,4.2,0.5,8.3,0,11.9c-0.1,0.5-0.4,0.9-0.8,1.2l-11.8,6.8c-0.2,0.1-0.5,0.2-0.8,0.2
				c-0.4,2.7-0.1,5.7,0.7,9.1c0.2,0.7-0.1,1.5-0.8,1.8l-11.8,6.8c-0.1,0.1-0.2,0.1-0.3,0.1C626.4,223.5,624.2,223.9,621.9,223.9z
				 M620.3,220.5c2.5,0.2,4.8,0,6.9-0.7l10.6-6.1c-0.9-4.1-0.9-7.9-0.1-11.1c0.1-0.4,0.4-0.8,0.8-1c0.4-0.2,0.8-0.3,1.3-0.2
				c0.2,0.1,0.4,0.1,0.6,0.2l10.5-6c0.3-3,0.3-6.2,0-9.6c-4.8-3.9-8.9-9.7-11.3-16c-2.4-6.2-3-12.4-1.5-17c-1.3-1.9-2.4-3.4-3.6-4.9
				c-1.1-1.3-2.2-2.6-3.5-4c-3.6,2-8.3,1.6-13.1-1.2c-4.9-2.8-9.5-7.9-12.8-13.9c-2.5-0.2-4.8,0-6.9,0.7l-10.6,6.1
				c0.9,4.1,0.9,7.9,0.1,11.1c-0.1,0.4-0.4,0.8-0.8,1c-0.4,0.2-0.8,0.3-1.2,0.2c-0.2-0.1-0.4-0.1-0.6-0.2l-10.5,6
				c-0.3,3-0.3,6.2,0,9.6c4.8,4,8.9,9.8,11.3,16c2.4,6.2,3,12.4,1.5,17c1.3,1.9,2.4,3.4,3.6,4.9c1,1.3,2.2,2.6,3.5,4
				c3.6-2,8.3-1.6,13.1,1.2C612.4,209.5,617,214.5,620.3,220.5z M622.6,193.8c-0.1,0-0.3,0-0.4-0.1c-4.6-1.3-9.3-4.7-13.2-9.7
				c-6.7-8.4-10-19.6-8-27.2c0.1-0.4,0.4-0.8,0.8-1c0.4-0.2,0.8-0.3,1.3-0.2c4.6,1.3,9.3,4.7,13.2,9.7h0c6.7,8.4,10,19.6,8,27.2
				c-0.1,0.4-0.4,0.8-0.8,1C623.2,193.7,622.9,193.8,622.6,193.8z M603.8,159.4c-0.9,6.6,2.1,15.6,7.7,22.6c3.1,3.8,6.5,6.6,9.9,8
				c0.9-6.6-2.1-15.6-7.7-22.6c0,0,0,0,0,0C610.6,163.6,607.2,160.8,603.8,159.4z"/>
		</g>
	</g>
	<g>
		<path class="st3" d="M72.6,327.9c5.7-5.7,14.9-5.7,20.5,0c5.7,5.7,5.7,14.9,0,20.5c-5.7,5.7-14.9,5.7-20.5,0
			C66.9,342.8,66.9,333.6,72.6,327.9z"/>
		<path class="st0" d="M88.3,343.7c4.8-4.8,5.5-12.2,2.1-17.8c1,0.6,1.9,1.3,2.7,2.1c5.7,5.7,5.7,14.9,0,20.5
			c-5.7,5.7-14.9,5.7-20.5,0c-0.8-0.8-1.5-1.7-2.1-2.7C76.1,349.2,83.5,348.5,88.3,343.7z"/>
		<g>
			<path class="st5" d="M82.8,354.3c-4.3,0-8.4-1.7-11.4-4.7c-3.1-3-4.7-7.1-4.7-11.4c0-4.3,1.7-8.4,4.7-11.4l0,0
				c3-3.1,7.1-4.7,11.4-4.7c4.3,0,8.4,1.7,11.4,4.7c3.1,3,4.7,7.1,4.7,11.4c0,4.3-1.7,8.4-4.7,11.4
				C91.2,352.7,87.1,354.3,82.8,354.3z M82.8,325.3c-3.4,0-6.7,1.3-9.1,3.8c0,0,0,0,0,0c-2.4,2.4-3.8,5.7-3.8,9.1s1.3,6.7,3.8,9.1
				c2.4,2.4,5.7,3.8,9.1,3.8c3.4,0,6.7-1.3,9.1-3.8c2.4-2.4,3.8-5.7,3.8-9.1s-1.3-6.7-3.8-9.1C89.5,326.7,86.3,325.3,82.8,325.3z
				 M72.6,327.9L72.6,327.9L72.6,327.9z"/>
		</g>
	</g>
</g>
</svg>
