<svg xmlns="http://www.w3.org/2000/svg" viewBox="0 0 700 545"><rect width="700" height="545" opacity="0"/><path d="M444.074,480.676A62.525,62.525,0,1,1,506.6,543.2a62.524,62.524,0,0,1-62.525-62.525h0" fill="#e6f0fc"/><path d="M485.168,287.076H695.049V496.957H485.168Z" fill="#98b7fc"/><polygon points="652.21 496.511 695.341 495.887 695.341 489.094 644.865 468.047 646.603 466.528 628.543 450.438 585.71 482.977 575.183 491.113 572.525 482.977 572.524 482.977 572.524 482.976 552.28 459.769 533.698 471.737 535.546 475.471 485.636 496.511 652.21 496.511" fill="#dfecfc"/><path d="M619.1,420.671c-2.541-.257-4.927-1.747-6.576-5.074l-.738.147-8.61-70.624-68.194-5.639c0,4.2-5.025,97.078-5.025,97.078l26.348,1.683-1.534,14.632c1.573-1.448,4.63-2.431,8.144-2.431,5.121,0,9.271,2.082,9.271,4.66s-4.151,4.66-9.271,4.66c-3.861,0-7.17-1.187-8.565-2.875l-.492,4.7,18.662,21.393h0l2.658,8.135h0l10.527-8.135,42.331-32.157.487-37.257C625.985,418.381,622.556,421.02,619.1,420.671Z" fill="#f6e8d5"/><path d="M578.287,316.71l-30.715,2.811L523.978,331.3l-1.2,23.388L533.4,372.637l.3-6.3,2.442-1.394,19.382,3.04v-4.66l-21.536-2.988,1-20.845,68.19,5.639,7.114,58.319a72.071,72.071,0,0,1,.4-7.732c1.079-10.671,5.17-19.382,9.861-21.993v-39.3Z" fill="#e0b086"/><path d="M636.914,314.974l-56.468-12.413-18.435,9.384,27.291-4.868L632.988,328.2,624.271,373c5.776,1.066,9.379,13.853,8.072,26.776a38.056,38.056,0,0,1-3.8,13.769l-.111,22.261L655.814,358.4Z" fill="#e0b086"/><path d="M570.875,368.917h20.1l7.537,7.9-7.537-12.561h-20.1Z" fill="#e0b086"/><path d="M498.722,171.606A100.254,100.254,0,1,1,598.976,271.859,100.253,100.253,0,0,1,498.722,171.606" fill="#dfecfc"/><path d="M666.405,142.424v89.721h-54.6v25.616l-23.893-25.616H393.565V142.424Z" fill="#f7f5eb"/><path d="M257.15,30.627v89.722h54.6v25.616l23.893-25.616H529.99V30.627Z" fill="#f7f5eb"/><rect x="327.369" y="254.252" width="133.239" height="63.525" fill="#c6d4f4"/><path d="M145.776,482.42l1.867,2.144-1.867,2.145-1.866-2.145ZM143.91,495.8l1.866,2.143,1.867-2.143-1.867-2.146Zm10.424,23.957L156.2,521.9l1.866-2.145-1.866-2.145Zm-10.424,0,1.866,2.145,1.867-2.145-1.867-2.145ZM133.485,495.8l1.867,2.143,1.868-2.143-1.868-2.146Zm31.273,23.957,1.868,2.145,1.866-2.145-1.866-2.145Zm-10.424-35.195,1.866,2.145,1.866-2.145L156.2,482.42Zm10.424,23.217,1.868,2.144,1.866-2.144-1.866-2.146ZM154.334,495.8l1.866,2.143,1.866-2.143-1.866-2.146Zm0,11.979,1.866,2.144,1.866-2.144-1.866-2.146Zm-18.982-21.072,1.863-2.143-1.863-2.146-1.867,2.144Zm-1.867,21.072,1.867,2.144,1.868-2.144-1.868-2.146Zm76.375-34.9c-.023-.23-.059-.455-.086-.684l-1.525-1.754-1.866,2.146,1.866,2.143ZM113.346,483.75c.079.65.166,1.3.27,1.939l.888,1.02,1.866-2.145L114.5,482.42Zm93.433-23.6-.393.453.983,1.129C207.182,461.2,206.984,460.677,206.779,460.154Zm-72.044,58.169c.792.525,1.6,1.023,2.427,1.5l.058-.067-1.868-2.145Zm-11.672-33.759,1.867,2.144,1.866-2.145-1.866-2.143Zm.138,23.059q.878,1.127,1.817,2.2l1.778-2.042-1.866-2.145Zm-.138-11.821,1.867,2.142L126.8,495.8l-1.866-2.144Zm20.847,11.979,1.866,2.144,1.867-2.144-1.867-2.146ZM164.758,495.8l1.868,2.143,1.866-2.143-1.866-2.146Zm31.2,11.978,1.867,2.145,1.866-2.145-1.866-2.145Zm0-35.195,1.867,2.144,1.866-2.144-1.866-2.145Zm0,11.978,1.867,2.146,1.866-2.146-1.866-2.143Zm10.428,0,1.866,2.145,1.3-1.492c.057-.377.095-.759.144-1.138l-1.446-1.661Zm.187,11.454q.162-.4.316-.8l-.506.583Zm-10.615-47.395,1.867,2.145,1.866-2.145-1.866-2.145Zm0,11.98,1.867,2.144,1.866-2.144-1.866-2.145Zm0,35.195,1.867,2.144,1.866-2.144-1.866-2.145Zm-20.774,0,1.866,2.144,1.866-2.144-1.866-2.145Zm0,11.98,1.866,2.145,1.866-2.145-1.866-2.145Zm0-23.217,1.866,2.146,1.866-2.146-1.866-2.143Zm0,35.2,1.866,2.146,1.866-2.146-1.866-2.144Zm-10.426-35.194,1.868,2.145,1.866-2.145-1.866-2.144Zm20.85,0,1.866,2.146,1.868-2.146-1.868-2.143Zm0,35.2.143.165c.826-.476,1.638-.972,2.433-1.5l-.71-.814Zm0-23.958,1.866,2.144,1.868-2.144-1.868-2.145Zm0,11.98,1.866,2.145,1.868-2.145-1.868-2.145Z" fill="#232639"/><path d="M23.514,386.68V476.4h54.6v25.616L102.009,476.4h85.915V386.68Z" fill="#f7f5eb"/><path d="M3.386,374.856H42.278V387.3l23.334-34.225V329.741H82.725l6.222,6.223v17.112L84.28,374.855h40.447l6.222,4.667v56l-6.222,4.668H57.834L42.241,429.308l.037,10.89H3.386Z" fill="#cef2cf"/><polygon points="184.158 115.089 141.591 93.695 132.283 77.263 134.613 95.752 115.477 123.628 110.946 147.545 100.772 132.082 91.061 140.416 112.533 173.439 112.062 173.325 97.327 220.827 154.89 221.492 154.894 221.493 149.227 182.306 170.336 185.182 184.158 115.089" fill="#d3c7bc"/><polygon points="212.465 68.563 175.925 67.398 142.521 47.304 126.314 54.281 112.793 29.189 61.246 29.189 40.065 50.875 35.849 130.724 65.135 191.2 61.612 201.526 94.635 191.896 105.388 167.901 102.123 164.206 104.195 160.616 102.541 158.071 101.66 159.722 97.797 155.351 99.196 152.927 91.061 140.416 100.772 132.082 110.946 147.545 115.477 123.628 134.613 95.752 132.283 77.263 133.365 79.173 133.365 79.173 141.591 93.695 184.158 115.089 182.721 122.374 182.944 122.197 220.55 115.678 212.465 68.563" fill="#474340"/><path d="M100.508,150.653l-2.711,4.7,3.863,4.371,2.486-4.661Z" fill="#e0b086"/><path d="M106.112,157.294l-3.99,6.912,5.685,6.432,3.659-6.85Z" fill="#e0b086"/><path d="M99.605,39.118,77.688,48.26,85.632,71.8l25.675-11.053Z" fill="#cef2cf"/><polygon points="190.991 232.001 154.89 221.492 97.323 220.83 63.869 230.15 70.635 238.785 193.47 238.785 190.991 232.001" fill="#cef2cf"/><polygon points="61.969 230.319 48.277 238.785 70.635 238.785 63.869 230.15 61.969 230.319" fill="#d3c7bc"/><path d="M193.578,239.34h20.14l-.087-.3L190.992,232Z" fill="#d3c7bc"/><path d="M293.329,192.54a25.833,25.833,0,1,1,25.834,25.832h0a25.832,25.832,0,0,1-25.834-25.83Z" fill="#dfecfc"/><path d="M319.163,219.372a26.864,26.864,0,0,1-26.834-26.831h0a26.863,26.863,0,0,1,26.832-26.834h0a26.833,26.833,0,0,1,0,53.666Zm0-51.666h0a24.833,24.833,0,0,0,0,49.666h0a24.833,24.833,0,0,0,0-49.666Z" fill="#232639"/><path d="M330.151,191.54h-9.989V174.655a1,1,0,0,0-2,0V192.54a1,1,0,0,0,1,1h10.989a1,1,0,0,0,0-2Z" fill="#232639"/><path d="M231.318,434.114a25.833,25.833,0,1,1,25.834,25.832h0a25.833,25.833,0,0,1-25.834-25.83Z" fill="#eee0fa"/><path d="M257.152,460.946a26.863,26.863,0,0,1-26.834-26.83v0A26.832,26.832,0,0,1,257.15,407.28h0a26.833,26.833,0,0,1,0,53.666Zm-24.834-26.832a24.835,24.835,0,0,0,24.832,24.832h0a24.833,24.833,0,0,0,0-49.666h0a24.832,24.832,0,0,0-24.832,24.834Z" fill="#232639"/><path d="M264.531,447.89H249.992a1,1,0,0,1-.7-.291l-8.907-8.853a1,1,0,1,1,1.411-1.418l8.613,8.562h13.715l8.622-8.566a1,1,0,1,1,1.41,1.418l-8.915,8.857A1,1,0,0,1,264.531,447.89Zm-10.576-19.126a5.187,5.187,0,0,0-10.373,0,1,1,0,0,0,2,0,3.187,3.187,0,0,1,6.373,0,1,1,0,0,0,2,0Zm17.09,0a5.187,5.187,0,0,0-10.373,0,1,1,0,0,0,2,0,3.187,3.187,0,0,1,6.373,0,1,1,0,0,0,2,0Z" fill="#232639"/><path d="M611.807,258.761a1,1,0,0,1-.731-.318l-23.6-25.3H393.565a1,1,0,0,1-1-1V142.424a1,1,0,0,1,1-1h272.84a1,1,0,0,1,1,1v89.721a1,1,0,0,1-1,1h-53.6v24.616a1,1,0,0,1-1,1ZM394.565,231.145H587.914a1,1,0,0,1,.732.318l22.161,23.76V232.145a1,1,0,0,1,1-1h53.6V143.424H394.565Z" fill="#232639"/><path d="M446.151,175.22a1,1,0,0,1,0-2l168.508,0a1,1,0,0,1,0,2Z" fill="#232639"/><path d="M446.151,203.5a1,1,0,0,1,0-2h105.5a1,1,0,0,1,0,2Z" fill="#232639"/><path d="M311.748,146.964a1,1,0,0,1-1-1V121.349h-53.6a1,1,0,0,1-1-1V30.627a1,1,0,0,1,1-1H529.99a1,1,0,0,1,1,1v89.722a1,1,0,0,1-1,1H336.075l-23.6,25.3A1,1,0,0,1,311.748,146.964Zm-53.6-27.615h53.6a1,1,0,0,1,1,1v23.077l22.161-23.759a1,1,0,0,1,.732-.318H528.99V31.627H258.15Z" fill="#232639"/><path d="M309.733,63.424a1,1,0,0,1,0-2l168.508,0a1,1,0,0,1,0,2Z" fill="#232639"/><path d="M309.732,91.7a1,1,0,0,1,0-2h105.5a1,1,0,0,1,0,2Z" fill="#232639"/><path d="M200.479,335.816a1,1,0,1,1,0-2l168.509,0a1,1,0,0,1,0,2Z" fill="#232639"/><path d="M461.718,422.866H426.532a1,1,0,0,1-1-1V386.68a1,1,0,0,1,1-1h35.186a1,1,0,0,1,1,1v35.186A1,1,0,0,1,461.718,422.866Zm-34.186-2h33.186V387.68H427.532Z" fill="#232639"/><path d="M452.769,394.606,441.3,405.845l-5.815-5.894-3.93,3.929,7.86,8.1,1.885,1.965,15.4-15.4Z" fill="#cef2cf"/><path d="M441.3,414.94h-.01a1,1,0,0,1-.712-.308l-1.885-1.965-7.856-8.09a1,1,0,0,1,.011-1.4l3.93-3.929a1,1,0,0,1,.707-.293h0a1,1,0,0,1,.708.3l5.115,5.184,10.758-10.54a1,1,0,0,1,1.407.007l3.933,3.931a1,1,0,0,1,0,1.414l-15.4,15.4A1,1,0,0,1,441.3,414.94Zm-8.341-11.049,8.355,8.62,13.974-13.974-2.525-2.524L442,406.558a1,1,0,0,1-1.412-.012l-5.108-5.176Z" fill="#232639"/><path d="M460.608,253.252H327.369a1,1,0,0,0-1,1v47.77H147.894a1,1,0,0,0-1,1v61.607a1,1,0,0,0,1,1H341.808l23.6,25.3a1,1,0,0,0,1.731-.681V365.629h53.6a1,1,0,0,0,1-1V318.778h38.875a1,1,0,0,0,1-1V254.252A1,1,0,0,0,460.608,253.252ZM419.733,363.629h-53.6a1,1,0,0,0-1,1v23.077l-22.161-23.758a1,1,0,0,0-.732-.319H148.894V304.022H326.369v13.756a1,1,0,0,0,1,1h92.364Zm39.875-46.851H328.369V255.252H459.608Z" fill="#232639"/><path d="M374.51,304.182a1,1,0,0,1-.639-.231l-20.1-16.749a1,1,0,0,1,0-1.537l20.1-16.748a1,1,0,0,1,1.28,1.538l-19.176,15.978,19.176,15.981a1,1,0,0,1-.641,1.768Zm37.375-.231,20.1-16.749a1,1,0,0,0,0-1.537l-20.094-16.748a1,1,0,0,0-1.281,1.538l19.173,15.978-19.176,15.981a1,1,0,0,0,1.28,1.537Zm-26.4-.338,15.976-33.5a1,1,0,0,0-1.806-.862l-15.975,33.5a1,1,0,0,0,.472,1.333.988.988,0,0,0,.43.1A1,1,0,0,0,385.485,303.613Z" fill="#232639"/><path d="M554.117,12.027q9.623-9.544,26.537-9.545t27.317,9q10.4,9,10.4,24.91t-8.925,22.962q-8.926,7.062-25.843,7.372V81.477H558.616V49.507h10.4q12.106,0,17.847-2.792T592.6,36.007a12.041,12.041,0,0,0-3.026-8.537,10.868,10.868,0,0,0-8.38-3.258,11.022,11.022,0,0,0-8.381,3.178A11.985,11.985,0,0,0,569.791,36H544.8Q544.492,21.571,554.117,12.027Zm17.614,108.56a14.31,14.31,0,1,1,10.321-4.189,14.03,14.03,0,0,1-10.321,4.187Z" fill="#d1a3f5"/><path d="M572.048,121.588q-.13,0-.261,0c-.024,0-.048,0-.07,0a15.311,15.311,0,1,1,11.042-4.482A15.083,15.083,0,0,1,572.048,121.588Zm-.317-2h.023a13.007,13.007,0,0,0,9.585-3.887,13.309,13.309,0,1,0-9.668,3.889ZM583.6,82.477H558.616a1,1,0,0,1-1-1V49.507a1,1,0,0,1,1-1h10.4c7.88,0,13.737-.905,17.41-2.691,3.485-1.694,5.179-4.9,5.18-9.81a11.014,11.014,0,0,0-2.773-7.872,9.88,9.88,0,0,0-7.577-2.924,1.046,1.046,0,0,1-.112,0,10.078,10.078,0,0,0-7.62,2.889,10.9,10.9,0,0,0-2.732,7.853,1,1,0,0,1-1,1.052H544.8a1,1,0,0,1-1-.978c-.214-9.862,3.018-18.176,9.608-24.709s15.744-9.835,27.241-9.835c11.471,0,20.882,3.111,27.971,9.247,7.128,6.172,10.743,14.808,10.744,25.666,0,10.878-3.129,18.867-9.305,23.746-5.922,4.686-14.485,7.229-25.462,7.564V81.477A1,1,0,0,1,583.6,82.477Zm-23.986-2H582.6V66.729a1,1,0,0,1,.981-1c11-.2,19.494-2.609,25.24-7.156,5.673-4.482,8.548-11.943,8.546-22.178,0-10.252-3.384-18.379-10.053-24.154C600.6,6.429,591.63,3.482,580.654,3.482c-10.95,0-19.642,3.114-25.833,9.255h0A30.331,30.331,0,0,0,545.795,35h22.983a12.9,12.9,0,0,1,3.292-8.281,12.066,12.066,0,0,1,9.128-3.512,11.843,11.843,0,0,1,9.094,3.561,12.994,12.994,0,0,1,3.31,9.279c0,5.624-2.122,9.53-6.3,11.564-3.947,1.919-10.1,2.892-18.285,2.892h-9.4Zm-5.5-68.45h0Z" fill="#232639"/><path d="M187.924,385.68H131.949v-6.158a1,1,0,0,0-.4-.8l-6.222-4.667a1,1,0,0,0-.6-.2H85.517l4.408-20.569a1.07,1.07,0,0,0,.022-.21V335.963a1,1,0,0,0-.293-.707l-6.222-6.221a1,1,0,0,0-.707-.293H65.612a1,1,0,0,0-1,1v23.026L43.278,384.059v-9.2a1,1,0,0,0-1-1H3.386a1,1,0,0,0-1,1V440.2a1,1,0,0,0,1,1H22.514v35.2a1,1,0,0,0,1,1h53.6v24.616a1,1,0,0,0,1.732.682l23.6-25.3h85.48a1,1,0,0,0,1-1V386.68A1,1,0,0,0,187.924,385.68ZM66.438,353.64a.993.993,0,0,0,.174-.563V330.742h15.7l5.636,5.635V352.97L83.3,374.645a1,1,0,0,0,.978,1.21h40.114l5.555,4.167v10.947H107.987a1,1,0,0,0,0,2h21.962v13.557H107.987a1,1,0,0,0,0,2h21.962v13.555H107.987a1,1,0,1,0,0,2h21.962v10.945l-5.555,4.167H58.148L43.261,428.8V387.635ZM4.386,439.2V375.856H41.278v9.061a.877.877,0,0,0-.018.086v44.158a.845.845,0,0,0-.02.15l.033,9.888Zm182.538,36.2H102.009a1,1,0,0,0-.731.318l-22.162,23.76V476.4a1,1,0,0,0-1-1h-53.6V441.2H42.278a1,1,0,0,0,1-1l-.019-5.464,0-.01V431.24l14,9.773a1,1,0,0,0,.572.18h66.893a1,1,0,0,0,.6-.2l6.222-4.667a1,1,0,0,0,.4-.8V387.68h54.975Z" fill="#232639"/><path d="M22.843,416.8a6.637,6.637,0,1,0,6.636,6.636A6.644,6.644,0,0,0,22.843,416.8Zm0,11.273a4.637,4.637,0,1,1,4.636-4.637A4.642,4.642,0,0,1,22.843,428.07Z" fill="#232639"/><path d="M146.2,132.742a4.389,4.389,0,1,1-5.838-4.086l-3.865-.645-9.816,1.846a1,1,0,1,1-.37-1.965l9.99-1.879a1,1,0,0,1,.349,0l7.212,1.2a1.006,1.006,0,0,1,.6.344l5.247,6.263a1,1,0,0,1-1.533,1.285Zm3.734-10.177a1,1,0,0,0,1.2-.693l.467-1.625a1,1,0,0,0-.823-1.267l-15.675-2.19a.993.993,0,0,0-.659.136l-13.05,6.408a1,1,0,1,0,.882,1.8l12.8-6.288Zm11.545,24.405a1,1,0,0,0-1.939.492l1.293,5.091-6.886.933a1,1,0,0,0,.136,1.99.938.938,0,0,0,.139-.01l5.632-.782,2.347-.279a1,1,0,0,0,.851-1.24Zm.333,16.964-13.31-.73a.974.974,0,0,0-1.053.943,1,1,0,0,0,.944,1.053l13.31.73a.524.524,0,0,0,.056,0,1,1,0,0,0,.053-2Zm-3.032,5.919-7.566-.492a1.024,1.024,0,0,0-1.063.933,1,1,0,0,0,.933,1.063l7.566.492.066,0a1,1,0,0,0,.064-2Z" fill="#232639"/><path d="M233.4,28.155H23.514a1,1,0,0,0-1,1V239.036a1,1,0,0,0,1,1H233.4a1,1,0,0,0,1-1V29.155A1,1,0,0,0,233.4,28.155ZM180,131.02l-4.488-1.72a1.011,1.011,0,0,0-.513-.054l-6.812,1.071a1,1,0,0,0-.7.476l-2.966,4.979a1,1,0,1,0,1.718,1.023l2.726-4.575,3.305-.52a4.064,4.064,0,0,0-1.409,4.6,4.119,4.119,0,0,0,7.8-2.653l-.007-.02a4.111,4.111,0,0,0-.7-1.251l1.664.638-10.067,51.053-20.15-2.744L115.2,175.711l-4.926-7.576,2.071-3.877a1,1,0,0,0-.111-1.106l-5.353-6.493a.978.978,0,0,0-.855-.361,1,1,0,0,0-.783.5l-1.1,1.909-.443-.682,1.328-2.489a1,1,0,0,0-.112-1.108l-3.638-4.407a.969.969,0,0,0-.854-.359,1,1,0,0,0-.783.5l-.5.861L92.376,140.6l8.185-7.023L110.11,148.1a1,1,0,0,0,1.818-.363l4.492-23.712,18.506-26.958,46.726,25.567-.047.237-14.729-1.936a1,1,0,0,0-1.117,1.152l.318,1.944a1,1,0,0,0,.98.839l14.135.1ZM63.355,230.982l5.432,7.054h-17.4l10.984-6.791Zm2.136-.526,31.962-8.625,57.289.659,35.146,10.232.341.109,1.9,5.205H71.329Zm127.132,3.1,14.42,4.48H194.26ZM98.678,219.845l13.836-44.6,1.253,1.927c.011.018.031.027.043.044a1.406,1.406,0,0,0,.285.263c.022.013.037.034.061.046l35.99,18.121,3.591,24.833Zm2.777-61.865-2.433-2.752,1.632-2.827,2.3,2.78ZM86.231,70.447l-7.3-21.624L95.4,41.955l3.916-1.268,10.588,19.569Zm17.117,93.635,2.91-5.04,4.01,4.865L107.6,168.9Zm97.266-59.677,10.774,5.81a1,1,0,1,0,.949-1.759l-10.33-5.572.238-.259a1,1,0,0,0-1.341-1.472l-1.378,1.043-.013.008-7.546,5.717-7.916,5.995-20.4-10.254L142.312,92.938l-9.159-16.169a1,1,0,0,0-1.862.618L133.574,95.5l-18.921,27.561a1,1,0,0,0-.158.38l-4.072,21.49-8.816-13.4a1,1,0,0,0-1.486-.209l-7.811,6.7L76.612,112.2l9.865-39.673L111.7,61.665c.007,0,.012-.011.02-.014l30.722-13.226L175.41,68.254a.985.985,0,0,0,.484.143l35.723,1.14,7.779,45.327-33.726,5.845ZM111.749,59.462,100.484,38.643A1,1,0,0,0,99.22,38.2L83.452,44.772l-7.046,2.281a.979.979,0,0,0-.862-.241L61.282,49.873a1,1,0,0,0-.383.171l-9.912,7.292a1,1,0,0,0,1.186,1.612l9.739-7.165.836-.18c6.969,1.364,10.3,2,11.905,2.29l-6.345,64.671a.5.5,0,0,0,.052.276l30.855,60.392-5.3,11.833L63.18,200.027l2.9-8.5a1,1,0,0,0-.046-.759L36.861,130.52,41.044,51.3,61.7,30.155h50.478l12.738,23.639ZM24.514,30.155H58.905L39.35,50.175a1,1,0,0,0-.283.647l-4.216,79.849a.994.994,0,0,0,.1.489l29.107,60.106-3.39,9.937a1,1,0,0,0,1.226,1.283l33.024-9.63a1,1,0,0,0,.632-.551l8.825-19.693,1.346-2.826,1.338,1.514a1,1,0,0,0,.75.338.914.914,0,0,0,.116-.007,1,1,0,0,0,.765-.522l.513-.96,1.9,2.915L96.538,220,61.7,229.357a1.006,1.006,0,0,0-.256.112l-13.856,8.567H24.514ZM232.4,238.036H213.783l-22.494-6.99h-.012l-.006,0-35.48-10.328-3.84-26.557-1.542-10.679,19.793,2.7a1.02,1.02,0,0,0,.135.009,1,1,0,0,0,.98-.807L183.6,123.1l37.123-6.434a1,1,0,0,0,.815-1.155L213.45,68.394a1,1,0,0,0-.953-.83l-36.28-1.157L143.036,46.448a1,1,0,0,0-.911-.063L126.76,53,114.45,30.155H232.4Z" fill="#232639"/><path d="M581.134,412.605a1,1,0,0,1,.038,1.413l-4.307,4.546a1,1,0,0,1-.726.312l-.058,0-20.782-1.2a1,1,0,0,1-.941-1.055,1.017,1.017,0,0,1,1.057-.941l20.317,1.169,3.988-4.208A1,1,0,0,1,581.134,412.605Zm-11.259-43.688v-4.666a1,1,0,0,1,1-1h20.1a1,1,0,0,1,.858.486l7.536,12.561a1,1,0,0,1-1.58,1.2l-7.242-7.586H570.875A1,1,0,0,1,569.875,368.917Zm2-1h19.1a1,1,0,0,1,.723.31l1.335,1.4-2.624-4.374H571.875Zm-32.384,6.274h1.123a4.327,4.327,0,0,0,.3,6.831.986.986,0,0,0-.27.6,1,1,0,0,0,.926,1.068l7.805.558q.036,0,.072,0a1,1,0,0,0,.071-2L546.027,381a4.317,4.317,0,0,0,.271-6.808h4.161l3.078,2.418a1,1,0,1,0,1.235-1.572l-3.35-2.632a.994.994,0,0,0-.617-.214H539.491a1,1,0,0,0,0,2Zm30.877,9.526a.984.984,0,0,0-.493.842,1,1,0,0,0,1,1h8.614a1,1,0,0,0,0-2H574.96a4.309,4.309,0,0,0,.057-7.091h6.353l3.834,2.255a.988.988,0,0,0,.5.138,1,1,0,0,0,.508-1.863l-4.068-2.392a1,1,0,0,0-.507-.138H570.875a1,1,0,0,0-1,1,.983.983,0,0,0,.455.817,4.308,4.308,0,0,0-2.13,3.7v0A4.308,4.308,0,0,0,570.368,383.717Zm-18.481,17.548,6.153,2.672a.984.984,0,0,0,.4.083,1,1,0,0,0,.4-1.917l-5.27-2.289,5.8-14.9a1,1,0,0,0-1.864-.726l-6.152,15.792A1,1,0,0,0,551.887,401.265Zm14.986,20.105-10.3-.812a1,1,0,0,0-.157,1.994l10.3.812.08,0a1,1,0,0,0,.078-2Z" fill="#232639"/><path d="M695.049,286.076H485.168a1,1,0,0,0-1,1v209.88a1,1,0,0,0,1,1H695.049a1,1,0,0,0,1-1V287.076A1,1,0,0,0,695.049,286.076Zm-1,2v199.4l-47.316-19.729.529-.462a1,1,0,0,0,.007-1.5l-18.061-16.09a.877.877,0,0,0-.151-.093l.172-13.2a.992.992,0,0,0,.141-.258l27.387-77.407a1,1,0,0,0-.026-.734l-18.9-43.423a1,1,0,0,0-.7-.577l-56.467-12.414a1.015,1.015,0,0,0-.668.085l-18.305,9.318-.067.011a1.018,1.018,0,0,0-.293.1l-3.365,1.784-34.439,17.529a1,1,0,0,0-.545.84l-1.2,23.389a.991.991,0,0,0,.137.56l10.432,17.637c-1.455,27.871-3.36,63.094-3.391,63.667a1,1,0,0,0,.935,1.052l25.309,1.616-.844,8.045h0l-.548,5.228a3.863,3.863,0,0,0-1.168,2.656,3.593,3.593,0,0,0,.676,2.04l-.215,2.053-.073-.084a1,1,0,0,0-1.295-.184L533.156,470.9a1,1,0,0,0-.354,1.284l1.377,2.781L486.168,495.2V288.076ZM544.573,495.956H489.527l45.541-19.2Zm-9.583-23.862L552.1,461.078l19.025,21.81-14.655,13.068H546.8Zm-.665-133.359,0,0s-.01,0-.014.009a1,1,0,0,0-.127.176,1.067,1.067,0,0,0-.1.143,28.748,28.748,0,0,1-.1.374l-.866,18.078-3.749-5.856,5.04-17.6,47.025,8.26-46.367-3.834a1.018,1.018,0,0,0-.667.207A.715.715,0,0,0,534.325,338.735Zm78.059,73.618-1.088-8.926a70.173,70.173,0,0,1,.385-7.614,41.223,41.223,0,0,1,4.746-16.153,12.654,12.654,0,0,1,4.948-5.219c-3.323,3.987-5.358,13.018-6.238,21.721s-.843,14.975.119,19.132a12.4,12.4,0,0,0,1.318,3.5C614.673,417.659,613.265,415.478,612.384,412.353Zm8.548-78.857-42.259-17.707a.991.991,0,0,0-.386-.079c-.031,0-.061,0-.092,0l-25.751,2.357,9.682-5.131,27.032-4.821,42.7,20.642-8.4,43.157a6.338,6.338,0,0,0-1.917.285V334.417A1,1,0,0,0,620.932,333.5Zm-.123,86.1c-.008,0-.014-.006-.022-.007-.629-.063-2.545-.256-3.582-4.742-.9-3.885-.926-10.1-.078-18.48,1.467-14.521,5.1-21.964,8.032-22.008,4.428,2.33,7.36,13.739,6.189,25.319C630.4,409.1,626.28,418.5,620.809,419.592Zm8.727-5.749a39.74,39.74,0,0,0,3.8-13.968c1.409-13.939-2.312-24.363-7.136-27.188a.993.993,0,0,0-.641-.335h-.025c-.037-.016-.075-.029-.111-.044l8.545-43.92a1,1,0,0,0-.547-1.092l-43.686-21.118a1,1,0,0,0-.611-.084l-20.649,3.683,12.1-6.161L636.2,315.841l18.54,42.595L629.456,429.9ZM547.411,320.5a.928.928,0,0,0,.253.019l30.466-2.788,41.416,17.353v38.076a15.985,15.985,0,0,0-4.848,5.5,41.258,41.258,0,0,0-4.674,14.336l-5.787-47.466,7.609-6.588a1,1,0,0,0-1.309-1.512l-7.656,6.628L533.87,331.932a1,1,0,0,0-1.135.71l-5.412,18.9a1,1,0,0,0,.119.815l5.412,8.454a1.186,1.186,0,0,0,.1.121l-.183,3.811q-.113,2.192-.232,4.482L523.8,354.442l1.151-22.51Zm-13.057,52.378a.941.941,0,0,0,.041-.191l.276-5.755,1.661-.949,19.035,2.986a1,1,0,0,0,1.155-.988v-4.66a1,1,0,0,0-.845-.988l-19.382-3.041a1.006,1.006,0,0,0-1.082.615l-.215.533c.49-9.577.856-17.033.958-19.867l66.325,5.484,7.007,57.44a35.8,35.8,0,0,0,1.16,9.515l.309,2.527-13.882,24.292-65.862-4.2C531.35,429.384,533.038,398.114,534.354,372.876Zm1.347-8.836,1.069-2.65,17.752,2.784v2.636l-18.227-2.859a1.005,1.005,0,0,0-.594.089Zm20.552,84.333,42.2,2.26h.054a1,1,0,0,0,.931-.635l12.829-32.736a8.972,8.972,0,0,0,5.344,4.148l-15.831,31.733-28.763.933c-.854-2.667-4.98-4.634-10.1-4.634a15.771,15.771,0,0,0-6.931,1.457Zm-1.607,6.73c0-1.731,3.4-3.66,8.273-3.66s8.271,1.929,8.271,3.66-3.4,3.66-8.271,3.66S554.646,456.834,554.646,455.1Zm.509,3.736a14.832,14.832,0,0,0,7.764,1.924c5.154,0,9.3-1.993,10.115-4.686l29.41-.954a1,1,0,0,0,.863-.552l16.4-32.87c.016,0,.031,0,.047,0,2.848,0,5.511-1.663,7.73-4.565l-.434,33.18-41.942,31.862,0,0,0,0-9.406,7.269-2.217-6.789a.941.941,0,0,0-.053-.1.87.87,0,0,0-.068-.128,1.126,1.126,0,0,0-.065-.1c-.006-.006-.007-.015-.013-.021L554.9,461.254Zm17.092,26.507,1.123,3.438-2.327-1.471Zm12.737-.544.522,3.311-6.4,1.229ZM570,489.019l4.182,2.644v4.293h-8.428Zm6.182,2.922,9.635-1.851.924,5.866H576.182Zm14.459-3.006-3.6-5.716,41.448-31.487,16.6,14.789-33.686,29.435H595.062Zm23.8,7.021,30.609-26.746,49,20.429v6.317Z" fill="#232639"/></svg>