<svg xmlns="http://www.w3.org/2000/svg" xmlns:xlink="http://www.w3.org/1999/xlink" viewBox="0 0 640 300"><defs><clipPath id="a"><rect x="275.627" y="-299.168" width="332.162" height="215.741" fill="none"/></clipPath></defs><rect width="640" height="300" opacity="0"/><g clip-path="url(#a)"><path d="M439.859,3.5,442.231.735l-2.372-2.761L437.487.735Z" fill="#cef2cf"/><path d="M455.487.74l-2.372-2.761L450.743.74,453.115,3.5Z" fill="#cef2cf"/><path d="M466.372-2.021,464,.739l1.62,1.886c.557-.065,1.115-.124,1.67-.192L468.747.739Z" fill="#cef2cf"/><path d="M479.63-2.021,477.258.739,477.4.91c1.365-.243,2.722-.507,4.077-.778Z" fill="#cef2cf"/><path d="M413.438-2.021,411.067.739l.555.648q1.6.26,3.207.494L415.81.739Z" fill="#cef2cf"/><path d="M426.7-2.021,424.323.739l2.13,2.479.451.041L429.072.74Z" fill="#cef2cf"/></g><path d="M488.011,207.162l2.372-2.761,2.372,2.761-2.372,2.762Zm2.372-12.664,2.372-2.761-2.372-2.762-2.372,2.762Zm0-15.426,2.372-2.761-2.372-2.762-2.372,2.762Zm0-15.425,2.372-2.761-2.372-2.762-2.372,2.762Zm0-15.424,2.372-2.762-2.372-2.762-2.372,2.762ZM503.639,204.4l-2.372,2.761,2.372,2.762,2.372-2.762Zm0-15.426-2.372,2.762,2.372,2.761,2.372-2.761Zm0-15.426-2.372,2.762,2.372,2.761,2.372-2.761Zm0-15.429-2.372,2.762,2.372,2.761,2.372-2.761Zm0-15.421-2.372,2.762,2.372,2.762,2.372-2.762ZM516.9,204.4l-2.372,2.761,2.372,2.762,2.376-2.762Zm0-15.426-2.372,2.762L516.9,194.5l2.376-2.761Zm0-15.426-2.372,2.762,2.372,2.761,2.376-2.761Zm0-15.429-2.372,2.762,2.372,2.761,2.376-2.761Zm2.374-12.659L516.9,142.7l-2.372,2.762,2.372,2.762Zm10.884,58.94-2.372,2.761,2.372,2.762,2.372-2.762Zm0-15.426-2.372,2.762,2.372,2.761,2.372-2.761Zm0-15.426-2.372,2.762,2.372,2.761,2.372-2.761Zm0-15.429-2.372,2.762,2.372,2.761,2.372-2.761Zm0-15.421-2.372,2.762,2.372,2.762,2.372-2.762Zm13.257,61.7-2.372,2.761,2.372,2.762,2.372-2.762Zm0-15.426-2.372,2.762,2.372,2.761,2.372-2.761Zm0-15.426-2.372,2.762,2.372,2.761,2.372-2.761Zm0-15.429-2.372,2.762,2.372,2.761,2.372-2.761Zm0-15.421-2.372,2.762,2.372,2.762,2.372-2.762Zm13.262,61.7-2.376,2.761,2.376,2.762,2.372-2.762Zm0-15.426-2.376,2.762,2.376,2.761,2.372-2.761Zm0-15.426-2.376,2.762,2.376,2.761,2.372-2.761Zm0-15.429-2.376,2.762,2.376,2.761,2.372-2.761Zm0-15.421-2.374,2.762,2.374,2.762,2.372-2.762Zm13.256,61.7-2.372,2.761,2.372,2.762,2.372-2.762Zm0-15.426-2.372,2.762,2.372,2.761,2.372-2.761Zm0-15.426-2.372,2.762,2.372,2.761,2.372-2.761Zm0-15.429-2.372,2.762,2.372,2.761,2.372-2.761Zm0-15.421-2.372,2.762,2.372,2.762,2.372-2.762Zm13.257,61.7-2.372,2.761,2.372,2.762,2.376-2.762Zm0-15.426-2.372,2.762,2.372,2.761,2.376-2.761Zm0-15.426-2.372,2.762,2.372,2.761,2.376-2.761Zm0-15.429-2.372,2.762,2.372,2.761,2.376-2.761Zm2.374-12.659-2.374-2.762-2.372,2.762,2.372,2.762ZM596.44,204.4l-2.372,2.761,2.372,2.762,2.372-2.762Zm0-15.426-2.372,2.762,2.372,2.761,2.372-2.761Zm0-15.426-2.372,2.762,2.372,2.761,2.372-2.761Zm0-15.429-2.372,2.762,2.372,2.761,2.372-2.761Zm0-15.421-2.372,2.762,2.372,2.762,2.372-2.762ZM609.7,204.4l-2.372,2.761,2.372,2.762,2.372-2.762Zm0-15.426-2.372,2.762L609.7,194.5l2.372-2.761Zm0-15.426-2.372,2.762,2.372,2.761,2.372-2.761Zm0-15.429-2.372,2.762,2.372,2.761,2.372-2.761Zm0-15.421-2.372,2.762,2.372,2.762,2.372-2.762ZM490.383,133.12l2.372-2.762-2.372-2.761-2.372,2.761Zm0-15.426,2.372-2.762-2.372-2.761-2.372,2.761Zm0-15.426,2.372-2.762-2.372-2.761-2.372,2.761ZM503.639,127.6l-2.372,2.761,2.372,2.762,2.372-2.762Zm0-15.426-2.372,2.761,2.372,2.762,2.372-2.762Zm0-15.426-2.372,2.761,2.372,2.762,2.372-2.762ZM516.9,127.6l-2.372,2.761,2.372,2.762,2.376-2.762Zm0-15.426-2.372,2.761,2.372,2.762,2.376-2.762Zm0-15.426-2.372,2.761,2.372,2.762,2.376-2.762ZM530.154,127.6l-2.372,2.761,2.372,2.762,2.372-2.762Zm0-15.426-2.372,2.761,2.372,2.762,2.372-2.762Zm0-15.426-2.372,2.761,2.372,2.762,2.372-2.762ZM543.411,127.6l-2.372,2.761,2.372,2.762,2.372-2.762Zm0-15.426-2.372,2.761,2.372,2.762,2.372-2.762Zm0-15.426-2.372,2.761,2.372,2.762,2.372-2.762ZM556.673,127.6l-2.376,2.761,2.376,2.762,2.372-2.762Zm0-15.426-2.376,2.761,2.376,2.762,2.372-2.762Zm0-15.426L554.3,99.506l2.376,2.762,2.372-2.762ZM569.925,127.6l-2.372,2.761,2.372,2.762,2.372-2.762Zm0-15.426-2.372,2.761,2.372,2.762,2.372-2.762Zm0-15.426-2.372,2.761,2.372,2.762,2.372-2.762ZM583.182,127.6l-2.372,2.761,2.372,2.762,2.376-2.762Zm0-15.426-2.372,2.761,2.372,2.762,2.376-2.762Zm0-15.426-2.368,2.763,2.372,2.762,2.376-2.762ZM596.44,127.6l-2.372,2.761,2.372,2.762,2.372-2.762Zm0-15.426-2.372,2.761,2.372,2.762,2.372-2.762Zm0-15.426-2.372,2.761,2.372,2.762,2.372-2.762ZM609.7,127.6l-2.372,2.761,2.372,2.762,2.372-2.762Zm0-15.426-2.372,2.761,2.372,2.762,2.372-2.762Zm0-15.426-2.372,2.761,2.372,2.762,2.372-2.762ZM317.945,158.12l-2.377,2.762,2.377,2.761,2.372-2.761Zm0-15.421-2.374,2.762,2.374,2.762,2.372-2.762Zm13.446,15.421-2.372,2.762,2.372,2.761,2.372-2.761Zm0-15.421-2.372,2.762,2.372,2.762,2.372-2.762Zm13.259,61.7-2.376,2.761,2.376,2.762,2.372-2.762Zm0-15.426-2.376,2.762,2.376,2.761,2.372-2.761Zm0-15.426-2.376,2.762,2.376,2.761,2.372-2.761Zm0-15.429-2.376,2.762,2.376,2.761,2.372-2.761Zm0-15.421-2.374,2.762,2.374,2.762,2.372-2.762Zm13.256,61.7-2.372,2.761,2.372,2.762,2.372-2.762Zm0-15.426-2.372,2.762,2.372,2.761,2.372-2.761Zm0-15.426-2.372,2.762,2.372,2.761,2.372-2.761Zm0-15.429-2.372,2.762,2.372,2.761,2.372-2.761Zm0-15.421-2.372,2.762,2.372,2.762,2.372-2.762Zm13.256,61.7-2.372,2.761,2.372,2.762,2.377-2.762Zm0-15.426-2.372,2.762,2.372,2.761,2.377-2.761Zm0-15.426-2.372,2.762,2.372,2.761,2.377-2.761Zm0-15.429-2.372,2.762,2.372,2.761,2.377-2.761Zm2.374-12.659-2.374-2.762-2.372,2.762,2.372,2.762Zm10.885,58.94-2.372,2.761,2.372,2.762,2.372-2.762Zm0-15.426-2.372,2.762,2.372,2.761,2.372-2.761Zm0-15.426-2.372,2.762,2.372,2.761,2.372-2.761Zm0-15.429-2.372,2.762,2.372,2.761,2.372-2.761Zm0-15.421-2.372,2.762,2.372,2.762,2.372-2.762Zm13.256,61.7-2.372,2.761,2.372,2.762,2.372-2.762Zm0-15.426-2.372,2.762,2.372,2.761,2.372-2.761Zm0-15.426-2.372,2.762,2.372,2.761,2.372-2.761Zm0-15.429-2.372,2.762,2.372,2.761,2.372-2.761Zm0-15.421-2.372,2.762,2.372,2.762,2.372-2.762Zm13.258,61.7-2.372,2.761,2.372,2.762,2.376-2.762Zm0-15.426-2.372,2.762,2.372,2.761,2.376-2.761Zm0-15.426-2.372,2.762,2.372,2.761,2.376-2.761Zm0-15.429-2.372,2.762,2.372,2.761,2.376-2.761Zm2.373-12.659-2.374-2.762-2.372,2.762,2.372,2.762Zm10.884,58.94-2.372,2.761,2.372,2.762,2.372-2.762Zm0-15.426-2.372,2.762,2.372,2.761,2.372-2.761Zm0-15.426-2.372,2.762,2.372,2.761,2.372-2.761Zm0-15.429-2.372,2.762,2.372,2.761,2.372-2.761Zm0-15.421-2.372,2.762,2.372,2.762,2.372-2.762Zm13.256,61.7-2.372,2.761,2.372,2.762,2.372-2.762Zm0-15.426-2.372,2.762,2.372,2.761,2.372-2.761Zm0-15.426-2.372,2.762,2.372,2.761,2.372-2.761Zm0-15.429-2.372,2.762,2.372,2.761,2.372-2.761Zm0-15.421-2.372,2.762,2.372,2.762,2.372-2.762Zm13.258,61.7-2.377,2.761,2.377,2.762,2.372-2.762Zm0-15.426-2.377,2.762,2.377,2.761,2.372-2.761Zm0-15.426-2.377,2.762,2.377,2.761,2.372-2.761Zm0-15.429-2.377,2.762,2.377,2.761,2.372-2.761Zm0-15.421-2.374,2.762,2.374,2.762,2.372-2.762Zm13.256,67.225,2.372-2.762-2.372-2.761-2.372,2.761Zm0-15.426,2.372-2.761-2.372-2.762-2.372,2.762Zm0-15.426,2.372-2.761-2.372-2.762-2.372,2.762Zm0-15.425,2.372-2.761-2.372-2.762-2.372,2.762Zm0-15.424,2.372-2.762-2.372-2.762-2.372,2.762Zm13.257,61.7,2.376-2.762L477.22,204.4l-2.372,2.761Zm0-15.426,2.376-2.761-2.376-2.762-2.372,2.762Zm0-15.426,2.376-2.761-2.376-2.762-2.372,2.762Zm0-15.425,2.376-2.761-2.376-2.762-2.372,2.762Zm0-15.424,2.374-2.762L477.22,142.7l-2.372,2.762ZM437.448,127.6l-2.372,2.761,2.372,2.762,2.372-2.762Zm0-15.426-2.372,2.761,2.372,2.762,2.372-2.762Zm0-15.426-2.374,2.763,2.372,2.762,2.372-2.762ZM450.706,127.6l-2.377,2.761,2.377,2.762,2.372-2.762Zm0-15.426-2.377,2.761,2.377,2.762,2.372-2.762Zm0-15.426-2.377,2.761,2.377,2.762,2.372-2.762Zm13.257,36.375,2.372-2.762-2.372-2.761-2.372,2.761Zm0-15.426,2.372-2.762-2.372-2.761-2.372,2.761Zm0-15.426,2.372-2.762-2.372-2.761-2.372,2.761ZM477.22,133.12l2.376-2.762L477.22,127.6l-2.372,2.761Zm0-15.426,2.376-2.762-2.376-2.761-2.372,2.761Zm0-15.426,2.376-2.762-2.376-2.761-2.372,2.761ZM490.383,286.1l2.372-2.762-2.372-2.761-2.372,2.761Zm0-15.425,2.372-2.762-2.372-2.761-2.372,2.761Zm0-15.429,2.372-2.762-2.372-2.761-2.372,2.761Zm0-15.423,2.372-2.761-2.372-2.762-2.372,2.762Zm0-15.425,2.372-2.761-2.372-2.762-2.372,2.762Zm13.256,56.179-2.372,2.761,2.372,2.762,2.372-2.762Zm0-15.425-2.372,2.761,2.372,2.762,2.372-2.762Zm0-15.426-2.372,2.761,2.372,2.762,2.372-2.762Zm0-15.426-2.372,2.762,2.372,2.761,2.372-2.761Zm0-15.425-2.372,2.762,2.372,2.761,2.372-2.761Zm13.257,61.7-2.372,2.761L516.9,286.1l2.376-2.762Zm0-15.425-2.372,2.761,2.372,2.762,2.376-2.762Zm0-15.426-2.372,2.761,2.372,2.762,2.376-2.762Zm0-15.426-2.372,2.762,2.372,2.761,2.376-2.761Zm0-15.425-2.372,2.762,2.372,2.761,2.376-2.761Zm13.258,61.7-2.372,2.761,2.372,2.762,2.372-2.762Zm0-15.425-2.372,2.761,2.372,2.762,2.372-2.762Zm0-15.426-2.372,2.761,2.372,2.762,2.372-2.762Zm0-15.426-2.372,2.762,2.372,2.761,2.372-2.761Zm0-15.425-2.372,2.762,2.372,2.761,2.372-2.761Zm13.257,61.7-2.372,2.761,2.372,2.762,2.372-2.762Zm0-15.425-2.372,2.761,2.372,2.762,2.372-2.762Zm0-15.426-2.372,2.761,2.372,2.762,2.372-2.762Zm0-15.426-2.372,2.762,2.372,2.761,2.372-2.761Zm0-15.425-2.372,2.762,2.372,2.761,2.372-2.761Zm13.262,61.7-2.376,2.761,2.376,2.762,2.372-2.762Zm0-15.425-2.376,2.761,2.376,2.762,2.372-2.762Zm0-15.426-2.376,2.761,2.376,2.759,2.372-2.762Zm0-15.426-2.376,2.762,2.376,2.761,2.372-2.761Zm0-15.425-2.376,2.762,2.376,2.761,2.372-2.761Zm13.252,61.7-2.372,2.761,2.372,2.762,2.372-2.762Zm0-15.425-2.372,2.761,2.372,2.762,2.372-2.762Zm0-15.426-2.372,2.761,2.372,2.762,2.372-2.762Zm0-15.426-2.372,2.762,2.372,2.761,2.372-2.761Zm0-15.425-2.372,2.762,2.372,2.761,2.372-2.761Zm13.257,61.7-2.372,2.761,2.372,2.762,2.376-2.762Zm0-15.425-2.372,2.761,2.372,2.762,2.376-2.762Zm0-15.426-2.372,2.761,2.372,2.762,2.376-2.762Zm0-15.426-2.372,2.762,2.372,2.761,2.376-2.761Zm0-15.425-2.368,2.766,2.372,2.761,2.376-2.761Zm13.258,61.7-2.372,2.761,2.372,2.762,2.372-2.762Zm0-15.425-2.372,2.761,2.372,2.762,2.372-2.762Zm0-15.426-2.372,2.761,2.372,2.762,2.372-2.762Zm0-15.426-2.372,2.762,2.372,2.761,2.372-2.761Zm0-15.425-2.372,2.762,2.372,2.761,2.372-2.761Zm13.257,61.7-2.372,2.761L609.7,286.1l2.372-2.762Zm0-15.425-2.372,2.761,2.372,2.762,2.372-2.762Zm0-15.426-2.372,2.761,2.372,2.762,2.372-2.762Zm0-15.426-2.372,2.762,2.372,2.761,2.372-2.761Zm0-15.425-2.372,2.762,2.372,2.761,2.372-2.761Zm-304.77,61.982c.344,1.243.7,2.48,1.072,3.714l1.059-1.233Zm13.018-.28-2.377,2.761,2.377,2.762,2.372-2.762Zm13.446,0-2.372,2.761,2.372,2.762,2.372-2.762Zm13.259,0-2.376,2.761,2.376,2.762,2.372-2.762Zm0-15.425-2.376,2.761,2.376,2.762,2.372-2.762Zm0-15.426-2.376,2.761,2.376,2.762,2.372-2.762Zm0-15.426-2.376,2.762,2.376,2.761,2.372-2.761Zm0-15.425-2.376,2.762,2.376,2.761,2.372-2.761Zm13.256,61.7-2.372,2.761,2.372,2.762,2.372-2.762Zm0-15.425-2.372,2.761,2.372,2.762,2.372-2.762Zm0-15.426-2.372,2.761,2.372,2.762,2.372-2.762Zm0-15.426-2.372,2.762,2.372,2.761,2.372-2.761Zm0-15.425-2.372,2.762,2.372,2.761,2.372-2.761Zm13.256,61.7-2.372,2.761,2.372,2.762,2.377-2.762Zm0-15.425-2.372,2.761,2.372,2.762,2.377-2.762Zm0-15.426-2.372,2.761,2.372,2.762,2.377-2.762Zm0-15.426-2.372,2.762,2.372,2.761,2.377-2.761Zm0-15.425-2.372,2.762,2.372,2.761,2.377-2.761Zm13.259,61.7-2.372,2.761,2.372,2.762,2.372-2.762Zm0-15.425-2.372,2.761,2.372,2.762,2.372-2.762Zm0-15.426-2.372,2.761,2.372,2.762,2.372-2.762Zm0-15.426-2.372,2.762,2.372,2.761,2.372-2.761Zm0-15.425-2.372,2.762,2.372,2.761,2.375-2.757Zm13.256,61.7-2.372,2.761,2.372,2.762,2.372-2.762Zm0-15.425-2.372,2.761,2.372,2.762,2.372-2.762Zm0-15.426-2.372,2.761,2.372,2.762,2.372-2.762Zm0-15.426-2.372,2.762,2.372,2.761,2.372-2.761Zm0-15.425-2.372,2.766,2.372,2.761,2.372-2.761Zm13.258,61.7-2.372,2.761,2.372,2.762,2.376-2.762Zm0-15.425-2.372,2.761,2.372,2.762,2.376-2.762Zm0-15.426-2.372,2.761,2.372,2.759,2.376-2.762Zm0-15.426-2.372,2.762,2.372,2.761,2.376-2.761Zm0-15.425-2.372,2.762,2.372,2.761,2.376-2.761Zm13.257,61.7-2.372,2.761,2.372,2.762,2.372-2.762Zm0-15.425-2.372,2.761,2.372,2.762,2.372-2.762Zm0-15.426-2.372,2.761,2.372,2.762,2.372-2.762Zm0-15.426-2.372,2.762,2.372,2.761,2.372-2.761Zm0-15.425-2.372,2.762,2.372,2.761,2.372-2.761Zm13.256,61.7-2.372,2.761,2.372,2.762,2.372-2.762Zm0-15.425-2.372,2.761,2.372,2.762,2.372-2.762Zm0-15.426-2.372,2.761,2.372,2.762,2.372-2.762Zm0-15.426-2.372,2.762,2.372,2.761,2.372-2.761Zm0-15.425-2.374,2.766,2.372,2.761,2.372-2.761Zm13.258,61.7-2.377,2.761,2.377,2.762,2.372-2.762Zm0-15.425-2.377,2.761,2.377,2.762,2.372-2.762Zm0-15.426-2.377,2.761,2.377,2.762,2.372-2.762Zm0-15.426-2.377,2.762,2.377,2.761,2.372-2.761Zm0-15.425-2.377,2.762,2.377,2.761,2.372-2.761ZM463.963,286.1l2.372-2.762-2.372-2.761-2.372,2.761Zm0-15.425,2.372-2.762-2.372-2.761-2.372,2.761Zm0-15.429,2.372-2.762-2.372-2.761-2.372,2.761Zm0-15.423,2.372-2.761-2.372-2.762-2.372,2.762Zm0-15.425,2.372-2.761-2.372-2.762-2.372,2.762Zm13.257,61.7,2.376-2.762-2.376-2.761-2.372,2.761Zm0-15.425,2.376-2.762-2.376-2.761-2.372,2.761Zm0-15.429,2.376-2.762-2.376-2.761-2.372,2.761Zm0-15.423,2.376-2.761L477.22,234.3l-2.372,2.762Zm0-15.425,2.376-2.761-2.376-2.762-2.372,2.762ZM278.265,158.12l-2.372,2.762,2.372,2.761,2.376-2.761Zm2.374-12.659-2.374-2.762-2.372,2.762,2.372,2.762Zm10.884,12.659-2.372,2.762,2.372,2.761,2.372-2.761Zm0-15.421-2.372,2.762,2.372,2.762,2.372-2.762ZM304.78,158.12l-2.372,2.762,2.372,2.761,2.372-2.761Zm0-15.421-2.372,2.762,2.372,2.762,2.372-2.762Zm10.883,2.762,2.374,2.762,2.372-2.762-2.372-2.762Zm15.631-2.762-2.372,2.762,2.372,2.762,2.372-2.762Zm15.631,2.762-2.374-2.762-2.372,2.762,2.372,2.762ZM278.265,127.6l-2.372,2.761,2.372,2.762,2.376-2.762Zm0-15.426-2.372,2.761,2.372,2.762,2.376-2.762Zm0-15.426L275.9,99.508l2.372,2.762,2.376-2.762ZM291.523,127.6l-2.372,2.761,2.372,2.762,2.372-2.762Zm0-15.426-2.372,2.761,2.372,2.762,2.372-2.762Zm0-15.426-2.372,2.761,2.372,2.762,2.372-2.762ZM358,142.7l-2.372,2.762L358,148.223l2.372-2.762ZM238.494,280.572l-2.372,2.761,2.372,2.762,2.372-2.762Zm13.262,0-2.376,2.761,2.376,2.762,2.372-2.762Zm13.252,0-2.372,2.761,2.372,2.762,2.372-2.762Zm13.257,0-2.372,2.761,2.372,2.762,2.376-2.762Zm13.258,0-2.372,2.761,2.372,2.762,2.372-2.762Zm13.257,0-2.372,2.761,2.372,2.762,2.372-2.762Z" fill="#eee0fa"/><path d="M127,231.336c-.036,0-.071,0-.107,0V185.986H81.279v40.366h-22.6v30h44.4V246.237l9.156-.015A14.771,14.771,0,1,0,127,231.336Z" fill="#eee0fa"/><path d="M199.457,276.828V164.252h78.606c.047-1.474.079-2.952.079-4.438a137.428,137.428,0,0,0-12.459-57.354v37.224H125.471V27.109h52.5A137.963,137.963,0,0,0,30.119,242.937V164.252H170.331V276.828H67.142a138,138,0,0,0,146.12,0Z" fill="#eee0fa"/><path d="M413.3,96.857a1,1,0,0,1-1-1V72.215a1,1,0,0,1,2,0V95.857A1,1,0,0,1,413.3,96.857Z" fill="#232639"/><path d="M409.235,52.259h-4.688V47.572a1,1,0,0,0-2,0v4.687H397.86a1,1,0,0,0,0,2h4.687v4.688a1,1,0,0,0,2,0V54.259h4.688a1,1,0,0,0,0-2Z" fill="#232639"/><rect x="338.929" y="71.25" width="66.028" height="48.278" fill="#eee0fa"/><path d="M352.247,94.624h6.8a5.273,5.273,0,0,1,4.337,1.716,5.727,5.727,0,0,1,.888,4.618,8.815,8.815,0,0,1-.787,2.625,7.807,7.807,0,0,1-1.622,2.326,5.666,5.666,0,0,1-2.714,1.665,12.525,12.525,0,0,1-2.993.354h-3.044l-.962,4.8H348.62l3.627-18.1Zm2.968,2.876-1.524,7.572a1.837,1.837,0,0,0,.305.025h.354a13.4,13.4,0,0,0,4.059-.481q1.622-.529,2.181-3.685.454-2.646-.913-3.054a11.463,11.463,0,0,0-3.369-.378c-.2.017-.4.025-.584.025h-.535l.024-.025Zm9.419,10.426h3.5l2.079-10.373,2.816.024a2.163,2.163,0,0,1,1.749.531,2.263,2.263,0,0,1,.153,1.792l-1.623,8.026h3.55l1.7-8.406q.532-2.826-.76-3.836a6.332,6.332,0,0,0-3.856-1.059H370.8l.989-4.821h-3.5Zm17.682-13.3h6.8a5.277,5.277,0,0,1,4.338,1.716,5.715,5.715,0,0,1,.885,4.618,8.843,8.843,0,0,1-.786,2.625,7.828,7.828,0,0,1-1.623,2.326,5.666,5.666,0,0,1-2.714,1.665,12.525,12.525,0,0,1-2.993.354h-3.041l-.963,4.8h-3.523l3.627-18.1Zm2.969,2.876-1.525,7.572a1.837,1.837,0,0,0,.305.025h.355a13.4,13.4,0,0,0,4.058-.481q1.623-.529,2.181-3.685.456-2.646-.913-3.054a11.46,11.46,0,0,0-3.369-.378q-.3.026-.584.025h-.532l.025-.025Z" fill="#232639"/><path d="M404.956,70.25h-9.069V61.42a1,1,0,0,0-1-1h-8.71V51.71a1,1,0,0,0-1-1H319.15a1,1,0,0,0-1,1V99.989a1,1,0,0,0,1,1h8.709v8.71a1,1,0,0,0,1,1h9.07v8.83a1,1,0,0,0,1,1h66.027a1,1,0,0,0,1-1V71.25A1,1,0,0,0,404.956,70.25Zm-1,12.139H339.929V72.25h64.027Zm-83.806,16.6V52.71h64.027v7.71H328.859a1,1,0,0,0-1,1V98.989Zm9.709,9.71V62.42h64.028v7.83H338.929a1,1,0,0,0-1,1V108.7Zm10.07,9.83V84.389h64.027v34.14Z" fill="#232639"/><path d="M346.721,77.3a1.894,1.894,0,1,1-1.894-1.893A1.894,1.894,0,0,1,346.721,77.3Zm3.786-1.893A1.893,1.893,0,1,0,352.4,77.3,1.893,1.893,0,0,0,350.507,75.409Zm5.68,0A1.893,1.893,0,1,0,358.08,77.3,1.892,1.892,0,0,0,356.187,75.409Z" fill="#232639"/><path d="M186,103.612l9.371-61.742,1.428,75.257,2.9,1.349-2.95,5.118-2.3-4.134,2.355-2.333,15.681,7.364,22.474-2.475L207.417,100.4l4.549,3.6-16.61-62.126-7.75,84.324-16.05-1.355L190.27,97.33" fill="#eee0fa"/><path d="M235.569,121.23l-22.735-17.846-16.471-61.61c0-.025-.015-.045-.02-.069l-.006-.03c0-.007-.006-.012-.007-.019a.984.984,0,0,0-.62-.716H195.7a.965.965,0,0,0-.269-.067c-.017,0-.034.006-.051.006l-.009,0c-.015,0-.029.008-.044.009a1.035,1.035,0,0,0-.565.188,1.109,1.109,0,0,0-.112.124,1.014,1.014,0,0,0-.138.155,1.051,1.051,0,0,0-.06.137.948.948,0,0,0-.069.156l-14.442,60.579-16.568,11.962a1,1,0,0,0,.133,1.7l9.613,4.879-2.392,3.517a1,1,0,0,0,.743,1.558l16.05,1.357a.787.787,0,0,0,.084,0h0a1.008,1.008,0,0,0,.368-.071c.021-.009.037-.027.057-.036a1.01,1.01,0,0,0,.26-.171s.011-.006.016-.011l5.9-5.817,1.663,2.984a1,1,0,0,0,.866.513h.008a1,1,0,0,0,.866-.5l2.486-4.312,11.956,5.615a1.009,1.009,0,0,0,.534.089l22.475-2.476a1,1,0,0,0,.508-1.78ZM203.256,75.3l6.958,26.027-1.912-1.5Zm-18.214,27.936-4.643,6.828,1.4-7.017h0l8.98-37.664Zm6.2-27.509L189.286,97l-1.639,2.411Zm-11.892,29.391-1.84,9.195-3.255,4.786-8.379-4.253Zm7.463-.926.025-.038,2.071-3.044L186.7,125.122l-13.356-1.128Zm2.04,19.376,2.39-26a1.006,1.006,0,0,0,.027-.288l3.439-37.429,1.08,56.869-2.051,2.033,0,0Zm8.159-5.237,1.269.6-1.522,2.638-1.073-1.927Zm.772-1.858-1.209-63.728,14.386,69.922-10.834-5.093-.009-.005-.2-.1Zm15.372,6.937-4.225-20.535,2.414,1.912a1.118,1.118,0,0,0,.191.118l20.873,16.384Z" fill="#232639"/><path d="M120.288,195.28H87.114a1,1,0,0,1,0-2h33.174a1,1,0,0,1,0,2Zm1,6.656a1,1,0,0,0-1-1H87.114a1,1,0,0,0,0,2h33.174A1,1,0,0,0,121.288,201.936Zm0,7.655a1,1,0,0,0-1-1H87.114a1,1,0,0,0,0,2h33.174A1,1,0,0,0,121.288,209.591Z" fill="#232639"/><path d="M94.119,240.244a4.576,4.576,0,1,1,4.575-4.576A4.581,4.581,0,0,1,94.119,240.244Zm0-7.151a2.576,2.576,0,1,0,2.575,2.575A2.579,2.579,0,0,0,94.119,233.093Z" fill="#232639"/><path d="M142.763,245.892c0-.014.008-.026.008-.04s-.012-.043-.014-.066a15.772,15.772,0,0,0-14.863-15.4V185.987a1,1,0,0,0-1-1H81.279a1,1,0,0,0-1,1v39.364h-21.6a1,1,0,0,0-1,1v30a1,1,0,0,0,1,1h44.4a1,1,0,0,0,1-1v-9.113l7.208-.012a15.773,15.773,0,0,0,15.348,14.639.959.959,0,0,0,.208.042,1.024,1.024,0,0,0,.125-.025H127a15.791,15.791,0,0,0,15.774-15.772C142.774,246.036,142.764,245.965,142.763,245.892Zm-40.686,9.457h-42.4v-11.8L71.591,234.1l13.661,13.661a1,1,0,0,0,1.414-1.414l-6.672-6.672,2.614-2.378,13.641,12.878a1,1,0,0,0,1.373-1.455L83.307,235.2a1,1,0,0,0-1.359-.012l-3.369,3.064-6.2-6.2a1,1,0,0,0-1.328-.076l-11.371,9.017V227.351h42.4Zm9.2-10.125-7.2.012V226.351a1,1,0,0,0-1-1h-20.8V186.987h43.615v43.405A15.77,15.77,0,0,0,111.273,245.224Zm16.568,14.615v-3.888a1,1,0,0,0-2,0v3.872a13.782,13.782,0,0,1-12.557-12.6l4.371.007h0a1,1,0,0,0,0-2l-4.386-.007a13.764,13.764,0,0,1,12.62-12.817v3.831a1,1,0,0,0,2,0v-3.853a13.777,13.777,0,0,1,12.817,12.471l-3.805.006a1,1,0,0,0,0,2h0l3.827-.006A13.77,13.77,0,0,1,127.841,259.839Z" fill="#232639"/><path d="M123.572,250.609a1,1,0,0,1-.979-1.205l.948-4.532a1,1,0,0,1,.516-.682l9.7-5.06a1,1,0,0,1,1.3,1.435l-6.22,9.486a.992.992,0,0,1-.812.452l-4.427.106Zm1.83-4.864-.593,2.835,2.641-.064,3.827-5.837Z" fill="#232639"/><path d="M279.683,260.508a1,1,0,0,1-.8-1.6l18.079-23.82a1,1,0,0,1,1.594,1.209l-18.079,23.82A1,1,0,0,1,279.683,260.508Zm6.756-.389,11.951-15.513a1,1,0,0,0-1.584-1.221L284.855,258.9a1,1,0,0,0,.182,1.4.987.987,0,0,0,.609.208A1,1,0,0,0,286.439,260.119Z" fill="#232639"/><polygon points="239.337 192.832 270.067 183.642 299.788 192.832 295.428 227.752 270.067 260.882 244.689 227.752 239.337 192.832" fill="#eee0fa"/><path d="M300.781,192.956a1.009,1.009,0,0,0-.014-.275c0-.024,0-.047,0-.07a.986.986,0,0,0-.152-.34c0-.006,0-.013-.008-.019-.018-.025-.045-.037-.064-.06a.955.955,0,0,0-.191-.179.931.931,0,0,0-.137-.07.954.954,0,0,0-.127-.066l-29.721-9.19a1,1,0,0,0-.3-.045h0a.978.978,0,0,0-.285.042l-30.73,9.19a1,1,0,0,0-.142.073,1.093,1.093,0,0,0-.145.073,1.025,1.025,0,0,0-.19.188c-.02.025-.049.039-.067.066l0,.013a1.008,1.008,0,0,0-.143.343,1.031,1.031,0,0,0,0,.147.953.953,0,0,0-.006.207l.006.039h0L243.7,227.9l0,.009c0,.011.007.021.009.032a1.014,1.014,0,0,0,.117.3c.008.014.009.03.017.043s.019.021.027.033.013.026.022.037l25.378,33.129c.012.016.032.022.045.037a.991.991,0,0,0,.229.188.974.974,0,0,0,.1.069.945.945,0,0,0,.834,0,.928.928,0,0,0,.1-.068.979.979,0,0,0,.233-.191c.013-.015.032-.021.044-.036l25.361-33.129c.01-.012.014-.027.023-.04s.017-.018.024-.029.008-.027.015-.039a.968.968,0,0,0,.116-.3c0-.016.01-.031.012-.047s.007-.02.008-.031Zm-6.149,33.1-8.4-5.379a17.466,17.466,0,0,0-1.189-16.109l13.473-9.6Zm-23.565-29.847V185l26.5,8.193L283.9,202.924A17.551,17.551,0,0,0,271.067,196.209Zm-2,0a17.554,17.554,0,0,0-12.879,6.772l-14.539-9.8,27.418-8.2Zm1,1.95a15.591,15.591,0,1,1-15.591,15.59A15.609,15.609,0,0,1,270.067,198.159Zm-1,33.13v26.642l-22.923-29.922,8.666-5.541A17.584,17.584,0,0,0,269.067,231.289Zm2,0a17.582,17.582,0,0,0,14.256-8.82l8.65,5.539L271.067,257.93Zm-30.4-36.352,14.383,9.691a17.473,17.473,0,0,0-1.153,16.046l-8.457,5.408Z" fill="#232639"/><path d="M267.223,219.329c.008.008.019.01.027.018s.011.02.02.027a.914.914,0,0,0,.2.122.9.9,0,0,0,.109.068,1,1,0,0,0,.373.075.991.991,0,0,0,.378-.078.967.967,0,0,0,.113-.071.989.989,0,0,0,.2-.126c.009-.009.012-.02.02-.029s.018-.01.026-.018l9.023-9.779a1,1,0,1,0-1.47-1.356l-8.3,8.994-4.05-4.26a1,1,0,0,0-1.449,1.379Z" fill="#232639"/><path d="M556.169,225.112H530.755a1,1,0,0,1-1-1V210.281a45.283,45.283,0,0,1-7.262-2.993L512.4,217.376a1,1,0,0,1-1.414,0l-17.971-17.969a1,1,0,0,1,0-1.414l10.609-10.611a1,1,0,0,1,1.414,1.414l-9.9,9.9L511.7,215.255l9.9-9.9a1,1,0,0,1,1.182-.173,43.392,43.392,0,0,0,8.256,3.4,1,1,0,0,1,.717.958v13.573h23.414V209.539a1,1,0,0,1,.717-.958,43.326,43.326,0,0,0,8.258-3.4,1,1,0,0,1,1.182.173l9.9,9.9L591.786,198.7l-9.9-9.9a1,1,0,0,1-.173-1.181,43.35,43.35,0,0,0,3.4-8.259,1,1,0,0,1,.959-.717h13.583V155.224H586.076a1,1,0,0,1-.959-.717,43.451,43.451,0,0,0-3.4-8.26,1,1,0,0,1,.174-1.18l9.9-9.9-16.555-16.557-9.9,9.9a.993.993,0,0,1-1.181.173,43.114,43.114,0,0,0-8.258-3.4,1,1,0,0,1-.717-.959V110.75H531.76v13.574a1,1,0,0,1-.717.959,43.207,43.207,0,0,0-8.257,3.4,1,1,0,0,1-1.182-.173l-9.9-9.9-16.556,16.557,9.9,9.9a1,1,0,0,1-1.414,1.414l-10.609-10.609a1,1,0,0,1,0-1.415l17.97-17.971a1.029,1.029,0,0,1,1.414,0l10.089,10.09a45.314,45.314,0,0,1,7.264-2.994V109.75a1,1,0,0,1,1-1h25.414a1,1,0,0,1,1,1v13.832a45.314,45.314,0,0,1,7.264,2.994l10.09-10.09a1,1,0,0,1,.707-.293h0a1,1,0,0,1,.707.293l17.97,17.971a1,1,0,0,1,0,1.415l-10.088,10.087a45.489,45.489,0,0,1,2.993,7.265h13.837a1,1,0,0,1,1,1v25.414a1,1,0,0,1-1,1H586.812a45.363,45.363,0,0,1-2.994,7.265l10.089,10.089a1,1,0,0,1,0,1.414l-17.97,17.97a1.029,1.029,0,0,1-1.414,0l-10.09-10.089a45.277,45.277,0,0,1-7.264,2.994v13.831A1,1,0,0,1,556.169,225.112Z" fill="#232639"/><path d="M545.194,168.28a1,1,0,0,0,.036-.162.9.9,0,0,0,.027-.155.3.3,0,0,0,.007-.032c0-.011-.006-.021-.007-.032a.915.915,0,0,0-.027-.155,1,1,0,0,0-.036-.162.587.587,0,0,0-.024-.063.982.982,0,0,0-.087-.13.786.786,0,0,0-.066-.116l-12.2-13.942a1,1,0,0,0-1.506,1.317l10.747,12.283H479.688a1,1,0,0,0,0,2H542.06l-10.747,12.284a1,1,0,0,0,1.506,1.317l12.2-13.943a.786.786,0,0,0,.066-.116.921.921,0,0,0,.087-.13A.587.587,0,0,0,545.194,168.28Z" fill="#232639"/><path d="M339.668,163.252H199.457a1,1,0,0,0-1,1v55.8h-2.9a1,1,0,0,0,0,2h2.9v54.775a1,1,0,0,0,1,1H339.668a1,1,0,0,0,1-1V164.252A1,1,0,0,0,339.668,163.252Zm-1,112.576H200.457V165.252H338.668Z" fill="#232639"/><path d="M183.556,220.053h-12a.955.955,0,0,0-.226.046V164.252a1,1,0,0,0-1-1H30.12a1,1,0,0,0-1,1V276.828a1,1,0,0,0,1,1H170.33a1,1,0,0,0,1-1v-54.82a1.006,1.006,0,0,0,.226.045h12a1,1,0,1,0,0-2ZM169.33,275.828H31.12V165.252H169.33Z" fill="#232639"/><path d="M378.274,222.632h-12a1,1,0,0,1,0-2h12a1,1,0,0,1,0,2Zm-24,0h-12a1,1,0,0,1,0-2h12a1,1,0,0,1,0,2Zm32.521-3.478a1,1,0,0,1-1-1v-12a1,1,0,0,1,2,0v12A1,1,0,0,1,386.8,219.154Zm0-24a1,1,0,0,1-1-1v-12a1,1,0,0,1,2,0v12A1,1,0,0,1,386.8,195.154Zm0-24a1,1,0,0,1-1-1v-2.223a1,1,0,0,1,1-1h9.778a1,1,0,0,1,0,2H387.8v1.223A1,1,0,0,1,386.8,171.154Zm81.778-2.223h-12a1,1,0,0,1,0-2h12a1,1,0,0,1,0,2Zm-24,0h-12a1,1,0,0,1,0-2h12a1,1,0,0,1,0,2Zm-24,0h-12a1,1,0,0,1,0-2h12a1,1,0,0,1,0,2Zm43.389-45.491a1,1,0,0,0-1,1v12a1,1,0,1,0,2,0v-12A1,1,0,0,0,463.962,123.44Zm0-24a1,1,0,0,0-1,1v12a1,1,0,1,0,2,0v-12A1,1,0,0,0,463.962,99.44Zm0-19.058H459.02a1,1,0,0,0,0,2h3.942V88.44a1,1,0,1,0,2,0V81.382A1,1,0,0,0,463.962,80.382Zm0,67.058a1,1,0,0,0-1,1v12a1,1,0,1,0,2,0v-12A1,1,0,0,0,463.962,147.44Z" fill="#232639"/><path d="M447.02,80.382h-11V27.109a1,1,0,0,0-1-1H294.809a1,1,0,0,0-1,1V80.382h-11a1,1,0,0,0,0,2h11v57.3a1,1,0,0,0,1,1H435.02a1,1,0,0,0,1-1v-57.3h11a1,1,0,0,0,0-2Zm-13,58.3H295.809V28.109H434.02Z" fill="#232639"/><path d="M270.809,80.382h-4.126V27.109a1,1,0,0,0-1-1H125.471a1,1,0,0,0-1,1V139.684a1,1,0,0,0,1,1H265.683a1,1,0,0,0,1-1v-57.3h4.126a1,1,0,0,0,0-2Zm-6.126,58.3H126.471V28.109H264.683Z" fill="#232639"/></svg>